<svg width="364" height="189" viewBox="0 0 364 189" fill="none" xmlns="http://www.w3.org/2000/svg">
<path d="M271.434 -82.5731C265.835 -79.8506 261.312 -76.011 261.312 -73.9865C261.312 -73.2884 260.666 -72.1715 259.876 -71.4734C257.507 -69.4489 254.205 -63.9339 252.698 -59.6057C251.908 -57.3019 250.616 -54.8586 249.826 -54.0209C247.529 -51.6473 244.657 -44.6663 244.083 -40.1287C243.437 -34.9627 244.37 -27.4931 246.308 -22.8158C249.539 -14.8575 257.22 -5.99161 265.835 -0.337001C271.506 3.43274 271.793 2.38559 266.122 -1.52377C253.128 -10.5293 244.801 -23.7931 244.801 -35.591C244.801 -40.1985 247.026 -47.8776 249.108 -50.3209C250.831 -52.2756 250.831 -52.0662 249.467 -44.5965C248.893 -41.3155 248.462 -36.7778 248.462 -34.4741C248.606 -30.5647 248.606 -30.4251 249.108 -33.0779L249.611 -35.8703L249.754 -33.4269C249.898 -30.0062 253.344 -20.2328 254.923 -18.697C255.713 -17.9291 256.143 -17.3706 256 -17.3706C255.856 -17.3706 256.574 -16.3933 257.579 -15.1367C266.122 -5.29351 272.081 -1.0351 282.131 2.31578C288.592 4.47989 289.525 4.5497 299.36 4.61951C308.908 4.61951 310.272 4.47989 315.513 2.66483C328.076 -1.52377 338.055 -10.3896 341.859 -20.7215C344.013 -26.4459 344.444 -37.4061 342.793 -42.8513C340.998 -48.8549 339.131 -52.0662 334.896 -56.4642C332.814 -58.5585 330.445 -61.6302 329.584 -63.2358C328.794 -64.8414 326.281 -68.0527 324.056 -70.3564C315.656 -79.2223 305.319 -83.6901 293.258 -83.6901C289.525 -83.6901 286.295 -83.9693 286.079 -84.3882C285.864 -84.8071 284.931 -85.0863 284.069 -85.0863C282.777 -85.0863 282.705 -84.9467 283.567 -84.3882C284.787 -83.6901 285.003 -83.7599 277.824 -82.0147C275.239 -81.3864 271.434 -79.9204 269.353 -78.8034C267.271 -77.7563 265.835 -77.128 266.05 -77.477C266.84 -78.7336 272.224 -81.7354 276.675 -83.3411C280.48 -84.8071 280.767 -85.0165 278.829 -85.0863C277.608 -85.0863 274.234 -83.9693 271.434 -82.5731ZM302.519 -81.2468C325.061 -75.5223 338.414 -51.9964 329.727 -33.4269C328.148 -30.0062 326.353 -27.7025 322.261 -24.0724C319.318 -21.3498 318.097 -19.9536 319.461 -20.8611C320.825 -21.8385 323.194 -23.7931 324.702 -25.2592C326.209 -26.7252 327.143 -27.3535 326.712 -26.5855C324.415 -22.3969 312.857 -15.765 304.027 -13.5311C294.981 -11.2972 282.921 -12.7632 274.019 -17.1612C269.424 -19.3951 262.461 -26.0969 258.512 -32.0307C251.692 -42.2928 251.046 -54.0907 256.789 -64.3527C260.523 -70.9149 270.358 -77.9657 279.977 -80.9675C285.074 -82.5731 296.704 -82.7128 302.519 -81.2468ZM338.844 -48.4361C343.582 -39.2212 343.439 -27.3535 338.485 -17.5801C329.584 0.0120491 302.088 7.90058 279.259 -0.686051C272.87 -3.05959 264.902 -8.7142 261.169 -13.4613C258.512 -16.9518 254.636 -25.0497 253.774 -28.9591C253.559 -30.076 254.205 -28.9591 255.282 -26.4459C258.082 -19.9536 261.599 -15.0669 266.266 -11.367C271.004 -7.59724 273.301 -6.34066 281.054 -3.68788C290.171 -0.546431 300.94 -1.0351 310.559 -5.15389C316.59 -7.73686 322.333 -13.6009 322.333 -17.0914C322.333 -17.7197 323.266 -19.2555 324.415 -20.5819C329.225 -25.8874 333.317 -35.1722 334.178 -42.9909C334.609 -46.6908 333.963 -52.6247 332.67 -56.1152C331.665 -58.8378 336.691 -52.6247 338.844 -48.4361ZM267.845 -18.2782C268.778 -17.1612 268.706 -17.0914 267.63 -17.9989C266.409 -18.9065 266.05 -19.4649 266.625 -19.4649C266.768 -19.4649 267.342 -18.9065 267.845 -18.2782ZM319.39 -15.5556C315.01 -11.0179 307.185 -8.22553 299.001 -8.43496L293.976 -8.50477L299.36 -8.99344C302.304 -9.27268 306.18 -9.83116 307.975 -10.3198C311.565 -11.2972 318.097 -14.7179 319.461 -16.3235C319.964 -16.882 320.538 -17.3706 320.753 -17.3706C320.969 -17.3706 320.395 -16.5329 319.39 -15.5556ZM282.849 -11.367C285.792 -10.4594 287.731 -9.76135 287.084 -9.76135C285.433 -9.69154 277.034 -12.2745 275.67 -13.2518C274.809 -13.8801 274.88 -13.8801 276.029 -13.4613C276.819 -13.182 279.906 -12.2745 282.849 -11.367ZM318.384 -12.4839C316.662 -9.83116 307.257 -5.43313 301.155 -4.45579C299.576 -4.24636 301.227 -5.01427 304.888 -6.20104C308.478 -7.38781 313 -9.4123 314.939 -10.6689C318.887 -13.3915 318.959 -13.4613 318.384 -12.4839ZM292.038 -9.20287C291.32 -9.06325 290.171 -9.06325 289.525 -9.20287C288.807 -9.4123 289.382 -9.55192 290.746 -9.55192C292.11 -9.55192 292.684 -9.4123 292.038 -9.20287ZM289.166 -3.61807C288.448 -3.47845 287.156 -3.47845 286.295 -3.61807C285.362 -3.75769 285.936 -3.89731 287.515 -3.89731C289.095 -3.96712 289.812 -3.8275 289.166 -3.61807ZM296.704 -3.61807C295.771 -3.47845 294.335 -3.47845 293.474 -3.61807C292.54 -3.75769 293.258 -3.89731 295.053 -3.89731C296.848 -3.89731 297.566 -3.75769 296.704 -3.61807Z" fill="white"/>
<path d="M42.7145 -59.2566C41.9248 -58.9076 39.6275 -58.6283 37.6892 -58.6283C35.6791 -58.5585 32.3051 -58.0699 30.1514 -57.5114C27.9977 -56.9529 23.5468 -56.185 20.2445 -55.8359C13.0656 -54.9982 8.61468 -52.8341 3.58945 -47.6682C0.574312 -44.5965 0 -43.5494 0 -41.3155V-38.6627L1.2922 -40.4777C1.9383 -41.4551 3.87661 -43.8286 5.59954 -45.7833C12.7784 -53.9511 23.9775 -56.0454 28.2849 -50.0417C30.295 -47.3191 29.5053 -46.621 27.1362 -48.9946C25.844 -50.2511 25.2697 -50.67 25.9158 -49.9021C29.2899 -45.7135 29.4335 -43.6192 26.6337 -37.9646C24.4801 -33.5666 21.1778 -30.1459 13.9989 -24.9101C7.25069 -19.9536 6.81996 -18.8367 12.9938 -22.0479C16.1525 -23.6535 18.8805 -24.7007 19.383 -24.3516C20.6752 -23.5837 6.24564 -8.92365 3.08693 -7.8765C1.72294 -7.38783 0.430734 -6.89916 0.287156 -6.68973C0.071789 -6.55011 0.071789 -2.36151 0.143578 2.52519L0.358945 11.4609L6.96353 4.34025C10.6248 0.361079 13.4245 -3.19923 13.1374 -3.61809C12.922 -3.96714 13.0656 -4.10676 13.4963 -3.82752C14.286 -3.40866 16.9422 -6.4803 17.3729 -8.36517C17.5165 -8.92365 17.7319 -9.48212 17.9473 -9.69155C18.7369 -10.3897 28.931 -31.8213 30.2232 -35.3118C33.0947 -43.34 32.8076 -48.087 29.3617 -51.9266L27.2798 -54.2303L29.2899 -54.9284C33.0229 -56.3246 36.6124 -57.3019 37.3303 -57.0227C37.761 -56.8831 37.3303 -55.6963 36.397 -54.3699C34.2434 -51.2983 33.0229 -47.8078 33.0229 -44.9456C33.0229 -40.6872 30.2232 -32.1704 25.2697 -21.4894C14.7885 1.33842 12.9938 7.76093 16.0807 12.2986L17.4447 14.3231L15.0039 16.3476C11.6298 19.0701 7.89679 20.8852 3.58945 21.7927C-0.71789 22.7003 -1.36399 24.2361 2.87156 23.538C9.76331 22.4908 13.0656 21.5135 14.9321 20.0475C16.0089 19.14 17.3012 18.5815 17.8037 18.7211C18.2344 18.9305 18.6651 18.5117 18.6651 17.8834C18.6651 17.1853 18.3062 16.906 17.7319 17.2551C17.3012 17.5343 17.5883 17.0457 18.4498 16.2777C19.3112 15.44 20.1727 14.1835 20.4599 13.4155C20.8906 12.0193 20.8906 12.0193 23.4032 13.4854C25.2697 14.5325 26.6337 14.8117 28.7874 14.5325C31.2282 14.2533 31.5154 14.3231 30.7975 15.1608C30.3668 15.7193 28.1413 16.6268 25.9158 17.2551C19.8138 18.8607 17.9473 19.6984 18.4498 20.5362C18.6651 20.955 18.5216 21.0248 18.019 20.7456C17.5883 20.4663 15.4346 21.1644 13.3528 22.2814C9.90688 24.2361 7.825 24.9342 1.9383 26.1908C0.574312 26.5398 0 27.0983 0 28.0756C0 29.402 0.287156 29.5416 2.15367 29.1228C3.37408 28.9134 7.32248 27.1681 10.9119 25.2134C14.5014 23.2587 17.5883 21.7927 17.7319 21.9324C17.8755 22.072 16.0089 23.3984 13.6399 24.7946C11.2709 26.2606 9.33257 27.5172 9.33257 27.7266C9.33257 28.2153 11.3427 27.0983 20.1009 22.072C24.2647 19.6984 29.1463 16.906 30.9411 15.9287C34.2434 14.1136 40.9197 7.55151 40.9197 6.22512C40.9197 5.80626 39.0532 7.34208 36.756 9.6458C34.3869 12.0892 33.9562 12.4382 35.8227 10.4137C40.2018 5.59683 46.5911 -8.01612 52.1906 -24.2818C56.2826 -36.359 59.0106 -43.0607 57.8619 -38.6627C54.7032 -25.9573 51.1138 -15.5556 46.5193 -5.64258C44.1502 -0.54645 42.3555 3.78177 42.5709 3.9912C43.8631 5.24778 54.0571 -20.3027 58.5798 -36.2193L59.2977 -38.5929L60.8771 -36.0797C62.959 -32.7987 64.9691 -24.7007 66.333 -14.2292C68.3431 1.26861 66.1177 4.41006 47.0218 13.8344C41.1351 16.7664 33.1665 21.0248 29.4335 23.3286C21.6085 28.2153 10.1223 33.6604 4.09197 35.3359L0 36.4528V39.8735V43.364L1.9383 42.5961C8.18395 40.2924 21.106 33.3114 34.0998 25.2134C40.0583 21.5135 45.586 18.0928 46.5193 17.6041C49.8216 15.8589 47.8833 17.4645 41.494 21.5833C37.8328 23.9568 33.8844 26.6794 32.664 27.6568L30.5103 29.4718L33.0229 28.2851C37.9764 25.9115 57.0005 12.9269 61.0924 9.08732C66.7638 3.78177 68.9175 -0.75588 68.9175 -7.38783C68.9175 -17.8593 62.2411 -48.9248 60.231 -47.738C59.872 -47.4587 59.8002 -47.8078 60.0156 -48.3663C60.8771 -50.5304 56.139 -57.0227 52.2624 -58.9774C50.1087 -60.0245 45.0117 -60.234 42.7145 -59.2566ZM51.4009 -51.9266C52.7649 -50.1115 52.6213 -48.9248 51.1138 -48.5059C50.1087 -48.1568 49.8934 -47.5286 50.1087 -45.2946C50.3959 -42.2928 49.5344 -41.7343 47.2372 -43.4796C45.4424 -44.7362 45.3707 -51.5775 47.0936 -51.5775C47.7397 -51.5775 48.0986 -51.9964 47.8833 -52.4851C47.309 -53.9511 50.2523 -53.4624 51.4009 -51.9266ZM60.8053 -43.7588C60.5899 -43.2003 60.3746 -43.4098 60.3746 -44.1777C60.3028 -44.9456 60.5181 -45.3644 60.7335 -45.0852C60.9489 -44.8758 61.0207 -44.2475 60.8053 -43.7588ZM45.2271 -40.757C46.2321 -40.1985 47.9551 -39.7796 49.1037 -39.7098C50.8984 -39.7098 51.042 -39.5702 50.1805 -38.5929C49.4626 -37.7552 48.4576 -37.5457 46.0168 -37.8948C42.858 -38.3136 41.6376 -39.1514 41.6376 -40.9664C41.6376 -42.0834 43.0016 -42.0136 45.2271 -40.757ZM47.5243 -36.9174C49.3191 -36.9174 49.5344 -36.7778 48.8883 -35.9401C48.1704 -35.1722 47.5243 -35.1024 45.8732 -35.6609C44.7246 -36.0099 43.5759 -36.708 43.2888 -37.1269C43.0016 -37.6155 43.2888 -37.6853 44.0785 -37.4061C44.7963 -37.1269 46.3039 -36.9174 47.5243 -36.9174ZM46.5193 -32.9383C46.8064 -31.193 44.6528 -29.378 41.7812 -28.8195C38.4789 -28.1912 38.9096 -29.5176 42.3555 -30.5647C43.8631 -30.9836 45.3707 -31.7515 45.6578 -32.1704C46.0168 -32.659 45.8014 -32.7987 45.0117 -32.5194C43.0016 -31.7515 38.3353 -31.193 39.2686 -31.8213C39.6993 -32.1704 40.4172 -33.2873 40.8479 -34.2647C41.5658 -36.0797 41.6376 -36.1495 43.9349 -35.242C45.2271 -34.6835 46.3757 -33.6364 46.5193 -32.9383ZM46.6629 -27.8421C46.6629 -27.0044 45.7296 -25.8875 44.3656 -25.0497C41.9248 -23.5837 37.3303 -23.1649 37.3303 -24.3516C37.3303 -24.8403 43.8631 -28.3308 46.5193 -29.1685C46.5911 -29.2383 46.6629 -28.6101 46.6629 -27.8421ZM45.4424 -21.5592C45.2271 -20.7913 44.5092 -20.163 43.7913 -20.163C43.0016 -20.163 42.3555 -19.4649 41.9966 -18.2782C41.3505 -15.5556 39.5557 -13.8802 37.4021 -13.8802C35.7509 -13.95 35.6791 -14.0198 36.756 -14.8575C37.9046 -15.6952 39.484 -18.7668 39.484 -20.2329C39.484 -20.5819 39.0532 -20.8611 38.6225 -20.7913C38.12 -20.7215 37.1867 -20.7913 36.6124 -20.8611C34.5305 -21.0706 39.8429 -22.8856 42.858 -22.9554C45.4424 -22.9554 45.8014 -22.8158 45.4424 -21.5592ZM40.489 -11.9255C40.6326 -11.6462 40.3454 -10.3897 39.6993 -9.13307C38.7661 -7.24821 38.1918 -6.89916 36.1817 -6.89916C34.8895 -6.89916 32.7358 -7.52745 31.4436 -8.36517L29.0745 -9.83117L33.5973 -9.3425C38.4789 -8.85384 39.9147 -9.97079 35.4638 -10.8085C33.669 -11.1576 33.1665 -11.4368 33.8844 -11.8557C35.1048 -12.6236 39.9865 -12.6934 40.489 -11.9255ZM36.6124 -5.57277C36.6124 -4.59543 34.9612 -3.61809 32.4486 -3.05961C30.1514 -2.57094 30.0796 -2.64075 30.7975 -3.96714C31.2282 -4.80486 32.4486 -5.57277 33.5255 -5.71239C34.6741 -5.85201 35.7509 -6.06144 36.1099 -6.13125C36.397 -6.13125 36.6124 -5.92182 36.6124 -5.57277ZM31.4436 0.570509C30.9411 1.61766 29.936 2.595 29.2181 2.73462C28.2131 2.94405 27.9977 2.595 28.1413 0.989369C28.2849 -0.47664 28.8592 -1.03512 30.1514 -1.38417C32.5204 -1.87284 32.5922 -1.73322 31.4436 0.570509Z" fill="white"/>
<path d="M135.323 -5.01443C126.062 -4.45595 111.561 -2.50128 106.105 -1.2447C98.7822 0.570363 89.5214 4.61934 86.0037 7.69098C81.6964 11.3211 79.112 17.3946 77.1737 28.0755C75.0918 39.5243 73.9432 51.1826 73.9432 60.2579V67.0294L69.6358 71.1482C66.1182 74.4991 65.3285 75.6859 65.2567 77.6405C65.1849 79.2462 64.9696 78.6877 64.5388 75.8255C64.0363 72.2652 63.5338 71.2878 61.3801 69.4728C58.5086 66.9596 58.5803 67.8672 59.5136 52.0901L60.1597 40.2224L60.0161 51.8807C59.8725 61.2352 60.0161 63.6087 60.8058 63.6087C61.5237 63.6087 61.7391 61.0258 61.8826 51.5316L62.0262 39.5243L62.2416 50.7637C62.4569 59.839 62.6723 62.2125 63.6056 62.9805C65.6157 64.5861 66.4053 62.5616 66.8361 54.324L67.195 46.5053L67.3386 55.0221C67.4822 62.771 68.2001 65.7729 69.0615 62.3522C69.4923 60.8163 69.0615 39.0356 68.559 35.1263C67.9129 30.7283 66.7643 32.2641 66.6925 37.6395L66.5489 42.3167L65.9746 37.1508C65.6157 34.2886 65.1849 31.8452 64.9696 31.6358C64.7542 31.4264 64.5388 38.3376 64.467 46.9242L64.3953 62.5616L63.8927 48.2506C63.3184 33.6603 62.4569 27.7962 61.7391 34.6376L61.3801 38.1281L60.3033 34.8471C59.6572 32.6829 59.0829 31.8452 58.7239 32.4037C58.006 33.7301 56.4267 53.8354 56.4985 60.956C56.642 68.4256 56.8574 69.2634 59.9443 71.9161C61.5237 73.2425 62.4569 74.6387 62.4569 75.7557C62.4569 78.1292 63.7492 81.2009 64.5388 80.7122C64.9696 80.5028 65.2567 86.0876 65.2567 95.1628C65.2567 115.198 66.4053 128.392 70.0666 150.732C70.9998 156.596 71.5742 154.152 70.6409 147.869C67.6258 126.647 65.6875 84.6914 67.4104 78.6179C67.8411 76.8028 69.3487 74.6387 71.4306 72.684L74.7329 69.5426L74.4457 85.5989C74.2303 94.3949 73.7278 103.819 73.2971 106.542C72.7946 109.195 72.3638 117.572 72.292 125.042C72.1485 137.817 72.292 139.073 74.1586 146.264C75.9533 153.245 78.4659 159.946 79.1838 159.946C79.3992 159.946 78.7531 157.922 77.8198 155.409C76.8865 152.896 76.0969 150.243 76.1686 149.615C76.2404 148.218 79.6863 157.573 79.9017 159.597C79.9017 160.365 80.2606 161.203 80.6196 161.413C80.9785 161.692 82.0553 164.484 82.9886 167.695C85.2141 175.095 87.7267 179.074 92.2494 182.425C102.659 190.104 122.76 192.269 181.196 192.199C217.952 192.129 241.786 191.291 249.108 189.895C262.03 187.382 270.86 176.422 276.029 156.526C278.829 145.566 283.065 117.851 286.08 90.1365C286.654 85.1102 286.008 84.7612 285.075 89.5082C284.644 91.6025 284.5 89.229 284.716 82.1084C285.146 70.5897 286.295 51.6713 286.869 48.9487C287.157 47.2732 287.157 47.2732 286.51 48.7392C284.859 52.3694 282.849 79.3858 282.849 98.1647C282.849 112.406 277.393 148.358 273.373 160.575C268.348 176.142 260.882 184.938 250.329 187.94C246.165 189.127 225.274 190.663 215.368 190.523C210.055 190.453 207.973 190.314 210.701 190.174C220.68 189.755 234.894 188.499 241.068 187.452C249.826 185.986 254.78 183.612 259.446 178.725C266.338 171.535 269.425 161.273 272.368 135.862C273.588 125.949 275.24 116.176 277.25 107.589C277.824 105.215 278.183 98.9326 278.183 91.1837C278.111 76.8726 277.824 75.1972 271.291 48.9487C265.907 27.3774 265.189 24.8642 262.964 21.0247C262.03 19.2794 261.743 18.5115 262.461 19.2794C264.687 21.8624 267.63 29.0528 268.922 34.8471C270.573 42.4563 271.076 41.6884 269.568 33.7999C266.194 16.0682 256.072 7.48155 233.387 3.29295C230.156 2.66466 221.182 1.47789 213.357 0.640173C201.01 -0.756027 195.554 -0.965456 169.782 -0.965456C150.04 -0.965456 137.548 -0.686217 131.949 -0.057927C119.17 1.33827 107.397 3.92124 102.228 6.36459C96.7003 9.01737 91.029 14.8116 88.2292 20.6756C85.3576 26.8189 84.9987 29.0528 87.7267 23.8869C89.0189 21.3737 92.034 17.3946 94.3313 14.9512C101.51 7.41174 110.268 4.3401 131.59 1.68732C145.66 -0.057927 191.893 -0.057927 207.83 1.68732C228.936 3.99105 241.499 6.29478 248.175 9.15699C252.052 10.8324 257.436 15.6493 259.302 19.1398C260.02 20.6058 261.6 26.1208 262.748 31.4264C263.897 36.6621 265.046 41.6884 265.261 42.6658C266.194 46.2959 263.323 39.3847 262.03 34.7074C261.241 32.0547 260.451 29.6811 260.164 29.4717C259.877 29.2623 259.877 29.6811 260.092 30.449C260.307 31.2169 260.738 32.9622 260.954 34.2886C261.241 35.615 262.461 39.1055 263.61 41.9677C264.83 44.8299 267.199 51.1128 268.994 55.9297C270.717 60.7465 272.009 63.5389 271.722 62.2125C270.501 55.0919 270.932 54.6033 272.368 61.5144C275.886 78.2688 276.388 103.4 273.445 117.711C270.573 131.324 265.692 144.728 260.882 152.058C252.841 164.275 238.555 173.839 221.111 178.656C207.686 182.425 199.215 183.821 188.447 184.101C179.76 184.24 179.042 184.24 183.421 183.612C186.221 183.263 190.241 182.565 192.395 182.006L196.343 180.959L192.036 181.308C189.667 181.518 183.852 182.146 179.114 182.774C160.664 185.148 138.625 182.076 127.282 175.584C122.401 172.792 115.653 165.811 111.776 159.388C105.674 149.335 101.438 137.747 93.9723 110.73C91.6033 102.214 90.3111 90.6252 90.8136 81.7593C91.4597 71.0784 93.1826 54.3938 93.757 53.9052C94.0441 53.6957 93.9723 55.0221 93.6852 56.9768C92.9673 62.1427 93.6134 60.6767 95.767 52.4392C99.2847 38.9658 103.592 32.6131 113.499 26.1906C128.718 16.3474 151.906 9.08718 174.448 7.06269C186.365 6.01554 193.257 7.06269 209.983 12.6475C214.65 14.2531 218.526 15.3701 218.742 15.1606C219.675 14.2531 198.569 7.62117 190.744 6.36459C170.787 3.22314 132.81 12.1588 112.853 24.7246C104.31 30.1 99.7154 35.615 97.2028 43.5035C96.4849 45.7374 95.8388 47.4128 95.6235 47.2732C95.4799 47.0638 96.6285 43.0846 98.2797 38.3376C100.577 31.7056 101.941 28.8434 104.382 25.7718C108.689 20.4662 115.653 15.7889 124.052 12.5777C132.379 9.36642 131.805 9.08718 122.831 11.9494C115.222 14.3229 112.637 15.5795 108.904 18.4417C101.582 24.0265 96.7003 32.2641 93.0391 45.2487C92.034 48.6694 91.2443 50.9731 91.2443 50.4147C91.1726 49.0185 93.1826 41.5488 95.1927 36.0338C96.1978 33.3112 96.9875 30.9377 96.9157 30.5886C96.9157 30.3094 97.5618 29.4717 98.3514 28.7038C99.1411 27.9359 101.223 24.585 102.946 21.1643C104.669 17.7436 107.181 13.2758 108.402 11.1815L110.699 7.41174L108.617 9.2268C107.54 10.2041 104.669 12.2984 102.3 13.8343C99.9308 15.4399 95.9824 18.721 93.5416 21.3039C89.0189 25.9114 84.9269 31.915 85.6448 32.6829C85.932 32.8924 85.4294 34.2886 84.7115 35.7546C82.6297 39.5941 82.9168 39.8036 85.573 36.3131C86.7934 34.6376 89.306 31.6358 91.1008 29.6811C94.1877 26.3302 100.864 17.5342 100.29 17.5342C100.146 17.5342 97.0592 21.0247 93.398 25.2133C89.665 29.4717 86.5063 32.8226 86.2909 32.6131C85.1423 31.4264 97.7771 17.1153 102.013 14.8116L105.171 13.0663L103.161 15.5097C100.003 19.2096 94.6902 26.6095 95.1927 26.6095C95.4081 26.6095 94.9774 27.4472 94.1877 28.4943C93.398 29.6113 92.7519 30.7283 92.7519 31.0075C92.7519 31.3566 91.1726 34.0093 89.1625 36.9414C84.209 44.3412 81.84 48.9487 81.4092 52.1599L81.1221 54.8825L83.2758 52.4392L85.4294 49.9958L84.7115 52.0203C84.2808 53.1373 84.1372 54.5335 84.2808 55.0221C84.4962 55.5806 84.0654 57.1862 83.3475 58.5824C82.5579 60.0484 81.7682 62.771 81.5528 64.6559L81.1221 68.1464L82.0553 64.5861C83.0604 60.956 85.3576 56.7674 87.2242 55.2316C88.7317 53.975 88.6599 55.3712 86.937 58.5824C83.204 65.703 81.9836 70.2407 81.5528 77.9198C81.2657 83.5046 81.3375 85.1102 81.9118 83.8536C82.4861 82.3876 85.7884 71.2878 89.4496 58.373C89.9521 56.4183 90.2393 55.79 90.0957 56.9768C89.8803 58.0938 89.3778 63.888 88.9471 69.8218C88.0138 82.1084 88.8753 92.9987 92.6083 115.966C93.757 123.087 95.0492 132.023 95.4799 135.862C96.9157 148.428 100.003 159.667 103.736 165.88C106.392 170.278 115.006 179.005 118.668 181.099C120.319 182.006 122.903 183.193 124.411 183.682C125.918 184.101 126.995 184.659 126.852 184.869C126.206 185.427 110.986 181.588 106.966 179.773C103.305 178.167 96.9157 173.001 96.9157 171.605C96.9157 171.326 95.3363 168.463 93.3262 165.252C85.4294 152.547 81.0503 139.702 78.1787 121.132C76.6712 111.429 76.5994 108.217 76.5276 74.4293C76.4558 39.0356 76.5276 37.9187 78.1787 29.4019C81.2657 13.4852 84.1372 9.01737 94.3313 4.3401C110.915 -3.339 136.4 -5.57291 190.457 -4.17671C246.38 -2.71071 259.015 -0.337167 267.343 10.2739C270.286 14.0437 272.583 19.4889 273.876 26.1208C274.378 28.7736 275.024 31.0773 275.24 31.2867C275.957 32.0547 275.67 28.5642 274.593 23.6076C271.65 9.9249 263.394 1.68732 249.611 -1.31451C243.724 -2.57109 226.279 -4.1069 210.342 -4.805C195.626 -5.43329 144.009 -5.57291 135.323 -5.01443ZM266.553 39.9432C266.84 41.6186 266.266 40.1526 265.333 36.6621C264.399 33.1716 263.466 28.983 263.251 27.2378C262.964 25.5623 263.538 27.0283 264.471 30.5188C265.404 34.0093 266.338 38.1979 266.553 39.9432ZM88.6599 41.9677C86.8652 45.4582 85.573 48.6694 85.8602 49.0883C86.1473 49.577 86.0755 49.6468 85.573 49.3675C85.1423 49.0883 84.209 49.7166 83.5629 50.6939C81.4092 53.9052 81.6964 52.0203 83.9937 47.4827C86.2191 43.2941 91.1008 35.6848 91.6751 35.6848C91.8187 35.6848 90.4547 38.547 88.6599 41.9677ZM267.558 45.5978C267.343 46.0865 267.199 45.7374 267.199 44.7601C267.199 43.7827 267.343 43.4337 267.558 43.8525C267.702 44.3412 267.702 45.1789 267.558 45.5978ZM89.5214 46.994C89.306 47.5525 89.0907 47.343 89.0907 46.5751C89.0189 45.8072 89.2342 45.3884 89.4496 45.6676C89.665 45.877 89.7368 46.5053 89.5214 46.994ZM268.276 49.4373C268.061 50.1354 267.917 49.7166 267.917 48.5996C267.917 47.4128 268.061 46.9242 268.276 47.343C268.42 47.8317 268.42 48.809 268.276 49.4373ZM88.0856 50.6939C87.2242 52.2995 87.0088 52.4392 86.6498 51.4618C86.3627 50.8335 86.4345 50.4845 86.7934 50.6939C87.1524 50.9033 87.7267 50.4147 87.942 49.5769C88.2292 48.809 88.5881 48.3204 88.8035 48.46C88.9471 48.6694 88.6599 49.6468 88.0856 50.6939ZM95.0492 50.9731C94.762 52.1599 94.4031 53.0674 94.2595 52.858C94.0441 52.7184 94.1159 51.5316 94.4031 50.3449C95.0492 47.4826 95.6235 48.0411 95.0492 50.9731ZM86.4345 52.858C86.6498 53.4165 86.5781 53.6957 86.1473 53.4863C85.7166 53.2769 85.4294 53.6259 85.4294 54.2542C85.4294 54.9523 85.2141 55.3014 84.9987 55.0221C84.568 54.6731 85.2859 51.7411 85.7884 51.7411C85.8602 51.7411 86.2191 52.2297 86.4345 52.858ZM90.9572 53.975C90.7418 54.4636 90.5982 54.1146 90.5982 53.1373C90.5982 52.1599 90.7418 51.8109 90.9572 52.2297C91.1008 52.7184 91.1008 53.5561 90.9572 53.975ZM268.994 53.2769C268.779 53.8354 268.563 53.6259 268.563 52.858C268.491 52.0901 268.707 51.6712 268.922 51.9505C269.137 52.1599 269.209 52.7882 268.994 53.2769ZM84.4244 71.3577C83.3475 75.4764 82.6297 77.0821 82.6297 75.7557C82.5579 73.5218 85.2859 63.9578 85.7884 64.4465C86.0037 64.5861 85.3576 67.7275 84.4244 71.3577ZM82.3425 80.5028C82.1271 81.0612 81.9118 80.8518 81.9118 80.0839C81.84 79.316 82.0553 78.8971 82.2707 79.1764C82.4861 79.3858 82.5579 80.0141 82.3425 80.5028ZM74.4457 115.757C74.2303 116.455 74.0868 115.896 74.0868 114.57C74.0868 113.244 74.2303 112.685 74.4457 113.313C74.5893 114.012 74.5893 115.128 74.4457 115.757ZM75.1636 124.134C74.9482 124.832 74.8047 124.413 74.8047 123.296C74.8047 122.109 74.9482 121.621 75.1636 122.04C75.3072 122.528 75.3072 123.506 75.1636 124.134ZM76.3122 133.768C76.5994 137.537 76.5994 138.026 76.0969 135.862C75.4508 133.07 75.1636 128.043 75.6661 128.602C75.8097 128.741 76.0969 131.045 76.3122 133.768ZM73.7278 134.256C73.5125 134.745 73.3689 134.396 73.3689 133.419C73.3689 132.441 73.5125 132.092 73.7278 132.511C73.8714 133 73.8714 133.838 73.7278 134.256ZM97.4182 138.445C97.2028 139.004 96.9875 138.794 96.9875 138.026C96.9157 137.258 97.131 136.839 97.3464 137.119C97.5618 137.328 97.6336 137.956 97.4182 138.445ZM98.1361 141.936C97.9207 142.494 97.7053 142.285 97.7053 141.517C97.6336 140.749 97.8489 140.33 98.0643 140.609C98.2797 140.819 98.3514 141.447 98.1361 141.936ZM268.276 144.728C268.061 145.217 267.917 144.868 267.917 143.89C267.917 142.913 268.061 142.564 268.276 142.983C268.42 143.471 268.42 144.309 268.276 144.728ZM98.854 145.426C98.6386 145.915 98.495 145.566 98.495 144.588C98.495 143.611 98.6386 143.262 98.854 143.681C98.9976 144.169 98.9976 145.007 98.854 145.426ZM111.13 161.901C116.155 169.231 122.329 175.165 127.713 178.027C132.523 180.54 140.635 182.495 151.834 183.961C159.013 184.938 159.229 185.008 153.988 184.659C146.163 184.171 134.677 181.867 130.154 179.842C125.201 177.678 121.252 174.886 115.509 169.58C112.925 167.137 111.417 165.601 112.135 166.16C114.073 167.626 113.714 166.648 110.986 162.948C107.971 158.76 101.223 147.311 101.223 146.334C101.223 145.985 102.587 148.009 104.166 150.871C105.746 153.733 108.904 158.76 111.13 161.901ZM266.697 153.384C265.333 157.992 260.379 163.507 255.426 166.09C253.703 166.927 253.129 167.137 254.134 166.439C262.964 160.296 265.979 156.247 266.912 149.475C267.199 146.892 267.486 146.264 267.63 147.59C267.773 148.637 267.343 151.29 266.697 153.384ZM99.5719 148.917C99.3565 149.405 99.2129 149.056 99.2129 148.079C99.2129 147.101 99.3565 146.752 99.5719 147.171C99.7154 147.66 99.7154 148.498 99.5719 148.917ZM105.674 164.484C107.469 167.207 110.412 170.069 114.145 172.722C115.94 173.908 115.868 173.908 113.571 172.861C110.484 171.395 105.961 166.927 104.166 163.646C102.515 160.435 99.7872 152.477 99.7872 150.941C99.859 150.313 100.72 152.477 101.869 155.758C102.946 159.039 104.669 162.948 105.674 164.484ZM264.04 153.175C262.964 156.107 257.795 162.18 254.564 164.205L252.339 165.671L254.205 163.995C256.718 161.901 263.179 153.454 263.825 151.569C264.112 150.732 264.471 150.173 264.615 150.383C264.758 150.522 264.471 151.779 264.04 153.175ZM267.056 160.714C264.04 171.605 255.857 178.167 241.714 181.239C238.627 181.867 236.258 182.565 236.473 182.774C237.048 183.333 247.744 181.448 251.908 180.052C254.062 179.354 256.933 177.957 258.369 176.91L260.954 175.095L259.231 176.91C256.862 179.493 252.626 181.308 246.237 182.565C240.35 183.752 213.932 186.754 213.501 186.265C213.357 186.125 215.368 185.637 217.952 185.148C227.859 183.403 249.539 175.305 256.503 170.837C261.097 167.835 265.117 163.297 266.338 159.528C267.558 156.107 268.061 157.084 267.056 160.714ZM92.7519 168.673C93.6134 170.558 94.3313 172.582 94.2595 173.001C94.2595 173.49 94.4748 173.769 94.6902 173.559C94.9774 173.42 96.7003 174.676 98.4232 176.422C100.146 178.167 103.233 180.54 105.171 181.657C109.335 184.031 108.976 184.38 104.597 182.216C102.946 181.378 100.003 179.284 98.0643 177.469C94.762 174.467 94.6902 174.467 96.4849 176.771C100.146 181.657 104.884 183.961 116.299 186.544C121.396 187.731 126.565 188.08 148.245 188.638C162.459 188.987 178.755 189.127 184.498 188.987L194.908 188.638L186.652 189.336C181.34 189.755 167.987 189.755 148.963 189.336C123.693 188.778 118.668 188.429 113.212 187.242C102.443 184.799 98.4232 182.565 95.1209 177.05C93.6134 174.607 88.2292 160.924 88.3728 159.946C88.3728 159.597 90.0957 162.948 92.7519 168.673ZM95.5517 170.209C96.4849 171.326 96.4131 171.395 95.3363 170.488C94.6184 169.999 94.0441 169.441 94.0441 169.301C94.0441 168.743 94.6184 169.092 95.5517 170.209ZM245.878 173.21C244.298 173.908 242.719 174.467 242.288 174.467C241.929 174.467 242.863 173.908 244.442 173.141C246.021 172.442 247.673 171.884 248.032 171.884C248.462 171.884 247.457 172.512 245.878 173.21ZM224.485 181.308C224.269 181.518 223.623 181.588 223.121 181.378C222.546 181.169 222.762 180.959 223.551 180.959C224.341 180.889 224.772 181.099 224.485 181.308ZM215.87 183.403C215.655 183.612 215.009 183.682 214.506 183.472C213.932 183.263 214.147 183.054 214.937 183.054C215.726 182.984 216.157 183.193 215.87 183.403ZM111.058 184.101C110.843 184.31 110.197 184.38 109.694 184.171C109.12 183.961 109.335 183.752 110.125 183.752C110.915 183.682 111.345 183.891 111.058 184.101ZM129.723 185.497C129.508 185.706 128.862 185.776 128.359 185.567C127.785 185.357 128 185.148 128.79 185.148C129.58 185.078 130.01 185.288 129.723 185.497ZM164.972 185.567C164.254 185.706 162.962 185.706 162.1 185.567C161.167 185.427 161.741 185.288 163.32 185.288C164.9 185.218 165.618 185.357 164.972 185.567ZM211.634 186.963C210.917 187.103 209.624 187.103 208.763 186.963C207.83 186.823 208.404 186.684 209.983 186.684C211.563 186.614 212.281 186.754 211.634 186.963ZM205.891 187.661C205.173 187.801 203.881 187.801 203.02 187.661C202.087 187.521 202.661 187.382 204.24 187.382C205.82 187.312 206.537 187.452 205.891 187.661ZM199.789 188.359C198.856 188.499 197.42 188.499 196.559 188.359C195.626 188.22 196.343 188.08 198.138 188.08C199.933 188.08 200.651 188.22 199.789 188.359Z" fill="white"/>
<path d="M61.38 10.2739C59.4417 12.0191 55.7086 14.8813 53.1242 16.6266C41.7098 24.5849 33.7412 30.3093 33.7412 30.5886C33.7412 31.9149 55.1343 16.9756 60.9492 11.5304C66.4052 6.43431 66.6924 5.59659 61.38 10.2739Z" fill="white"/>
<path d="M228.792 11.5307C241.929 16.7664 250.328 23.6078 254.492 32.334C255.784 35.1264 257.723 40.0829 258.728 43.4338C261.599 52.6487 268.419 81.8293 269.927 91.1838C270.788 96.9082 271.291 98.5139 271.291 96.3498C271.363 92.1612 269.927 84.3425 265.907 66.9598C258.082 32.8227 253.846 24.3059 240.78 16.4174C235.612 13.2759 226.136 9.22693 223.982 9.22693C223.408 9.15712 225.561 10.2741 228.792 11.5307Z" fill="white"/>
<path d="M213.572 10.5531C215.224 11.321 231.017 17.3944 232.596 17.9529C233.171 18.1623 231.735 17.3246 229.366 16.068C224.843 13.6945 214.506 9.85496 212.998 9.92477C212.496 9.92477 212.783 10.204 213.572 10.5531Z" fill="white"/>
<path d="M319.749 10.972C315.082 12.5777 311.062 17.0455 309.483 22.2813C308.191 26.3302 308.191 27.0283 309.124 30.5886C310.488 35.7546 310.703 36.1036 316.016 40.9903C321.184 45.877 322.62 46.5053 327.071 45.8072C329.512 45.4582 330.23 45.1091 330.086 44.2016C329.943 43.4337 330.589 42.945 332.312 42.596C338.845 41.2696 344.588 33.9395 344.588 27.0283C344.588 20.187 339.347 13.206 332.527 10.8324C329.081 9.64565 323.482 9.71546 319.749 10.972ZM334.609 13.7644C338.127 15.6493 340.998 18.5115 341.931 21.2341C342.219 21.9322 342.147 22.3511 341.86 22.1416C341.573 22.002 341.501 23.2586 341.644 24.934C341.931 29.1226 341.357 31.0773 338.845 33.8697C333.891 39.3149 323.625 39.9432 319.174 35.0565C317.38 33.1018 318.385 33.2414 321.974 35.3357C325.492 37.43 330.086 37.5696 334.25 35.7546C339.778 33.3112 341.931 26.8189 338.845 21.8624C337.409 19.5587 337.768 18.9304 339.562 20.4662C340.137 20.9549 339.706 20.3266 338.486 19.07C333.604 13.7644 325.707 12.0192 319.677 14.8116C315.728 16.6965 313.575 19.6285 313.144 23.8171C312.713 28.2151 313.862 31.2867 317.092 34.5678C320.754 38.1979 323.266 39.3149 328.004 39.2451C334.537 39.2451 339.921 36.4527 341.716 32.1943C342.219 31.0075 342.793 30.2396 343.008 30.3792C343.152 30.5886 342.506 32.1245 341.429 33.8697C337.911 39.7337 328.794 42.2469 321.902 39.2451C310.631 34.2188 307.401 22.9095 315.226 15.6493C320.395 10.8324 327.717 10.2041 334.609 13.7644ZM328.292 15.9286C327.789 16.0682 326.784 16.0682 326.138 15.9286C325.42 15.7191 325.851 15.5795 326.999 15.5795C328.22 15.5795 328.722 15.7191 328.292 15.9286ZM330.948 21.1643C330.948 21.5832 330.445 21.5133 329.871 21.0247C329.297 20.536 328.794 19.8379 328.794 19.4889C328.794 19.07 329.297 19.1398 329.871 19.6285C330.445 20.1171 330.948 20.8152 330.948 21.1643ZM317.236 30.1C317.236 30.3094 316.805 29.6811 316.231 28.7038C315.657 27.7264 315.226 25.8416 315.226 24.5152C315.298 22.3511 315.37 22.4907 316.231 25.9114C316.805 28.0057 317.236 29.8905 317.236 30.1ZM320.969 24.7246C320.036 25.6321 319.103 24.934 319.82 23.8869C320.036 23.468 320.61 23.3284 321.041 23.5378C321.472 23.8171 321.472 24.2359 320.969 24.7246ZM335.973 25.2133C336.547 24.3057 336.691 24.3756 336.691 25.4227C336.691 26.9585 334.465 26.7491 334.035 25.2133C333.748 24.3057 333.819 24.3057 334.465 25.2133C335.183 26.1208 335.327 26.1208 335.973 25.2133ZM343.654 28.4943C343.439 29.1924 343.295 28.7736 343.295 27.6566C343.295 26.4699 343.439 25.9812 343.654 26.4C343.798 26.8887 343.798 27.8661 343.654 28.4943ZM323.984 28.0057C323.051 28.3547 322.333 28.983 322.333 29.4019C322.333 29.8207 321.974 29.9604 321.615 29.7509C320.395 29.0528 322.261 27.3076 324.056 27.3774C325.564 27.3774 325.564 27.3774 323.984 28.0057ZM326.281 29.4717C326.999 30.5188 326.21 31.0773 324.846 30.5188C324.2 30.3094 323.912 29.8207 324.128 29.4019C324.702 28.4943 325.707 28.4943 326.281 29.4717ZM333.532 31.1471C333.604 31.7056 333.389 32.1943 333.03 32.1943C332.671 32.1943 332.384 31.915 332.384 31.566C332.384 31.2169 332.168 30.3094 331.953 29.6113C331.522 28.5642 331.666 28.4943 332.384 29.1924C332.958 29.6811 333.46 30.5886 333.532 31.1471ZM330.589 31.4962C331.091 32.9622 330.589 34.2886 329.512 34.2886C329.153 34.2886 328.938 33.381 329.009 32.1943C329.153 29.8207 329.943 29.4717 330.589 31.4962ZM336.476 30.5188C336.26 30.7283 335.614 30.7981 335.112 30.5886C334.537 30.3792 334.753 30.1698 335.542 30.1698C336.332 30.1 336.763 30.3094 336.476 30.5188ZM327.861 43.7827C327.645 43.9922 326.999 44.062 326.497 43.8525C325.923 43.6431 326.138 43.4337 326.928 43.4337C327.717 43.3639 328.148 43.5733 327.861 43.7827Z" fill="white"/>
<path d="M2.72798 12.7173C1.22041 13.4852 0 14.3928 0 14.7418C0 15.5097 2.94335 14.1833 5.38418 12.3683C7.39427 10.9023 5.8867 11.0419 2.72798 12.7173Z" fill="white"/>
<path d="M180.908 11.9495C188.015 12.4381 191.533 12.9268 194.907 13.8343C197.132 14.5324 186.292 16.6267 174.447 17.8833C145.229 20.8851 125.63 28.3548 113.57 40.8508C109.406 45.2488 105.027 52.509 105.888 53.8354C106.104 54.1845 105.53 55.9995 104.596 57.8146C102.586 61.5843 99.0685 72.1256 99.1403 73.9407C99.1403 74.569 99.7864 73.2426 100.504 70.9389C101.15 68.6351 102.514 65.005 103.376 62.9107C104.237 60.8164 105.888 56.6976 106.894 53.6958C110.483 43.8526 117.159 37.5697 130.297 31.4264C150.254 22.2115 164.755 19.6285 197.419 19.4191C216.156 19.2795 220.105 19.838 227.284 23.8171C234.678 27.9359 237.98 32.0547 246.451 47.2035C255.64 63.6088 260.091 76.8727 260.091 87.3442C260.091 97.327 255.281 113.244 248.533 126.089C245.159 132.372 235.18 142.285 227.212 147.171C224.053 149.126 220.894 151.22 220.248 151.849C219.53 152.477 218.956 152.756 218.956 152.407C218.956 152.128 218.669 152.267 218.382 152.756C217.592 153.943 202.875 157.503 193.04 158.969C174.016 161.692 149.608 158.062 133.527 150.173C116.37 141.726 106.104 129.998 101.509 113.523C99.6428 106.751 99.571 89.0196 101.438 82.4575C106.319 64.8654 123.62 43.9922 139.845 36.1037C151.116 30.5887 164.971 27.7963 180.908 27.7963C193.399 27.7963 202.086 28.9831 210.413 31.9151C234.822 40.3621 247.744 55.6505 250.902 79.8047L251.979 87.6932L251.62 80.6424C251.046 68.3559 246.739 56.8373 239.703 48.4601C232.811 40.2225 220.32 32.7528 207.255 29.1227C198.999 26.819 186.938 25.6322 176.601 26.1907C154.777 27.3076 138.624 32.6132 126.707 42.596C121.036 47.3431 111.775 57.2561 109.98 60.5372C109.478 61.4447 108.904 62.2126 108.688 62.2126C108.473 62.2126 108.545 61.8636 108.832 61.3749C109.119 60.8862 109.047 60.8164 108.473 61.0957C108.042 61.3749 107.827 61.8636 108.042 62.2126C108.258 62.4919 107.252 64.5862 105.888 66.8201C104.524 69.054 103.376 71.1483 103.376 71.5672C103.376 71.9162 103.232 72.0558 103.017 71.8464C102.371 71.2879 106.319 61.5843 109.622 55.5109C111.416 52.2298 112.708 49.4374 112.565 49.2978C112.062 48.8091 103.591 65.1446 102.299 69.054C101.653 71.0785 101.222 73.1728 101.438 73.6614C101.653 74.2199 101.007 77.5708 100.074 81.1311C95.4073 98.5836 97.0584 113.313 105.386 128.811C108.473 134.606 118.093 144.728 124.482 148.917C129.651 152.407 141.568 157.992 150.326 161.064C153.915 162.32 156.5 163.367 155.997 163.437C152.838 163.507 132.45 155.06 125.272 150.522C117.447 145.705 108.688 136.56 103.448 127.834C101.007 123.785 101.079 125.46 103.591 130.277C109.047 140.958 121.897 155.409 130.01 160.156C134.461 162.669 145.66 167.277 146.162 166.718C146.306 166.578 143.434 165.322 139.845 163.856C132.809 161.064 124.984 156.456 122.041 153.245C120.103 151.22 120.677 151.43 125.415 154.571C132.809 159.388 148.244 164.624 159.73 166.16C167.125 167.137 177.462 167.695 174.806 166.928C173.011 166.369 173.227 166.299 176.026 166.578C180.405 166.997 193.256 165.811 200.65 164.414C207.972 162.948 221.253 158.481 228.648 154.92C240.636 149.126 251.836 139.492 256.43 130.906C259.876 124.553 264.183 110.172 264.686 103.4C265.763 88.531 252.625 48.5997 242.359 35.4754C239.631 31.9849 239.201 31.1472 240.708 31.8453C242.718 32.8924 232.022 23.6775 229.366 22.0719C227.786 21.1644 222.043 18.9304 216.659 17.1852C205.101 13.4155 191.461 11.2514 180.549 11.391L173.37 11.4608L180.908 11.9495ZM239.129 30.5887C240.062 31.7057 239.99 31.7755 238.914 30.8679C237.693 29.9604 237.334 29.4019 237.908 29.4019C238.052 29.4019 238.626 29.9604 239.129 30.5887ZM256.717 127.694C255.712 129.649 254.564 131.394 254.276 131.604C253.917 131.813 254.635 130.138 255.856 127.834C257.076 125.6 258.153 123.855 258.297 123.994C258.44 124.134 257.722 125.809 256.717 127.694ZM249.825 131.604C249.825 131.743 249.251 132.302 248.605 132.79C247.456 133.698 247.385 133.628 248.318 132.511C249.251 131.394 249.825 131.045 249.825 131.604ZM247.672 134.326C247.672 134.396 245.805 136.211 243.58 138.305L239.416 142.145L243.364 138.096C246.954 134.396 247.672 133.768 247.672 134.326ZM251.979 135.024C251.979 135.164 251.261 135.862 250.4 136.63L248.749 137.956L250.113 136.351C251.405 134.885 251.979 134.466 251.979 135.024ZM247.672 139.911C247.672 140.051 246.308 141.377 244.657 142.843L241.57 145.636L244.441 142.634C247.026 139.911 247.672 139.353 247.672 139.911ZM239.057 142.005C239.057 142.145 238.339 142.843 237.478 143.611L235.827 144.937L237.191 143.332C238.483 141.866 239.057 141.447 239.057 142.005ZM240.852 145.985C240.493 146.613 235.252 150.034 231.878 151.918C229.653 153.175 232.022 151.22 236.329 148.358C241.283 145.077 241.498 144.937 240.852 145.985ZM233.314 146.334C233.314 146.473 232.596 146.962 231.735 147.381C230.155 148.149 230.155 148.079 231.447 147.102C232.955 145.915 233.314 145.775 233.314 146.334ZM229.366 148.777C229.15 149.126 228.504 149.475 228.073 149.475C227.571 149.475 227.643 149.196 228.289 148.777C229.653 147.939 229.94 147.939 229.366 148.777ZM224.699 150.871C224.125 151.22 223.335 151.569 222.905 151.569C222.546 151.569 222.689 151.22 223.264 150.871C223.838 150.522 224.699 150.173 225.058 150.173C225.489 150.173 225.274 150.522 224.699 150.871ZM230.442 152.617C230.442 152.756 229.509 153.384 228.289 154.013C225.561 155.339 225.417 154.781 228.145 153.384C230.371 152.198 230.442 152.128 230.442 152.617ZM159.156 163.856C158.941 164.065 158.294 164.135 157.792 163.926C157.218 163.716 157.433 163.507 158.223 163.507C159.012 163.437 159.443 163.646 159.156 163.856ZM162.458 164.624C161.956 164.763 161.094 164.763 160.663 164.624C160.161 164.414 160.52 164.275 161.525 164.275C162.53 164.275 162.889 164.414 162.458 164.624ZM165.617 165.252C165.402 165.462 164.755 165.531 164.253 165.322C163.679 165.112 163.894 164.903 164.684 164.903C165.473 164.833 165.904 165.043 165.617 165.252ZM169.924 165.95C169.709 166.16 169.063 166.229 168.56 166.02C167.986 165.811 168.201 165.601 168.991 165.601C169.781 165.531 170.211 165.741 169.924 165.95Z" fill="white"/>
<path d="M276.388 22.4907C276.388 22.7699 277.178 24.6548 278.111 26.6793C279.116 28.7736 279.906 29.9603 279.906 29.4019C279.906 28.4245 276.46 21.5832 276.388 22.4907Z" fill="white"/>
<path d="M88.5164 34.7772C83.9937 39.8733 82.9169 41.9676 86.8653 37.779C90.0958 34.4281 92.9673 30.798 92.393 30.798C92.1776 30.798 90.4547 32.613 88.5164 34.7772Z" fill="white"/>
<path d="M69.9944 47.2036C70.2815 55.6506 70.7841 62.841 71.143 63.1901C73.0095 65.1448 73.2249 62.0033 72.0763 47.8319C70.4969 27.7964 69.3483 27.4474 69.9944 47.2036Z" fill="white"/>
<path d="M176.17 32.9623C157.433 34.7076 142.358 41.6187 128.861 54.8128C125.344 58.3033 123.19 60.1184 124.195 58.9316C125.2 57.675 127.138 55.3713 128.502 53.6959C129.938 51.8808 130.297 51.2525 129.292 52.0902C127.426 53.6261 121.324 61.1655 121.324 61.8636C121.324 62.0731 121.754 62.0731 122.257 61.7938C122.759 61.5146 122.903 61.5844 122.544 61.9334C122.185 62.2825 121.539 62.5617 121.108 62.5617C120.606 62.5617 120.318 63.1202 120.318 63.7485C120.39 64.4466 120.103 64.8655 119.601 64.7957C118.38 64.5862 111.488 78.5482 110.268 83.8538C107.827 94.1158 109.694 109.125 114.575 119.178C117.16 124.553 124.052 132.372 129.938 136.56C137.261 141.796 150.254 147.102 160.09 148.847C166.263 149.964 181.913 150.034 185.575 148.986C206.322 143.053 211.706 140.958 219.746 135.723C233.386 126.717 243.58 110.521 245.519 94.6743C246.021 90.6253 246.021 90.5555 246.165 93.697C246.452 104.168 237.406 122.11 226.997 131.394C216.731 140.679 207.04 145.077 187.944 149.056C184.785 149.754 185.575 150.871 189.164 150.871C193.83 150.871 202.66 148.986 208.763 146.683C216.875 143.611 223.838 139.283 229.797 133.489C248.39 115.408 254.133 91.3234 244.37 72.5446C241.211 66.5409 235.468 58.6524 231.233 54.5336C226.064 49.5073 212.639 40.5018 205.03 37.0113C195.912 32.7529 188.733 31.7755 176.17 32.9623ZM198.497 37.0811C203.881 38.7565 213.429 42.7357 212.998 43.0848C212.855 43.2244 210.414 42.3867 207.614 41.1999C200.291 38.2679 191.174 36.383 181.985 36.0339C174.232 35.7547 174.16 35.7547 179.473 36.4528C193.543 38.2679 203.307 40.5716 213.501 44.481C214.577 44.8998 214.721 44.7602 214.29 43.9923C214.003 43.4338 213.86 43.1546 214.147 43.364C214.362 43.5734 214.649 43.9923 214.721 44.4111C214.865 44.7602 216.875 46.2262 219.244 47.5526C221.685 48.879 226.566 52.7883 230.156 56.2788C237.478 63.3296 240.278 68.0069 242.647 77.152C248.318 98.8629 236.042 124.553 213.788 137.538C209.768 139.841 210.485 138.794 214.577 136.281C216.516 135.024 218.31 133.558 218.526 133C219.172 131.394 218.167 125.74 217.162 125.74C216.731 125.74 213.644 127.276 210.414 129.16C194.907 138.236 176.314 141.447 161.454 137.677C145.66 133.698 130.225 122.808 124.626 111.638C121.324 105.146 120.677 100.259 121.324 86.9952C121.539 81.201 121.682 76.3841 121.611 76.2445C121.467 76.1049 120.821 77.8501 120.103 80.084C119.17 83.1557 118.811 86.5764 118.811 93.2781C118.811 101.097 119.026 103.121 120.606 107.589C125.272 121.481 140.348 135.583 155.208 140.121C157.505 140.819 159.228 141.447 159.085 141.656C158.438 142.285 150.111 139.423 145.014 136.84C141.855 135.234 140.348 134.745 141.424 135.583C144.942 138.515 153.844 142.215 161.525 144.03C163.32 144.449 169.422 145.007 175.165 145.287L185.575 145.845L172.653 145.636C158.726 145.426 153.629 144.519 145.301 140.679C136.615 136.7 126.851 127.415 121.97 118.549C120.749 116.315 119.601 114.64 119.385 114.849C118.739 115.478 124.913 125.111 129.077 129.928L132.953 134.466L127.928 129.509C122.831 124.413 118.596 117.363 118.524 113.872C118.524 110.521 117.519 104.797 116.944 104.378C116.227 103.959 116.801 111.568 117.806 115.198C118.739 118.898 117.949 118.689 116.227 114.849C113.355 108.357 112.493 103.54 112.924 96.4196C114.647 66.4013 136.327 42.1772 166.981 36.0339C174.806 34.4981 192.107 35.0566 198.497 37.0811ZM116.657 72.8936C114.791 77.2218 112.709 85.6688 111.991 91.3234L111.345 96.7686L111.632 90.8348C111.776 87.5537 112.422 83.0859 113.068 80.8519C114.216 76.4539 117.016 69.6823 117.447 70.1012C117.662 70.2408 117.303 71.4974 116.657 72.8936ZM208.188 140.4C207.614 140.749 206.824 141.098 206.394 141.098C206.035 141.098 206.178 140.749 206.752 140.4C207.327 140.051 208.188 139.702 208.547 139.702C208.978 139.702 208.763 140.051 208.188 140.4ZM162.028 142.215C161.813 142.424 161.166 142.494 160.664 142.285C160.09 142.075 160.305 141.866 161.095 141.866C161.884 141.796 162.315 142.005 162.028 142.215ZM192.395 144.588C191.39 144.868 189.667 145.147 188.446 145.147C186.364 145.077 186.364 145.077 188.805 144.588C192.395 143.821 194.764 143.821 192.395 144.588Z" fill="white"/>
<path d="M169.062 40.6414C157.217 41.8282 144.295 46.7149 137.475 52.5789C131.158 58.0241 124.984 67.8673 123.117 75.6162C121.897 80.6425 121.753 91.9517 122.758 100.469C124.266 113.523 131.732 122.738 146.521 129.928C160.089 136.63 173.944 137.119 190.886 131.604C204.742 127.136 215.653 120.155 222.473 111.289C226.924 105.495 228.719 101.167 229.724 93.5574C230.873 84.3424 228.145 70.8691 223.622 63.5391C217.735 54.1147 206.895 47.3432 193.184 44.6206C187.369 43.4338 184.497 43.2942 175.164 43.5734C157.72 44.1319 146.736 47.8318 136.039 56.5581C134.46 57.8146 134.891 57.2562 136.973 55.3015C148.1 44.8998 172.795 39.5942 193.901 43.0847C197.634 43.713 202.444 44.8998 204.742 45.8073C210.269 47.9714 218.31 53.1374 223.55 57.8845C227.499 61.5146 227.642 61.5844 225.201 58.792C216.73 48.9488 202.229 42.247 185.861 40.5716C177.892 39.8037 177.318 39.8037 169.062 40.6414ZM178.61 48.0413C177.533 48.1809 175.595 48.1809 174.303 48.0413C173.011 47.9016 173.872 47.762 176.241 47.762C178.61 47.762 179.687 47.9016 178.61 48.0413ZM159.873 53.8355C156.428 54.9524 151.977 56.6977 150.038 57.675C148.028 58.6524 146.449 59.2807 146.449 59.0712C146.449 57.9543 161.74 51.8808 164.755 51.811C165.545 51.811 163.391 52.7185 159.873 53.8355ZM184.425 52.0204C184.282 52.16 181.41 52.4393 178.036 52.5789C174.662 52.7883 172.867 52.7185 174.088 52.4393C176.241 51.8808 185 51.5317 184.425 52.0204ZM189.45 53.4166C190.527 53.9751 191.891 55.0222 192.466 55.7203C193.399 56.9071 193.399 56.9071 192.035 55.7902C191.173 55.1619 189.45 54.1147 188.086 53.5562C186.722 52.9978 186.005 52.5091 186.507 52.4393C187.01 52.4393 188.302 52.8581 189.45 53.4166ZM171.36 53.5562C171.144 53.7657 170.498 53.8355 169.996 53.626C169.421 53.4166 169.637 53.2072 170.426 53.2072C171.216 53.1374 171.647 53.3468 171.36 53.5562ZM206.752 53.8355C206.752 54.1845 205.531 54.5336 204.095 54.5336C202.085 54.5336 201.655 54.3241 202.444 53.8355C203.88 52.9279 206.752 52.9279 206.752 53.8355ZM168.488 54.2543C168.273 54.4638 167.627 54.5336 167.124 54.3241C166.55 54.1147 166.765 53.9053 167.555 53.9053C168.345 53.8355 168.775 54.0449 168.488 54.2543ZM163.678 55.5807C160.376 56.8373 159.084 56.7675 161.883 55.5807C163.104 55.0222 164.54 54.6034 165.114 54.6034C165.688 54.6034 165.042 55.0921 163.678 55.5807ZM189.02 56.5581L190.599 58.0939L188.445 57.0467C187.297 56.4184 185.502 55.9996 184.497 55.9996C182.989 56.0694 183.061 56.1392 185.071 56.6279C188.804 57.4656 188.661 58.0241 184.641 58.0241C182.272 58.0241 180.62 58.4429 179.903 59.141C178.826 60.1184 178.754 60.1184 178.682 58.9316C178.682 57.8845 178.539 57.9543 177.892 59.2108C177.39 60.1882 176.457 60.8165 175.523 60.8165C174.662 60.8165 172.508 61.5844 170.642 62.4221C167.698 63.8881 167.411 63.9579 168.057 62.7712C169.062 60.9561 167.698 61.1655 166.047 63.0504C165.329 63.9579 164.181 64.7258 163.463 64.7258C162.171 64.8655 162.171 64.7956 163.463 63.3296C164.468 62.1429 164.396 62.2127 162.817 63.5391C161.74 64.4466 160.663 65.773 160.376 66.5409C160.161 67.239 159.514 67.7975 158.94 67.7975C158.15 67.7975 158.079 67.5182 158.653 66.4711C159.802 64.3768 159.514 63.9579 157.935 65.3541C157.145 66.0522 156.499 66.4013 156.499 66.0522C156.499 65.773 155.422 66.3315 154.058 67.3786C152.694 68.356 151.259 69.1937 150.828 69.1937C150.397 69.1937 149.895 69.9616 149.608 70.9389C149.392 71.9163 148.746 72.6842 148.315 72.6842C147.095 72.6842 143.434 76.5237 144.08 77.0822C144.295 77.3614 144.08 77.5709 143.434 77.5709C142.859 77.5709 140.778 79.4557 138.839 81.8293C136.973 84.133 134.891 86.2971 134.245 86.6462C132.45 87.6235 134.173 88.3914 136.398 87.5537C139.198 86.5065 139.772 87.5537 137.403 89.3688C135.034 91.1838 133.814 91.2536 132.881 89.5782C132.378 88.6008 132.665 87.3443 133.958 84.6217C134.891 82.5972 135.68 80.7821 135.68 80.6425C135.68 80.4331 134.819 80.9217 133.742 81.55L131.732 82.8066L133.096 80.7123C135.034 77.6407 137.475 75.2671 144.295 69.4031C150.469 64.0975 154.346 61.8636 163.319 58.3731C173.729 54.394 185.933 53.4864 189.02 56.5581ZM198.711 56.6279C198.209 57.326 197.706 57.8146 197.491 57.675C197.204 57.3958 198.783 55.2317 199.286 55.2317C199.429 55.2317 199.214 55.86 198.711 56.6279ZM207.541 57.4656C208.259 59.0712 211.777 61.2353 211.777 60.1184C211.777 59.7693 210.915 58.8618 209.91 58.0939C208.116 56.7675 208.116 56.6279 209.48 56.6279C211.418 56.6279 215.366 61.3051 215.366 63.6089C215.295 66.7503 211.49 69.8918 207.828 69.8918C205.675 69.822 205.675 69.822 208.403 68.8446C211.203 67.9371 213.141 66.122 213.213 64.4466C213.213 63.3296 212.495 63.3994 211.059 64.656C209.049 66.4013 205.818 66.6805 204.024 65.2145C202.301 63.8881 201.008 59.4203 202.301 59.4203C202.731 59.4203 203.234 60.1184 203.378 60.9561C203.665 62.3523 203.665 62.2825 203.808 60.607C203.88 59.3505 203.521 58.7222 202.803 58.7222C201.439 58.7222 200.219 61.0957 200.721 62.7013C201.08 63.7485 201.008 63.7485 200.362 62.9108C199.07 61.0957 199.501 58.8618 201.439 57.3958C203.952 55.4411 206.608 55.5109 207.541 57.4656ZM158.653 57.326C158.079 57.675 157.289 58.0241 156.858 58.0241C156.499 58.0241 156.643 57.675 157.217 57.326C157.792 56.9769 158.653 56.6279 159.012 56.6279C159.443 56.6279 159.227 56.9769 158.653 57.326ZM154.346 59.0014C154.346 59.141 153.843 59.4901 153.197 59.6995C152.623 59.9089 152.336 59.8391 152.551 59.4203C152.982 58.7222 154.346 58.4429 154.346 59.0014ZM195.05 63.3994C194.835 64.0975 194.691 63.5391 194.691 62.2127C194.691 60.8863 194.835 60.3278 195.05 60.9561C195.194 61.6542 195.194 62.7712 195.05 63.3994ZM131.373 66.6805C130.153 68.7748 128.502 72.1955 127.712 74.22C126.994 76.2445 126.492 76.9426 126.779 75.8256C127.425 72.2653 132.163 62.9108 133.24 62.9108C133.455 62.9108 132.594 64.656 131.373 66.6805ZM144.295 64.8655C140.921 67.0994 132.091 74.22 132.091 74.6389C132.091 74.9181 131.373 75.8954 130.583 76.8728L129.076 78.618L130.296 76.5237C131.014 75.337 132.378 73.5219 133.455 72.4049C135.322 70.4503 144.869 63.6089 145.659 63.6787C145.875 63.6787 145.3 64.2372 144.295 64.8655ZM202.803 65.7032C203.521 66.4711 203.952 67.0994 203.736 67.0994C203.521 67.0994 202.803 66.4711 202.085 65.7032C201.367 64.9353 200.937 64.307 201.152 64.307C201.367 64.307 202.085 64.9353 202.803 65.7032ZM196.629 69.9616C197.922 70.3804 199.357 71.637 200.003 72.754C200.937 74.6389 200.937 74.9879 199.142 78.4086C198.065 80.4331 196.342 83.2255 195.194 84.6217C193.327 86.9952 165.186 106.472 162.458 107.31C161.381 107.589 161.453 107.519 162.601 106.821C163.391 106.333 167.124 103.68 170.857 100.957C174.59 98.2346 181.123 93.697 185.358 90.9744C192.825 86.0877 195.337 83.7141 197.706 79.1765C199.573 75.5464 199.214 73.5219 196.486 72.2653C194.117 71.1484 193.973 71.2182 192.035 72.9634C190.958 73.9408 189.738 74.7785 189.379 74.7785C189.02 74.7785 188.876 75.0577 189.163 75.4068C189.379 75.8256 188.876 75.9652 188.086 75.8256C187.081 75.6162 186.651 75.8954 186.651 76.7332C186.651 77.4313 186.005 78.3388 185.287 78.7576C184.138 79.4557 183.851 79.3859 183.492 78.5482C183.277 77.9897 182.774 77.7105 182.343 77.9199C181.913 78.1992 181.841 78.6878 182.056 79.1067C182.343 79.5255 182.2 79.6652 181.769 79.3859C181.338 79.1765 180.405 79.735 179.687 80.7123C178.323 82.5274 164.611 91.9517 164.037 91.3932C163.678 91.114 174.447 81.3406 179.113 77.7105C180.692 76.5237 183.277 74.8483 184.856 74.0804C186.507 73.2427 187.01 72.8238 185.933 73.103C182.559 73.9408 177.677 77.0822 172.652 81.7595C165.832 87.9726 153.987 97.1177 152.694 97.1177C152.336 97.1177 152.264 96.3498 152.479 95.3724C153.125 92.8593 151.115 93.0687 149.679 95.7215C147.956 98.9327 148.315 102.353 150.613 104.867C152.264 106.612 153.412 107.17 156.858 107.589L161.166 108.217L156.284 108.008C151.977 107.868 151.187 107.659 149.249 105.774C143.29 99.9799 147.382 91.8819 159.586 85.25L162.458 83.6443L160.663 86.0179C159.658 87.3443 158.294 89.4386 157.576 90.765C156.499 92.7894 157.002 92.5102 160.376 88.9499C167.555 81.4104 180.908 72.4747 188.374 70.171C192.107 69.0541 193.758 68.9842 196.629 69.9616ZM171.862 75.337C160.663 78.9671 153.556 83.5047 148.028 90.4857C147.095 91.6027 147.382 91.114 148.531 89.2989C152.982 82.667 161.094 77.5011 172.078 74.4294C180.836 71.9163 180.692 72.5446 171.862 75.337ZM210.341 74.1502C208.618 74.9181 206.895 75.8954 206.608 76.3841C206.177 77.0124 206.034 77.0124 206.034 76.3143C206.034 75.4766 211.346 72.6842 212.854 72.754C213.284 72.754 212.136 73.3823 210.341 74.1502ZM217.52 74.8483C218.597 76.803 217.879 76.4539 216.443 74.3596C215.797 73.3125 215.582 72.754 216.012 72.9634C216.443 73.2427 217.161 74.0804 217.52 74.8483ZM214.864 77.3614C215.438 78.0595 216.156 79.8746 216.371 81.4104L216.802 84.2028L215.725 80.9916C214.72 77.8501 212.495 75.7558 212.495 77.9199C212.495 79.1765 208.905 82.4576 207.541 82.4576C206.752 82.4576 206.68 82.667 207.254 83.2255C207.757 83.7141 207.9 84.9707 207.685 86.2273C207.182 89.0895 206.034 90.2065 205.962 87.9726V86.2971L205.172 88.0424C203.449 91.9517 202.157 94.2555 201.655 93.9762C201.439 93.7668 201.296 94.4649 201.439 95.512C201.583 96.9082 200.865 98.095 198.424 100.469C196.701 102.214 195.265 103.47 195.265 103.331C195.265 103.191 195.553 102.004 195.983 100.678C196.845 97.8158 196.199 98.3044 193.83 102.493C192.825 104.308 191.604 105.844 191.173 106.053C190.025 106.402 189.953 103.261 191.03 101.097C191.676 99.7704 191.532 99.7704 190.24 101.306C186.364 105.704 182.2 109.683 181.41 109.683C180.908 109.683 180.046 110.102 179.544 110.521C178.754 111.289 178.754 111.149 179.4 109.893C179.831 109.055 180.19 107.799 180.118 107.1C180.118 106.402 179.615 107.031 178.969 108.427C178.251 110.172 177.39 111.08 176.528 111.08C174.662 111.08 169.421 113.174 167.339 114.71C165.258 116.246 163.894 116.385 165.114 114.919C165.617 114.361 166.478 113.872 166.981 113.872C167.555 113.872 167.986 113.523 167.986 113.174C167.986 112.755 167.483 112.476 166.909 112.476C166.334 112.476 165.832 112.755 165.832 113.104C165.832 113.523 164.037 114.361 161.883 114.989C159.73 115.687 157.289 116.804 156.499 117.502C155.71 118.2 155.064 118.549 155.064 118.27C155.064 116.944 157.504 114.5 159.586 113.593C161.166 112.895 161.453 112.546 160.519 112.546C158.294 112.406 154.489 115.198 153.7 117.502C152.479 120.783 152.766 122.668 154.633 124.832C155.997 126.368 157.145 126.857 160.519 127.206L164.755 127.625L161.022 127.764C156.499 127.834 154.274 126.927 152.694 124.344C151.043 121.761 151.187 118.2 152.91 115.478C155.279 111.638 159.012 109.823 168.416 107.938C174.159 106.821 178.61 105.425 181.984 103.75C190.886 99.3516 199.932 90.6951 204.024 82.5972C205.244 80.1538 206.967 77.7105 207.757 77.152C209.767 75.8256 213.5 75.8954 214.864 77.3614ZM126.133 80.5029C125.917 80.9916 125.774 80.6425 125.774 79.6652C125.774 78.6878 125.917 78.3388 126.133 78.7576C126.276 79.2463 126.276 80.084 126.133 80.5029ZM166.55 80.4331C164.611 81.8991 161.453 83.7141 162.601 82.667C163.965 81.4104 167.483 78.9671 167.914 78.9671C168.129 78.9671 167.555 79.5954 166.55 80.4331ZM199.286 83.7141C197.85 86.3669 193.04 91.114 189.738 93.1385C185.287 95.7913 175.452 100.818 176.241 100.05C176.672 99.6308 180.046 97.6761 183.779 95.7215C190.743 92.0215 195.624 88.1122 198.209 83.9934C200.003 81.2708 200.721 81.0614 199.286 83.7141ZM129.794 94.8139C131.589 97.9554 137.475 99.4912 140.778 97.8158C141.495 97.3969 142.142 97.2573 142.142 97.4667C142.142 97.6761 140.993 98.3742 139.629 98.9327C132.378 101.865 125.271 94.5347 127.64 86.6462C127.999 85.3198 128.214 85.8084 128.502 89.0895C128.717 91.3932 129.291 93.9762 129.794 94.8139ZM216.587 86.7858C216.371 87.3443 216.156 87.1348 216.156 86.3669C216.084 85.599 216.3 85.1802 216.515 85.4594C216.73 85.6688 216.802 86.2971 216.587 86.7858ZM224.196 90.2065C224.986 91.2536 225.704 93.4875 225.848 95.4422L226.063 98.8629L225.489 95.5818C225.13 93.8366 224.484 91.7423 224.053 91.0442C223.407 89.9272 223.335 89.9272 223.263 91.5329C223.191 93.2781 223.191 93.2781 222.545 91.6725C222.186 90.8348 221.612 90.1367 221.397 90.1367C221.109 90.1367 221.109 90.3461 221.325 90.5555C222.043 91.3234 218.956 95.0932 218.022 94.6045C217.52 94.3253 217.376 94.3253 217.664 94.6045C217.951 94.9536 217.52 95.8611 216.73 96.6988C215.869 97.5365 215.366 98.7931 215.582 99.7006C215.869 101.306 215.007 102.004 214.505 100.538C214.361 100.05 213.787 100.259 213.213 101.027C212.567 101.795 212.495 102.074 213.069 101.725C214.361 100.957 214.074 102.074 212.495 104.099C211.705 105.076 211.059 105.425 211.059 104.936C211.059 104.518 210.772 104.099 210.341 104.099C209.982 104.099 209.839 104.587 210.054 105.146C210.341 105.844 209.695 106.612 208.259 107.38C207.039 108.078 206.034 108.916 206.034 109.195C206.034 109.544 205.675 109.544 205.244 109.334C204.813 109.055 204.311 109.474 204.095 110.312C203.88 111.149 203.162 111.778 202.444 111.778C200.147 111.778 198.639 112.615 199.645 113.244C201.367 114.221 198.352 116.385 194.547 116.804C194.332 116.874 193.04 117.572 191.676 118.41C188.23 120.504 186.794 120.923 186.435 119.946C186.292 119.457 185.646 119.736 184.856 120.713C184.066 121.551 182.918 122.249 182.272 122.249C181.625 122.249 179.687 122.738 177.964 123.296C176.313 123.925 174.662 124.134 174.303 123.785C173.011 122.528 174.662 121.132 179.687 119.178C182.487 118.13 185.789 116.595 186.938 115.827C188.086 114.989 188.804 114.71 188.517 115.129C187.369 116.944 196.414 112.755 200.291 109.683C201.296 108.916 199.573 109.544 196.558 111.149C193.471 112.685 190.958 113.872 190.958 113.663C190.958 113.453 194.332 111.359 198.424 109.055C206.823 104.308 212.351 99.0025 216.156 92.0215C218.166 88.3216 218.525 87.9726 220.535 88.182C221.899 88.3216 223.263 89.0895 224.196 90.2065ZM217.52 99.6308C217.52 100.189 217.879 100.608 218.31 100.608C218.669 100.608 218.812 100.957 218.525 101.446C218.166 101.935 217.735 101.795 217.017 100.957C215.941 99.4214 215.725 97.5365 216.802 98.1648C217.233 98.3742 217.52 99.0723 217.52 99.6308ZM225.201 100.748C224.986 101.306 224.771 101.097 224.771 100.329C224.699 99.561 224.914 99.1421 225.13 99.4214C225.345 99.6308 225.417 100.259 225.201 100.748ZM125.415 103.54C125.199 104.099 124.984 103.889 124.984 103.121C124.912 102.353 125.128 101.935 125.343 102.214C125.558 102.423 125.63 103.052 125.415 103.54ZM224.053 103.889C223.191 105.285 223.048 104.867 223.694 103.052C223.981 102.423 224.34 102.074 224.484 102.284C224.699 102.423 224.484 103.191 224.053 103.889ZM143.362 104.238C144.152 105.146 145.085 106.612 145.372 107.589C145.803 109.125 145.659 109.055 144.367 107.1C143.577 105.914 142.285 104.727 141.495 104.448C139.844 103.959 136.039 105.634 135.393 107.24C135.106 108.008 135.537 107.868 137.044 106.821C139.629 104.936 142.285 105.425 143.434 107.938C144.511 110.172 144.582 112.685 143.577 112.127C143.218 111.917 142.859 111.987 142.859 112.336C142.859 112.685 141.926 113.383 140.778 113.872C138.05 114.989 135.968 113.872 135.034 110.87C134.388 108.706 134.388 108.636 134.317 110.521C134.245 113.174 136.542 115.268 139.557 115.268C140.921 115.268 142.285 114.919 142.5 114.57C142.716 114.151 143.29 113.872 143.721 113.872C144.223 113.872 144.152 114.291 143.577 114.919C143.003 115.547 141.495 115.966 139.629 115.966C137.116 115.966 136.183 115.617 135.034 114.151C134.173 113.104 133.527 111.638 133.527 110.94C133.527 108.636 136.47 104.168 138.48 103.47C141.28 102.493 141.783 102.563 143.362 104.238ZM131.732 115.827C134.029 118.829 135.68 120.225 142.5 125.391C143.721 126.368 143.577 126.368 141.567 125.391C135.824 122.668 125.558 109.893 125.63 105.565C125.63 104.936 126.42 106.263 127.353 108.427C128.286 110.661 130.225 114.012 131.732 115.827ZM188.876 107.1C187.728 108.217 187.01 107.1 188.158 105.774C188.804 105.006 189.235 104.936 189.379 105.495C189.522 105.914 189.307 106.682 188.876 107.1ZM222.473 107.031C221.971 107.938 219.817 110.451 217.592 112.755C207.47 123.087 192.394 129.998 179.615 130.208C174.662 130.277 174.231 130.138 172.58 128.323C170.498 125.949 170.426 124.972 172.365 122.878C173.729 121.272 173.8 121.272 173.083 122.738C170.857 127.066 173.298 129.23 180.19 129.23C188.302 129.23 199.932 125.181 208.905 119.247C213.284 116.315 219.386 110.661 221.181 107.799C222.832 105.216 223.766 104.657 222.473 107.031Z" fill="white"/>
<path d="M166.55 60.4674C165.545 61.0259 165.114 61.4447 165.545 61.5145C165.904 61.5145 166.909 61.0259 167.699 60.4674C169.422 59.2108 168.848 59.141 166.55 60.4674Z" fill="white"/>
<path d="M198.497 97.1175C196.989 98.7231 197.923 99.0024 199.933 97.6062C200.722 97.0477 200.938 96.4892 200.507 96.21C200.076 95.9307 199.215 96.3496 198.497 97.1175Z" fill="white"/>
<path d="M218.597 91.6024C218.31 92.0213 218.238 92.4401 218.454 92.6496C218.597 92.859 218.956 92.5099 219.172 91.8817C219.674 90.6949 219.244 90.4855 218.597 91.6024Z" fill="white"/>
<path d="M251.262 33.9396C251.262 34.149 252.052 35.8943 253.057 37.7792C255.857 43.1545 257.651 47.9714 259.949 55.9297C261.169 60.258 261.887 61.9334 261.672 60.1183C261.026 54.8826 257.723 44.7602 254.78 38.9659C252.267 34.2189 251.262 32.7528 251.262 33.9396Z" fill="white"/>
<path d="M9.33312 40.0828C4.02074 42.8054 0.0723399 45.1092 0.574863 45.3186C1.43633 45.5978 15.7941 38.547 18.7375 36.3131C21.8244 34.0094 19.24 35.0565 9.33312 40.0828Z" fill="white"/>
<path d="M292.611 41.0602C292.109 42.596 290.027 66.2616 290.027 70.3804C290.027 72.6841 290.529 73.8709 292.18 75.6859C294.621 78.4783 294.837 80.7123 293.616 91.7422C293.257 95.3025 292.468 103.331 291.893 109.683C290.96 120.085 290.601 121.621 288.663 125.391C286.581 129.3 286.437 130.487 285.361 143.192C283.781 163.646 283.207 182.774 284.212 186.195C285.217 189.755 287.012 191.431 289.165 190.872C291.75 190.244 292.827 187.172 294.765 175.444C297.206 160.924 297.493 157.643 296.057 163.297C294.478 169.511 294.119 168.324 295.555 161.762C296.416 157.782 296.919 156.665 297.349 157.573C297.708 158.341 297.708 157.643 297.493 155.898C297.278 154.292 297.349 152.966 297.708 152.966C298.426 152.966 300.077 137.328 300.077 131.115C300.077 129.23 299.431 126.228 298.57 124.343C297.134 121.132 297.062 120.015 297.421 104.308C297.78 85.1801 298.354 82.3179 301.944 80.2236C303.595 79.3161 304.6 77.9897 305.174 76.2444C305.892 73.8011 306.108 73.6615 308.477 73.9407L310.989 74.2199L310.558 77.2916C310.343 78.967 309.553 82.1783 308.764 84.4122C305.677 93.3479 305.103 112.336 307.328 133.768C307.687 137.607 308.118 141.936 308.261 143.402C308.477 145.566 309.194 146.683 312.281 149.475C314.435 151.43 316.373 152.966 316.661 152.966C317.522 152.966 318.599 151.22 319.389 148.428C320.106 145.636 320.178 145.636 323.552 145.636C326.926 145.636 326.998 145.566 328.506 142.494C329.367 140.749 330.947 135.583 332.023 130.975C335.972 113.453 342.792 88.6008 345.089 83.2254C345.663 81.899 347.171 79.3859 348.32 77.7104C351.622 73.103 355.857 63.7484 356.862 59.0712C357.939 53.626 356.719 50.2751 352.842 48.4601C349.755 47.0639 347.243 47.6922 345.089 50.4846C343.653 52.3694 338.125 73.6615 338.269 76.8727L338.341 78.618L338.628 76.8727C339.489 72.1256 344.012 55.2316 345.089 52.9279C347.458 47.5525 352.555 47.6223 355.642 52.9977C355.929 53.4864 354.924 53.0675 353.417 52.0902C351.909 51.043 350.617 50.5544 350.473 50.9732C350.33 51.3921 349.612 51.7411 348.894 51.7411C347.314 51.7411 346.381 53.1373 345.735 56.6278L345.233 59.0712L346.309 56.8373C349.396 50.2751 356.216 51.8808 355.068 58.9316C354.565 61.724 344.371 81.9688 343.725 81.3406C342.935 80.6425 340.853 86.6461 341.284 88.3215C341.5 89.2989 341.5 90.1366 341.141 90.1366C340.853 90.1366 340.566 90.6951 340.495 91.3234C340.423 92.5101 333.531 114.221 327.285 133.279C325.778 137.956 324.486 142.215 324.486 142.634C324.486 144.17 325.921 142.145 327.357 138.585C328.075 136.7 328.721 135.583 328.793 136.072C328.793 136.56 328.075 138.585 327.285 140.47C325.921 143.541 325.491 143.96 323.839 143.751C322.475 143.611 321.901 143.053 321.758 141.866C321.542 140.4 327.716 120.713 332.813 106.682C333.746 104.029 334.321 101.585 334.105 101.167C333.818 100.748 333.962 100.608 334.321 100.818C335.254 101.376 339.633 90.4158 339.992 86.5763C340.136 85.0405 342.217 79.5255 344.586 74.4294C347.386 68.4257 348.75 64.7258 348.391 63.8881C348.104 63.1202 348.176 62.8409 348.75 63.19C349.755 63.7484 349.54 59.9787 348.535 59.2806C347.243 58.3731 346.884 58.6523 345.663 61.8636C344.945 63.539 344.084 64.7956 343.725 64.5862C343.366 64.3069 343.151 64.7258 343.222 65.4239C343.366 66.1918 343.222 67.0993 343.007 67.5182C342.72 67.937 341.069 73.2426 339.274 79.3859C337.479 85.4593 335.541 91.8819 334.895 93.6271C334.249 95.3724 332.311 101.655 330.516 107.589C327.285 118.619 321.542 134.955 321.111 134.536C320.394 133.838 322.547 124.204 331.306 88.3215C333.89 77.6406 334.536 73.8011 334.536 68.7748C334.464 58.1636 332.598 53.6958 327.931 53.277C321.758 52.7883 320.896 57.3957 320.178 94.3252C319.819 110.242 319.245 124.553 318.886 126.089C318.312 128.253 318.24 126.508 318.383 118.759C318.527 111.498 318.455 110.312 318.096 114.57L317.666 120.504L317.019 112.127C316.661 107.519 316.589 98.7232 316.876 92.5101C317.307 81.55 317.307 81.2009 315.656 78.8972C312.281 74.0105 311.564 72.0558 312.497 70.0313C312.999 68.8446 313.286 64.2371 313.286 58.024C313.286 47.0639 312.712 42.3866 311.348 42.8753C309.553 43.4337 304.456 62.9805 304.385 69.5427C304.385 73.6615 303.739 76.3142 302.949 75.8256C302.59 75.6161 301.369 76.2444 300.221 77.2218C298.426 78.6878 297.995 79.7349 297.278 84.2726C296.847 87.2046 296.272 94.395 296.129 100.189C295.411 118.479 295.124 120.853 293.544 120.853C292.324 120.853 292.18 120.504 292.539 118.549C292.755 117.362 293.76 108.078 294.693 97.9553C296.56 78.3387 296.488 77.2218 293.186 74.2199C291.391 72.5445 291.175 70.7294 292.18 66.7503C292.683 64.7956 292.755 64.8654 292.827 67.588C292.898 70.7992 294.047 71.637 294.693 68.9842C294.908 68.1465 295.339 64.9352 295.698 61.8636L296.272 56.2788L296.416 63.0503C296.488 68.4257 296.703 69.8917 297.493 69.8917C298.929 69.8917 299.144 68.9842 300.795 57.1165C301.585 51.3223 302.375 45.3186 302.59 43.8526C302.805 42.3866 302.662 41.2696 302.231 41.2696C301.369 41.2696 301.154 42.247 299.431 51.7411L298.067 59.0712L297.995 49.6468C297.852 39.1753 297.062 38.6867 295.77 48.3204C295.339 51.5317 294.55 56.558 294.047 59.4202C293.257 64.3069 293.186 63.8881 293.473 52.2298C293.76 40.7112 293.544 38.0584 292.611 41.0602ZM312.138 63.3296C311.851 70.9389 311.133 72.6841 308.261 72.6841C306.682 72.6841 306.538 72.4049 306.538 69.3332C306.61 67.5182 307.184 63.19 307.902 59.7693L309.194 53.4864L308.979 59.7693C308.62 68.0069 309.051 66.6805 310.2 56.2788L311.133 47.9016L311.707 52.0902C312.066 54.3939 312.281 59.49 312.138 63.3296ZM330.372 55.7203C332.167 57.675 333.1 62.073 333.1 68.2163C333.1 72.7539 332.239 77.2218 328.506 91.9517C325.993 101.865 323.337 113.244 322.619 117.153C321.973 121.132 321.255 124.274 321.183 124.134C320.609 123.576 322.475 100.329 323.696 93.6271C325.132 85.4593 327.142 69.8219 327.644 62.9107C327.788 60.8164 327.788 63.3296 327.644 68.4955C327.501 73.6615 327.214 79.3161 327.07 81.0613C326.855 82.8066 327.142 81.7594 327.716 78.6878C329.08 71.2181 329.367 57.3259 328.147 57.3259C325.85 57.3957 324.127 63.8183 324.701 70.171C324.916 72.5445 324.845 75.8256 324.557 77.5708C324.127 79.7349 323.911 80.1538 323.768 78.967C323.624 77.8501 323.265 78.7576 322.619 81.4104C321.686 85.4593 321.686 85.2499 321.973 75.4765C322.26 65.5635 323.265 58.1636 324.557 55.7901C325.491 54.1845 328.936 54.1845 330.372 55.7203ZM326.424 62.3522C326.208 62.8409 326.065 62.4919 326.065 61.5145C326.065 60.5372 326.208 60.1881 326.424 60.607C326.567 61.0957 326.567 61.9334 326.424 62.3522ZM325.706 68.6351C325.562 69.5427 325.419 68.9842 325.419 67.4484C325.347 65.9126 325.491 65.2145 325.706 65.8427C325.85 66.5408 325.85 67.7974 325.706 68.6351ZM302.949 77.2218C302.949 77.3614 302.231 77.8501 301.369 78.2689C299.79 79.0368 299.79 78.967 301.082 77.9897C302.59 76.8029 302.949 76.6633 302.949 77.2218ZM315.44 80.084C315.656 80.7123 315.799 87.6933 315.799 95.5818C315.727 105.355 315.512 108.915 315.153 106.542C314.794 104.587 314.507 101.027 314.507 98.5138C314.363 90.6951 313.215 91.3234 312.64 99.561C311.994 108.846 312.281 111.498 315.799 125.391C317.953 133.698 318.671 135.792 318.671 133.558C318.742 131.953 319.101 130.626 319.46 130.626C320.896 130.626 320.106 139.841 317.953 147.52C317.378 149.754 317.019 150.103 316.23 149.475C314.435 148.079 313.789 144.519 312.999 132.023C312.569 125.321 312.066 118.061 311.779 115.966L311.276 112.127L310.774 114.919C310.415 116.455 310.128 122.389 310.056 128.183C309.984 136.979 309.841 138.096 309.266 135.164C308.907 133.209 308.548 122.389 308.477 111.08C308.333 88.9498 308.836 85.1801 312.353 80.8519C314.076 78.6878 314.794 78.4783 315.44 80.084ZM342.864 86.3669C342.289 87.8329 341.787 88.6706 341.787 88.1121C341.715 86.7857 343.438 82.1783 343.653 82.9462C343.797 83.2952 343.438 84.8311 342.864 86.3669ZM311.348 127.276C311.205 128.951 311.061 127.625 311.061 124.343C311.061 121.062 311.205 119.736 311.348 121.342C311.492 123.017 311.492 125.67 311.348 127.276ZM295.411 122.947C295.698 123.366 295.052 123.645 293.975 123.645C292.898 123.645 292.252 123.366 292.539 122.947C292.755 122.528 293.401 122.249 293.975 122.249C294.55 122.249 295.196 122.528 295.411 122.947ZM297.134 127.345C297.78 129.021 294.837 148.288 291.104 166.09C289.165 175.444 288.95 178.097 290.027 178.097C290.458 178.097 290.745 178.446 290.745 178.865C290.745 179.214 290.458 179.424 290.099 179.144C289.022 178.516 287.873 181.239 287.873 184.38C287.873 188.15 289.524 187.801 290.099 183.961L290.529 181.239L290.673 183.752C290.673 185.078 290.314 186.823 289.74 187.521C288.878 188.708 288.591 188.708 287.514 187.871C286.581 187.103 286.437 186.195 286.725 183.752C287.012 182.007 287.442 169.092 287.73 155.06C288.304 125.809 288.304 125.74 293.616 125.74C295.985 125.74 296.631 126.019 297.134 127.345ZM320.681 128.672C320.465 129.16 320.322 128.811 320.322 127.834C320.322 126.857 320.465 126.508 320.681 126.926C320.824 127.415 320.824 128.253 320.681 128.672ZM312.066 139.841C311.922 140.749 311.779 140.051 311.779 138.305C311.779 136.56 311.922 135.862 312.066 136.7C312.21 137.607 312.21 139.004 312.066 139.841ZM310.63 141.936C310.415 142.424 310.271 142.075 310.271 141.098C310.271 140.121 310.415 139.771 310.63 140.19C310.774 140.679 310.774 141.517 310.63 141.936ZM312.21 146.334C312.21 146.683 311.922 146.543 311.564 145.985C311.205 145.426 310.917 144.449 310.917 143.89C310.917 142.773 312.138 145.007 312.21 146.334ZM286.222 168.533C286.078 170.139 286.007 168.603 286.007 165.182C286.007 161.692 286.078 160.435 286.222 162.25C286.366 164.065 286.366 166.928 286.222 168.533ZM294.119 169.86C293.903 170.418 293.688 170.209 293.688 169.441C293.616 168.673 293.832 168.254 294.047 168.533C294.262 168.743 294.334 169.371 294.119 169.86Z" fill="white"/>
<path d="M325.994 85.6688C325.994 86.4367 326.209 86.6461 326.424 86.0877C326.64 85.599 326.568 84.9707 326.353 84.7613C326.137 84.482 325.922 84.9009 325.994 85.6688Z" fill="white"/>
<path d="M311.492 83.9933C310.344 86.0178 309.769 102.144 310.703 105.844C311.205 107.938 311.277 106.472 311.062 100.259C310.775 94.4648 310.99 90.4158 311.708 87.1348C312.282 84.5518 312.641 82.4575 312.569 82.4575C312.426 82.4575 311.923 83.1556 311.492 83.9933Z" fill="white"/>
<path d="M7.61017 44.2712C3.66177 46.2957 0.287687 48.39 0.144109 48.9485C-0.0712579 49.5767 0.574843 49.4371 2.22599 48.4598C3.58998 47.6919 7.03585 45.7372 9.90741 44.1316C12.7072 42.5259 15.0762 41.0599 15.0762 40.9203C15.0762 40.4316 15.148 40.3618 7.61017 44.2712Z" fill="white"/>
<path d="M303.883 50.5544C300.079 65.8428 299.361 71.5672 301.514 69.4729C302.304 68.705 307.257 45.6677 307.257 42.8055C307.257 39.0358 306.037 41.9678 303.883 50.5544Z" fill="white"/>
<path d="M13.281 50.6241C6.60459 52.7184 0 57.1164 0 59.5598C0 60.7466 0.574312 60.3975 3.58945 57.7447C16.4397 46.5751 40.3454 49.9958 50.5395 64.5163C53.77 69.1936 55.2775 73.1727 56.0672 79.6651C57.2158 88.9498 54.6314 96.6987 48.0269 103.68C41.7812 110.312 35.5356 113.383 25.9158 114.57C17.4447 115.687 6.5328 113.174 2.01009 109.195C-0.143578 107.31 -0.358945 108.846 1.72294 111.01C4.66629 114.012 11.3427 116.664 17.5883 117.293C20.6034 117.642 23.2596 118.13 23.475 118.34C23.7622 118.549 23.6186 118.759 23.1879 118.759C21.9674 118.759 17.014 120.923 17.4447 121.272C18.0908 121.9 26.7773 118.689 35.1048 114.779C45.0835 110.102 51.1138 104.797 54.5597 97.676C59.0106 88.5309 59.3695 77.0821 55.4929 69.1936C51.4009 60.6767 43.217 53.8354 33.8844 51.043C28.5002 49.4373 17.8755 49.2279 13.281 50.6241Z" fill="white"/>
<path d="M11.8452 55.2316C3.58945 59.49 3.08693 59.7693 6.31743 59.2108L8.61468 58.7221L7.32248 61.3749C5.16881 65.4937 4.37913 69.7521 4.37913 77.3614C4.37913 82.5273 4.73808 85.7386 5.74312 88.9498C7.39427 94.1856 12.1323 104.378 12.7067 103.889C12.8502 103.68 12.7067 102.912 12.2759 102.144C11.0555 99.91 11.3427 99.91 13.9989 102.423C18.378 106.402 26.9209 107.17 32.2333 104.029C34.8895 102.493 38.4789 97.2572 39.5557 93.2781C40.848 88.6008 39.9865 81.9688 37.4021 77.0821C35.8227 74.0105 35.1766 71.7068 35.1766 69.403C35.1766 67.588 34.5305 64.7258 33.7408 63.0503C32.1615 59.6297 32.4486 59.0712 34.1716 62.3522C34.8177 63.539 35.7509 66.8899 36.2535 69.6823C36.756 72.5445 37.6892 75.4067 38.2635 76.035C42.4991 80.7123 43.0016 86.7857 39.9147 95.3724C39.6275 96.1403 40.1301 95.512 41.0633 93.9762C42.2837 91.812 42.6427 90.0668 42.7145 86.2272C42.7145 82.0386 42.3555 80.7123 40.4172 77.0123C38.9096 74.2897 38.0482 71.637 38.0482 69.9615C38.0482 66.4012 36.3252 61.724 33.8126 58.7221C30.4385 54.6033 30.5103 54.3939 34.6023 55.9297C39.6275 57.8844 45.4424 61.7938 48.0986 65.005C51.042 68.5653 53.8418 74.7086 53.77 77.2218C53.6982 78.967 53.5546 78.7576 53.0521 76.2444C52.406 73.0332 49.1037 67.4484 46.5193 65.2843C44.7963 63.8182 45.2271 64.7956 47.8833 68.2163C49.8934 70.8691 51.6881 75.6859 51.6881 78.5482C51.6881 79.7349 51.1856 82.4575 50.6113 84.5518C49.3191 89.2989 49.7498 90.0668 51.1856 85.4593C51.9035 83.1556 52.2624 82.6669 52.3342 83.8537C52.406 86.0876 49.4626 92.929 46.95 96.4893C44.2938 100.189 36.6124 105.704 30.8693 108.078C26.9927 109.614 25.1262 109.963 19.742 109.963C12.4195 109.963 8.54289 108.706 3.08693 104.378C1.36399 103.051 0 102.214 0 102.563C0 103.75 4.45092 107.031 8.39932 108.776C17.014 112.615 27.6388 112.336 36.9713 108.008C47.8833 102.982 54.7032 93.6969 55.2058 83.0858C55.8519 68.7049 45.8014 56.7674 30.2232 53.4166C20.1727 51.1826 19.742 51.1826 11.8452 55.2316ZM27.567 60.956C27.9259 61.5843 28.0695 62.3522 27.7824 62.6315C27.208 63.19 24.4083 60.956 24.4083 59.9787C24.4083 58.9316 26.7055 59.6297 27.567 60.956ZM22.0392 64.3767C22.6135 64.9352 22.47 65.9125 21.3213 68.0767C20.2445 70.1011 19.742 72.1954 19.742 75.2671C19.742 79.9444 18.8805 79.5255 17.8755 74.4294C17.0858 70.3106 18.8805 63.6088 20.747 63.6088C21.0342 63.6088 21.6085 63.9579 22.0392 64.3767ZM28.7156 75.9652C31.8025 81.9688 31.3 90.8347 27.9259 90.8347C26.2748 90.8347 26.2748 90.5555 27.7824 88.3215C28.8592 86.6461 28.8592 86.2272 26.6337 80.084C23.475 71.0087 24.7672 68.3559 28.7156 75.9652ZM54.3443 82.5971C54.1289 83.0858 53.9853 82.7367 53.9853 81.7594C53.9853 80.7821 54.1289 80.433 54.3443 80.8519C54.4879 81.3405 54.4879 82.1783 54.3443 82.5971ZM22.2546 84.0631C22.2546 85.1801 20.9624 83.8537 20.6034 82.3179C20.1727 80.7821 20.2445 80.7821 21.1778 82.0386C21.7521 82.8066 22.2546 83.7141 22.2546 84.0631ZM53.6264 87.4838C53.411 88.0423 53.1957 87.8329 53.1957 87.065C53.1239 86.2971 53.3392 85.8782 53.5546 86.1574C53.77 86.3669 53.8418 86.9952 53.6264 87.4838Z" fill="white"/>
<path d="M55.4214 61.8636C55.4214 62.9805 55.565 63.3994 55.7803 62.7013C55.9239 62.073 55.9239 61.0957 55.7803 60.607C55.565 60.1882 55.4214 60.6768 55.4214 61.8636Z" fill="white"/>
<path d="M262.102 64.7258C262.102 65.4937 262.317 65.7032 262.533 65.1447C262.748 64.656 262.676 64.0277 262.461 63.8183C262.246 63.539 262.03 63.9579 262.102 64.7258Z" fill="white"/>
<path d="M0.358646 65.7728C0.0714897 66.1917 -0.000299332 66.6105 0.215068 66.82C0.358646 67.0294 0.717591 66.6804 0.932958 66.0521C1.43548 64.8653 1.00475 64.6559 0.358646 65.7728Z" fill="white"/>
<path d="M0.861945 78.199C0.359422 80.2235 0.0722656 82.7367 0.0722656 83.714C0.144055 84.7612 0.646578 83.4348 1.1491 80.7122C2.36951 74.918 2.08236 72.9633 0.861945 78.199Z" fill="white"/>
<path d="M44.2933 80.7123C45.2266 84.2028 44.7241 90.2763 43.1447 94.5347C42.355 96.7686 41.9243 98.3742 42.2832 98.2346C42.5704 98.0252 43.5036 96.0705 44.2215 93.8366C45.7291 89.2989 46.0163 82.1085 44.6523 80.0142C43.8626 78.7576 43.8626 78.8972 44.2933 80.7123Z" fill="white"/>
<path d="M80.5474 88.0422C80.5474 89.3686 80.6909 89.927 80.9063 89.2289C81.0499 88.6007 81.0499 87.4837 80.9063 86.7856C80.6909 86.1573 80.5474 86.7158 80.5474 88.0422Z" fill="white"/>
<path d="M354.495 87.4839C353.92 88.3914 353.131 89.7178 352.628 90.4857C350.475 93.8366 349.47 96.8384 349.757 99.3516C349.972 101.795 349.9 101.935 349.039 100.818C348.106 99.7006 348.106 99.7006 348.536 101.306C349.182 103.401 350.69 105.216 351.982 105.355C352.413 105.425 354.064 105.704 355.5 105.914C357.797 106.263 358.443 106.053 360.381 104.238C362.176 102.493 362.535 101.516 362.535 98.9327C362.535 93.5574 358.874 85.9481 356.361 85.9481C355.787 85.9481 354.997 86.6462 354.495 87.4839ZM358.946 96.8384C359.233 97.5365 359.161 98.9327 358.874 99.8402C358.3 101.167 358.012 101.306 357.151 100.608C356.074 99.7006 355.643 96.3498 356.577 95.4422C357.366 94.7441 358.371 95.3026 358.946 96.8384Z" fill="white"/>
<path d="M250.616 91.2534C250.616 92.0213 250.831 92.2307 251.046 91.6723C251.262 91.1836 251.19 90.5553 250.975 90.3459C250.759 90.0666 250.544 90.4855 250.616 91.2534Z" fill="white"/>
<path d="M267.199 100.608C267.199 103.889 267.415 107.17 267.774 107.938C268.563 109.753 268.563 103.959 267.774 98.5137C267.271 94.8138 267.271 94.8836 267.199 100.608Z" fill="white"/>
<path d="M80.9061 108.636C81.2651 121.342 82.1983 127.904 85.0699 136.211C86.0749 139.073 86.721 140.679 86.5057 139.702C86.2903 138.724 85.2852 134.047 84.2802 129.3C82.7726 122.11 82.4855 119.108 82.7008 111.149C82.8444 103.68 82.6291 101.167 81.7676 99.2119C80.619 96.9082 80.619 97.3271 80.9061 108.636Z" fill="white"/>
<path d="M13.9991 106.193C14.717 106.961 15.4349 107.589 15.6503 107.589C15.8657 107.589 15.4349 106.961 14.717 106.193C13.9991 105.425 13.2813 104.797 13.0659 104.797C12.8505 104.797 13.2813 105.425 13.9991 106.193Z" fill="white"/>
<path d="M265.475 113.034C263.465 120.853 263.394 121.411 265.332 115.966C266.265 113.104 267.055 110.242 266.911 109.544C266.768 108.846 266.122 110.381 265.475 113.034Z" fill="white"/>
<path d="M50.3955 116.106C49.534 116.525 48.0982 117.991 47.2368 119.247C46.0881 121.202 45.442 121.551 44.2216 121.202C40.6322 120.015 37.4734 120.155 33.3815 121.551C31.0124 122.319 25.0539 123.645 20.1005 124.413C10.1936 125.949 4.09155 127.485 1.57894 128.951C-0.287578 130.138 -0.431156 132.372 1.07641 136.002C2.08146 138.236 2.08146 138.375 1.00462 137.538C-0.000422357 136.77 -0.0722114 136.839 0.143156 138.305C0.286734 139.632 1.07641 140.19 3.58903 140.888C7.75279 142.075 10.3372 141.517 21.6081 136.7C29.2895 133.489 30.2228 132.86 30.7253 130.975C31.2278 129.16 31.8739 128.672 35.3916 127.555C41.9962 125.46 48.0982 127.625 48.0982 132.092C48.0982 134.536 50.0365 135.513 55.1335 135.513C61.1638 135.513 65.3276 131.394 65.3276 125.46C65.3276 121.551 63.4611 118.061 60.7331 116.804C57.9333 115.617 52.262 115.198 50.3955 116.106ZM58.723 118.479C60.9485 119.945 60.8767 123.645 58.5076 126.298C56.2104 129.021 53.1952 129.649 50.3237 128.183C47.3803 126.717 47.5239 126.508 50.898 126.926C53.1235 127.206 53.9849 126.996 55.2771 125.74C57.0718 123.994 56.7847 123.157 54.7028 124.274C52.4773 125.46 49.2468 124.204 48.9597 122.04C48.4572 118.13 54.7746 115.757 58.723 118.479ZM44.1498 123.226C45.0831 124.134 46.0881 124.692 46.3753 124.413C46.6624 124.204 46.6624 124.413 46.3753 124.902C46.0163 125.46 44.7241 125.6 42.1397 125.321C39.34 125.042 37.4734 125.251 34.6737 126.298C32.5918 127.066 30.7971 127.485 30.5817 127.275C29.3613 126.158 30.4381 124.413 32.8789 123.436C38.8374 120.993 41.7808 120.923 44.1498 123.226ZM63.1739 124.972C63.1739 126.298 60.3741 130.277 59.7998 129.719C59.5127 129.37 62.3842 123.645 62.8868 123.645C63.0303 123.645 63.1739 124.204 63.1739 124.972ZM28.3562 126.368C28.1409 126.787 26.7051 127.625 25.2693 128.253C20.603 130.138 3.58903 134.885 2.94293 134.536C2.58398 134.326 2.15325 133.489 1.93788 132.651C1.43536 130.766 3.8044 129.789 12.5627 128.183C16.1521 127.555 21.1055 126.647 23.69 126.158C28.7152 125.181 29.1459 125.251 28.3562 126.368Z" fill="white"/>
<path d="M354.351 118.619C351.48 120.713 349.757 123.017 344.372 132.162C342.506 135.373 337.84 141.586 334.035 145.985C330.23 150.383 324.559 157.224 321.472 161.203C318.313 165.112 313.647 170.558 311.062 173.28C306.611 178.027 306.396 178.376 306.755 181.169C307.114 183.682 308.191 186.754 310.129 190.663C310.847 192.199 315.729 194.712 318.959 195.201L321.687 195.689L313.575 200.227C304.745 205.253 295.412 211.187 294.694 212.304C294.407 212.723 293.618 212.583 292.469 211.815C288.808 209.512 281.198 210.908 263.466 217.33C245.016 223.962 226.351 234.085 223.193 239.111C221.541 241.764 221.398 246.301 222.905 249.792C223.48 251.188 223.911 252.375 223.839 252.445C223.695 252.515 220.249 253.771 216.086 255.237C204.815 259.286 199.789 261.59 198.928 263.195C197.636 265.499 198.066 267.454 200.364 269.688C202.302 271.642 202.805 271.782 205.748 271.363C207.543 271.154 212.855 269.409 217.521 267.454C228.074 263.126 229.223 263.056 231.161 266.756C232.669 269.618 234.535 271.154 237.622 271.991C239.202 272.41 239.058 272.201 236.761 270.246C234.464 268.361 231.664 262.986 232.669 262.358C232.812 262.288 234.751 261.311 236.904 260.263C239.776 258.797 240.35 258.658 239.058 259.705C238.053 260.543 236.761 261.311 236.043 261.52C234.751 261.939 233.817 263.754 234.464 264.731C235.11 265.848 236.976 265.429 239.202 263.614C240.422 262.637 242.36 261.311 243.653 260.752C245.734 259.775 245.663 259.845 243.006 262.009C237.191 266.756 236.545 267.314 237.048 267.803C237.622 268.361 241.068 266.686 246.237 263.265C253.129 258.728 262.03 253.562 262.03 254.05C261.959 254.33 260.164 255.935 257.939 257.68C252.842 261.66 249.108 264.941 250.544 264.243C251.119 263.963 254.852 261.66 258.8 259.216C262.677 256.773 270.502 252.584 276.101 249.932C284.213 246.162 287.372 244.277 291.249 240.786C294.12 238.203 294.982 237.645 293.259 239.46C289.526 243.369 282.849 248.535 277.465 251.677C271.65 255.097 273.301 254.818 279.978 251.328C286.511 247.907 292.182 243.718 295.484 239.949C297.925 237.226 298.786 234.783 297.064 235.76C296.561 236.039 296.705 235.621 297.494 234.783L298.858 233.247L300.15 235.551C305.606 244.766 306.181 247.349 303.668 252.026C302.519 254.33 295.7 262.148 291.32 266.267C288.664 268.85 290.172 268.152 294.407 264.871C301.012 259.845 307.975 251.258 307.975 248.116C307.975 247.628 309.196 247.069 310.703 246.86C322.908 245.045 345.162 233.805 352.628 225.638C362.535 214.747 360.597 200.227 348.393 194.153C345.593 192.757 343.87 192.408 339.204 192.408C336.045 192.408 332.312 192.618 330.948 192.967C328.866 193.385 328.651 193.316 330.015 192.687C330.876 192.269 331.881 191.082 332.312 190.035C332.958 188.359 339.778 167.556 343.152 156.805C345.378 149.754 350.546 141.168 356.505 134.815C364.043 126.647 365.622 122.389 362.463 118.479C360.525 116.106 357.797 116.106 354.351 118.619ZM359.52 123.366C359.735 124.902 355.572 131.394 354.064 131.883C353.49 132.023 354.208 130.557 355.643 128.532C357.941 125.251 358.874 122.947 357.869 122.947C357.653 122.947 356.074 124.902 354.279 127.275C351.982 130.207 351.192 131.743 351.767 132.302C352.7 133.209 352.7 134.117 351.767 134.117C351.336 134.117 350.69 133.349 350.259 132.441C349.254 130.277 350.977 126.577 354.423 123.645C357.223 121.272 359.161 121.132 359.52 123.366ZM349.613 137.887C349.613 138.236 348.177 140.888 346.454 143.82C344.731 146.752 342.721 150.732 342.003 152.686L340.783 156.177L337.05 154.082L333.389 151.918L340.209 143.052C347.1 134.187 347.1 134.187 348.321 135.722C349.039 136.56 349.613 137.538 349.613 137.887ZM334.896 155.06C336.547 155.688 336.691 155.967 335.973 156.805C334.681 158.271 335.758 159.039 337.481 157.992C339.778 156.596 340.281 157.643 339.132 161.552C336.906 168.882 332.527 182.006 331.379 184.729C328.938 190.314 326.282 191.64 320.826 189.895C317.739 188.848 316.231 187.521 318.744 188.08C319.749 188.289 321.256 188.638 322.118 188.918C323.41 189.337 323.913 189.057 324.631 187.591C325.348 185.986 325.277 185.357 324.2 183.682C322.836 181.378 322.549 181.937 328.292 177.329C332.312 174.048 331.738 168.952 327.502 170.488C326.21 170.976 324.989 170.907 323.554 170.348C320.682 169.161 318.528 171.186 318.672 175.025C318.744 176.561 318.816 178.307 318.816 178.935C318.816 180.54 315.657 188.569 315.011 188.569C313.934 188.569 308.693 181.448 308.693 179.982C308.693 179.074 311.134 176.073 315.011 172.233C318.457 168.743 323.769 163.297 326.784 160.086C329.799 156.945 332.456 154.362 332.671 154.362C332.886 154.362 333.891 154.711 334.896 155.06ZM321.544 174.537C321.113 175.793 320.61 176.631 320.467 176.491C320.323 176.352 320.539 175.235 320.969 173.978C321.4 172.722 321.903 171.884 322.046 172.024C322.19 172.163 321.974 173.28 321.544 174.537ZM325.851 174.048C325.348 174.956 324.2 176.561 323.195 177.748L321.4 179.842L321.831 177.957C322.908 173.908 323.769 172.512 325.205 172.512C326.497 172.512 326.569 172.722 325.851 174.048ZM329.512 173.35C329.512 173.839 328.507 175.375 327.358 176.701L325.205 179.144L326.784 175.863C328.364 172.652 329.512 171.605 329.512 173.35ZM322.19 185.497C321.831 187.452 320.18 187.521 320.18 185.567C320.18 184.659 320.395 183.682 320.682 183.403C321.4 182.705 322.477 184.101 322.19 185.497ZM348.68 197.085C350.69 197.993 352.628 199.668 354.136 201.763C356.074 204.485 356.433 205.742 356.648 209.861C356.792 212.513 356.577 215.515 356.146 216.493C355.572 217.889 355.5 217.47 355.859 214.398C356.289 210.21 355.284 205.742 353.561 203.578C352.485 202.251 352.485 202.251 353.274 203.927C353.777 204.904 354.136 207.557 354.064 209.861C353.92 220.891 346.526 228.989 329.44 236.668C322.62 239.739 313.072 243.02 311.062 243.02C309.268 243.02 307.114 240.717 305.104 236.737C304.171 234.992 302.878 232.758 302.161 231.711C301.227 230.455 300.797 228.709 300.797 226.126C300.797 223.474 300.294 221.309 299.002 218.866C297.997 216.981 297.351 215.096 297.494 214.678C297.853 213.7 307.545 207.487 315.513 203.089C321.903 199.599 329.512 196.457 334.035 195.55C338.27 194.712 344.947 195.41 348.68 197.085ZM291.32 215.096C293.977 216.702 297.207 222.566 297.207 225.847C297.207 229.058 294.407 233.875 291.177 236.179C285.434 240.298 271.722 245.115 265.907 245.115C261.815 245.115 260.164 244.137 259.446 241.205C258.8 238.832 259.949 238.064 278.398 228.36C288.09 223.264 290.387 221.24 285.003 222.775C282.562 223.474 274.163 227.523 260.954 234.294C257.005 236.388 248.965 240.088 243.006 242.671C237.12 245.254 232.094 247.488 231.879 247.698C231.089 248.466 236.258 246.86 242.935 244.277C246.811 242.811 250.185 241.694 250.257 241.834C250.616 242.113 228.361 251.049 227.356 251.049C226.28 251.049 224.844 246.581 224.772 243.3C224.7 241.205 225.131 239.949 226.423 238.622C232.525 232.2 258.369 220.821 277.968 215.794C287.731 213.351 288.305 213.281 291.32 215.096ZM249.539 245.115C247.673 246.301 242.504 249.024 238.197 251.118C233.817 253.213 230.443 255.167 230.659 255.377C231.305 256.005 238.914 252.933 247.744 248.466C252.339 246.162 256.575 244.417 257.149 244.556C258.226 244.975 248.103 251.537 239.632 255.935C236.33 257.611 230.587 260.054 226.854 261.45C223.121 262.777 217.306 264.941 213.932 266.337C206.897 269.199 202.23 269.618 201.082 267.524C199.43 264.592 203.307 262.358 224.341 254.469C234.105 250.839 244.227 246.79 246.811 245.464C252.77 242.532 254.062 242.322 249.539 245.115ZM257.939 248.954C256.072 249.792 252.267 251.816 249.467 253.492C246.739 255.167 243.653 256.913 242.647 257.471L240.853 258.518L242.576 257.192C246.452 254.26 260.092 246.581 260.738 246.93C261.097 247.139 259.877 248.047 257.939 248.954Z" fill="white"/>
<path d="M320.968 184.799C320.968 185.567 321.184 185.776 321.399 185.218C321.614 184.729 321.543 184.101 321.327 183.891C321.112 183.612 320.896 184.031 320.968 184.799Z" fill="white"/>
<path d="M84.8551 119.457C84.7833 120.015 85.4294 124.553 86.1473 129.579C87.2959 137.188 87.5113 137.747 87.1523 133.07C86.7934 127.974 84.9269 117.013 84.8551 119.457Z" fill="white"/>
<path d="M262.819 122.668C262.819 123.436 263.035 123.645 263.25 123.087C263.465 122.598 263.394 121.97 263.178 121.76C262.963 121.481 262.747 121.9 262.819 122.668Z" fill="white"/>
<path d="M256.646 134.256C245.662 147.59 236.545 153.803 218.597 160.365C202.804 166.09 191.964 168.254 175.165 169.022L163.32 169.58L176.96 169.371C188.446 169.161 191.82 168.882 198.137 167.416C216.228 163.227 232.022 156.945 241.283 150.173C246.595 146.333 257.938 134.954 259.589 131.953C260.163 130.836 260.522 129.928 260.45 129.928C260.307 129.928 258.656 131.883 256.646 134.256Z" fill="white"/>
<path d="M254.852 139.562C247.314 150.313 233.746 159.667 217.521 165.252C214.937 166.09 213.286 166.858 213.788 166.858C215.583 166.997 225.49 163.437 231.377 160.575C238.771 156.945 246.093 151.779 249.683 147.52C253.129 143.472 257.221 137.607 256.862 137.258C256.718 137.119 255.785 138.166 254.852 139.562Z" fill="white"/>
<path d="M29.0027 143.751C11.2708 149.894 0.861415 170.348 6.46096 188.01C12.6348 207.487 36.6123 216.213 55.0621 205.602C62.9589 201.065 69.7071 191.989 70.1378 185.148C70.2096 183.403 70.5686 179.214 70.7839 175.933C71.2864 169.231 70.1378 163.995 66.9791 158.76C64.3229 154.292 56.7133 147.799 51.1855 145.217C46.95 143.192 45.4424 142.913 39.4839 142.703C34.2433 142.494 31.8025 142.773 29.0027 143.751ZM49.9651 148.358C64.1075 154.571 70.7121 172.303 63.8204 185.706C61.5231 190.174 55.6364 196.038 51.2573 198.202C40.6325 203.438 26.9926 200.576 18.5933 191.431C13.5681 185.916 11.9169 181.448 11.8451 173.141C11.8451 166.858 11.9887 166.229 14.5731 161.203C21.1777 148.079 36.6123 142.494 49.9651 148.358ZM67.4816 189.895C65.1126 194.502 61.4513 198.9 57.8619 201.344C56.6415 202.112 57.5747 200.925 59.9438 198.621C62.3128 196.317 65.3997 192.338 66.7637 189.825C68.1277 187.242 69.3481 185.287 69.4917 185.427C69.6353 185.497 68.702 187.591 67.4816 189.895Z" fill="white"/>
<path d="M34.6021 150.522C30.0794 151.779 28.5 152.547 25.0541 155.13C21.3211 157.992 18.1624 163.158 16.7984 168.533C15.6498 172.861 15.6498 173.559 16.7266 177.748C18.0906 182.984 20.8186 187.242 25.4849 191.221C35.9661 200.157 53.1954 196.806 59.2975 184.729C61.0204 181.308 61.164 180.261 60.8768 175.444C60.3743 166.858 55.9952 160.156 48.8163 156.945C44.3654 154.92 37.3301 154.92 33.3817 156.945C29.0743 159.109 23.8337 163.926 22.1108 167.207C20.1725 170.907 19.67 177.957 21.0339 182.774C21.6083 184.799 21.9672 186.474 21.8236 186.474C21.68 186.474 20.8186 185.148 19.9571 183.472C17.5881 179.144 17.6599 170.697 20.0289 165.95C22.3979 161.203 26.2028 157.782 31.9459 154.99C36.0378 153.035 37.6172 152.686 41.9245 152.616C46.2319 152.616 47.5959 152.896 50.8982 154.711C52.9801 155.828 55.9952 158.201 57.5746 159.946C60.159 162.739 60.3743 162.878 59.2975 160.854C54.8466 152.337 44.2936 147.869 34.6021 150.522ZM47.9548 158.899C50.2521 159.597 52.6929 160.924 54.1287 162.39C58.5796 166.718 60.8051 175.793 58.795 181.518C58.3642 182.704 57.7181 183.682 57.3592 183.682C57.0002 183.682 57.072 182.844 57.431 181.867C58.5078 179.214 58.2924 172.722 57.1438 170.558C54.4158 165.531 46.878 160.784 40.6323 160.156C35.6789 159.667 31.8023 160.784 27.9257 163.926L24.767 166.509L27.2078 163.926C32.3766 158.55 40.2016 156.665 47.9548 158.899ZM36.8993 163.786C32.8791 165.81 32.233 165.88 32.7356 164.554C33.2381 163.297 35.8225 162.18 38.3351 162.111C40.2734 162.041 40.1298 162.18 36.8993 163.786ZM40.6323 168.673C39.8427 169.231 38.9094 169.72 38.4787 169.72C38.1197 169.72 37.1865 170.278 36.3968 170.907C35.0328 172.093 34.961 172.093 35.8225 170.627C36.7557 168.812 38.6223 167.695 40.5606 167.695C41.9963 167.695 41.9963 167.695 40.6323 168.673ZM28.9307 172.722C28.5 177.05 27.0642 177.888 26.7053 174.048C26.4899 172.233 28.4282 167.835 29.1461 168.533C29.2897 168.603 29.1461 170.558 28.9307 172.722ZM34.8892 176.491C35.9661 176.91 36.325 178.795 35.2482 178.795C32.8791 178.795 31.4434 173.908 32.8791 170.627C33.2381 169.79 33.4534 170.418 33.597 172.722C33.7406 174.816 34.1713 176.212 34.8892 176.491ZM50.1803 171.395C52.2622 173.559 53.339 177.539 52.7647 180.959C51.975 185.427 51.3289 184.589 51.3289 179.144C51.3289 174.397 51.1853 173.839 49.247 171.884C48.0266 170.697 47.4523 169.72 47.8112 169.72C48.242 169.72 49.247 170.488 50.1803 171.395ZM45.7294 174.327C46.2319 175.584 44.8679 178.795 43.7911 178.795C43.3603 178.795 43.2167 177.957 43.4321 176.84C43.7911 175.025 43.7911 175.025 43.0014 176.491C41.9245 178.586 40.9195 178.516 40.9195 176.491C40.9195 173.559 44.7243 171.814 45.7294 174.327ZM28.2128 187.312C30.7973 189.755 31.3716 190.663 30.4383 190.663C28.4282 190.593 25.4849 187.94 23.7619 184.589C21.9672 181.099 21.8236 179.772 23.4748 182.286C24.1209 183.263 26.2745 185.497 28.2128 187.312ZM44.9397 189.685C43.3603 190.802 37.5454 191.012 35.8943 189.965C35.1046 189.476 35.9661 189.267 38.7658 189.197C40.9195 189.197 43.3603 188.918 44.15 188.638C46.1601 187.801 46.5908 188.499 44.9397 189.685Z" fill="white"/>
<path d="M310.847 150.452C310.847 150.592 311.421 151.15 312.139 151.639C313.216 152.547 313.287 152.477 312.354 151.36C311.421 150.243 310.847 149.894 310.847 150.452Z" fill="white"/>
<path d="M73.9425 161.692C73.9425 161.901 74.4451 163.088 75.0912 164.205C75.6655 165.392 76.0244 166.509 75.8808 166.648C75.7373 166.858 75.1629 166.02 74.6604 164.833C73.44 161.901 72.3632 162.18 72.8657 165.322C74.1579 172.652 77.2448 179.563 79.901 181.169C80.9061 181.797 81.3368 181.657 81.9829 180.61C82.7008 179.354 82.8444 179.424 84.0648 181.657C84.7827 182.984 85.357 184.52 85.4288 185.148C85.5006 189.127 96.4125 193.386 109.119 194.503C112.063 194.782 116.801 195.759 119.529 196.667C124.554 198.342 135.035 199.808 140.347 199.599L143.219 199.529L139.988 198.97C137.117 198.551 137.26 198.482 141.568 198.621C144.368 198.691 146.019 198.482 145.516 198.202C140.778 195.061 132.092 192.967 115.078 191.012C90.8847 188.22 87.4389 186.265 79.901 171.326C75.809 163.228 73.9425 160.156 73.9425 161.692Z" fill="white"/>
</svg>
