<svg width="25" height="27" viewBox="0 0 25 27" fill="none" xmlns="http://www.w3.org/2000/svg">
<path d="M9.89437 0.0894382C7.31947 0.365108 5.36754 1.09104 3.71462 2.38669C2.01187 3.72828 1.01514 5.41906 0.824097 7.28443C0.6912 8.49737 0.815791 9.06709 1.31416 9.60005C1.62979 9.93086 1.67132 10.0136 1.55503 10.0595C1.36399 10.1422 1.00683 10.8406 1.00683 11.1346C1.00683 11.2633 1.04006 11.4746 1.08989 11.6033C1.13973 11.7503 1.13973 11.8422 1.08989 11.8422C0.940383 11.8422 0.591526 12.5313 0.591526 12.8346C0.591526 13.0643 0.525077 13.2205 0.334037 13.4135C0.142997 13.6065 0.0931599 13.7259 0.13469 13.8454C0.176221 13.9281 0.217751 14.1486 0.24267 14.3232C0.292506 14.7735 0.383874 14.8654 0.857322 14.9297L1.26432 14.994L0.824097 15.2605C-0.380288 15.9772 -0.255697 16.8318 1.13973 17.2821C1.47197 17.3923 1.72946 17.5118 1.71285 17.5485C1.68793 17.5853 1.54673 17.6404 1.38891 17.668C0.973607 17.7599 0.873934 17.9253 0.998526 18.3664C1.08159 18.6696 1.06497 18.7891 0.923771 19.1934C0.649669 19.9561 0.724424 20.3879 1.13973 20.3879C1.29755 20.3879 1.32246 20.4523 1.36399 21.0955L1.41383 21.7939L1.00683 22.1982C0.54169 22.6576 0.43371 22.9976 0.624751 23.4019C1.62979 25.543 9.62857 26.7927 16.3316 25.8462C19.164 25.4511 22.096 24.5689 23.724 23.6225C25.7258 22.4555 25.377 21.3895 22.6442 20.3512L22.0628 20.1215H22.42C23.3336 20.1031 23.4749 19.469 22.7854 18.5226C22.6442 18.3296 22.5113 18.008 22.4781 17.8058C22.4449 17.5945 22.3452 17.3464 22.2539 17.2453C22.096 17.0707 22.0047 17.0707 21.6558 17.2269C21.5063 17.2912 21.5063 17.2729 21.6807 16.9972C21.9465 16.5929 21.9382 16.0783 21.6724 15.6372C21.4897 15.334 21.4648 15.1962 21.4731 14.6264C21.4897 14.02 21.5063 13.9465 21.7555 13.6708C22.2539 13.1103 22.2788 12.3843 21.8219 11.6584L21.6226 11.3368L21.8302 10.9508C21.9798 10.666 22.0296 10.4546 22.013 10.1698C21.9964 9.91248 22.0379 9.69194 22.1376 9.51735C22.5529 8.82818 22.611 8.08387 22.3535 6.90768C21.7804 4.25205 19.571 1.89967 16.6555 0.824559C14.7534 0.117006 12.2035 -0.158665 9.89437 0.0894382ZM13.9477 0.594832C15.6007 0.833746 16.7718 1.22888 18.0344 1.98237C18.9812 2.5429 19.355 2.83695 20.0444 3.56288C21.0162 4.57367 21.689 5.76824 21.9798 7.01794C22.1625 7.82658 22.1376 7.99198 21.8884 7.45902C21.6143 6.84335 20.7837 5.97959 20.0029 5.50176C19.679 5.2996 19.3633 5.1342 19.3135 5.1342C19.2637 5.1342 19.5461 5.50176 19.9448 5.94283C20.7754 6.88011 21.2073 7.54172 21.4399 8.28603C21.6641 8.98439 21.6558 9.3979 21.4232 9.63681C21.0827 9.99518 19.5959 10.7211 18.7404 10.96C16.9379 11.4562 14.5873 11.7319 11.3479 11.8146C7.36101 11.9157 4.52032 11.4746 2.80926 10.4914C2.36903 10.2341 2.26936 10.1422 2.34412 10.0411C2.41056 9.94924 2.35242 9.83897 2.07832 9.55411L1.72946 9.17736L1.77099 8.59845C1.84575 7.56929 2.37734 6.59525 3.26609 5.81419C4.48709 4.75745 6.50548 4.14179 9.32955 3.97639L10.3678 3.91206L10.4177 4.72988C10.4509 5.18015 10.5173 6.39309 10.5672 7.43145C10.617 8.46981 10.6751 9.33357 10.7001 9.36114C10.7665 9.44384 10.6834 4.26124 10.6087 4.08665C10.5339 3.91206 10.5755 3.91206 11.9377 3.9672C14.089 4.05909 15.7668 4.40827 17.1539 5.04231C19.0228 5.90608 20.7089 7.88171 20.8418 9.37033C20.8833 9.90329 20.9747 9.94005 21.1076 9.50817C21.4897 8.21252 19.5793 5.61203 17.5443 4.66556C16.8466 4.34395 15.609 3.99476 14.3797 3.78342C13.0092 3.5445 8.62353 3.5445 7.23641 3.78342C5.05191 4.16017 3.49866 4.84015 2.48532 5.86932C1.75438 6.60444 1.42214 7.31199 1.34738 8.32278C1.28924 9.02115 1.28093 9.03034 1.21448 8.67196C1.02344 7.77144 1.18957 6.65957 1.67963 5.53851C2.60991 3.42504 4.82764 1.65157 7.36931 0.999148L8.08364 0.815369L8.88933 1.28401C9.33786 1.5413 9.99404 2.01913 10.3512 2.34993L10.9908 2.94722L10.7997 2.56128C10.4426 1.85373 9.14682 0.824558 8.61523 0.815369C8.175 0.80618 8.74812 0.640778 9.56212 0.548888C11.1486 0.355919 12.3779 0.374296 13.9477 0.594832ZM2.60991 11.0152C2.66805 11.0244 2.82587 11.0795 2.95877 11.1438L3.20795 11.2725L2.95877 11.3735C2.48532 11.5849 1.90389 11.6676 1.61318 11.5573C1.3723 11.4746 1.33908 11.4195 1.33908 11.1438C1.33908 10.9233 1.40552 10.7487 1.54673 10.5925L1.74608 10.3719L2.12816 10.6935C2.34412 10.8681 2.56007 11.0152 2.60991 11.0152ZM21.606 10.4638C21.606 10.5098 21.4897 10.6935 21.3402 10.8773C20.8418 11.5114 19.9448 11.8422 19.0311 11.7503C18.5161 11.686 18.6075 11.6124 19.2803 11.5206C19.9614 11.4379 20.4265 11.2357 20.983 10.7854C21.5063 10.3719 21.606 10.3168 21.606 10.4638ZM4.31266 11.6124C5.12666 11.8514 5.28448 11.98 4.68644 11.9065C4.43725 11.8789 4.24621 11.8881 4.24621 11.9341C4.24621 12.1362 5.63333 12.3292 5.92405 12.1638C5.98219 12.1362 5.95727 12.173 5.8659 12.2465C5.60842 12.4854 5.07682 12.6049 4.52862 12.5497C3.73954 12.4854 3.33254 12.127 3.33254 11.5022C3.33254 11.3184 3.35746 11.2816 3.48205 11.3368C3.55681 11.3735 3.93058 11.5022 4.31266 11.6124ZM21.1242 12.1362C20.7754 12.4946 20.7588 12.5038 20.6508 12.32C20.5843 12.2281 20.4099 12.1087 20.2604 12.0719C20.0195 12.0168 20.0029 11.9984 20.1524 11.9341C20.2438 11.8881 20.4016 11.8514 20.5096 11.8514C20.6508 11.8422 20.6923 11.8973 20.6923 12.0719C20.6923 12.2924 20.7089 12.2832 20.9996 11.9341C21.2156 11.6584 21.3236 11.5849 21.39 11.6584C21.4565 11.7319 21.3817 11.8605 21.1242 12.1362ZM17.8267 12.2924C17.6772 12.6232 16.9961 13 16.4147 13.0827C15.8748 13.1562 15.3099 13.0092 14.5458 12.5957C13.9893 12.2924 13.9477 12.2557 14.1637 12.2281C14.2883 12.2097 14.5873 12.2924 14.8282 12.4027C15.6173 12.7978 17.3366 12.6508 17.7021 12.1546C17.8765 11.9249 17.9596 12.0168 17.8267 12.2924ZM1.72116 12.2097C1.80422 12.2097 1.83744 12.3384 1.83744 12.6692V13.1286H1.5052C0.940383 13.1286 0.757649 12.5222 1.2394 12.2189C1.31416 12.1638 1.43044 12.1454 1.48859 12.1638C1.55503 12.1914 1.65471 12.2097 1.72116 12.2097ZM8.02549 12.2189C8.59031 12.2281 8.59861 12.2281 8.35774 12.3476C7.99227 12.5313 7.41084 12.513 7.07029 12.2924L6.77958 12.1087L7.11182 12.1546C7.29456 12.1822 7.70986 12.2097 8.02549 12.2189ZM11.8795 12.4211C11.4891 12.5865 10.7084 13.0367 10.1352 13.4227C9.00561 14.1854 8.70659 14.3232 8.21653 14.3232C7.74308 14.3232 7.42745 14.121 6.82111 13.4502C6.21476 12.7794 6.25629 12.6416 6.87094 13.2573C7.41915 13.7902 7.73478 13.9556 8.21653 13.9556C8.73982 13.9556 8.99731 13.8362 10.0605 13.0827C10.9659 12.4486 11.7051 12.127 12.2616 12.127C12.5689 12.127 12.544 12.1454 11.8795 12.4211ZM2.92554 12.4486C2.98369 12.5222 3.19964 12.6967 3.4073 12.8162L3.78938 13.0459L3.46544 12.9908C2.95046 12.8989 2.25275 12.5773 2.25275 12.4303C2.25275 12.2465 2.78434 12.2649 2.92554 12.4486ZM21.7721 12.66C21.7721 12.9081 21.7057 13.1103 21.5728 13.294C21.3485 13.5789 20.385 14.1946 20.2936 14.1027C20.2687 14.0659 20.5677 13.6983 20.9664 13.2757C21.3651 12.8438 21.689 12.4578 21.689 12.4027C21.689 12.3476 21.7057 12.3016 21.7306 12.3016C21.7555 12.3016 21.7721 12.467 21.7721 12.66ZM19.6291 12.5405L20.1109 12.5957L19.7537 13.0459C19.0892 13.8821 19.0643 14.1302 19.7288 13.3584C20.0694 12.954 20.3601 12.6508 20.3601 12.6876C20.3601 12.7243 20.0943 13.1194 19.7703 13.5605C19.4547 14.0016 19.0892 14.5437 18.9646 14.7551C18.84 14.9756 18.7071 15.1502 18.6739 15.1502C18.6324 15.1502 18.4829 15.0491 18.3417 14.9297C18.0011 14.654 17.536 14.3875 17.3283 14.36C17.237 14.3508 16.7137 14.167 16.1655 13.9556C15.5508 13.7259 14.7202 13.487 14.0059 13.3584C12.3696 13.0551 12.1619 12.9265 13.4079 13C14.1637 13.0367 14.5209 13.1011 14.9362 13.2757C15.8249 13.6524 17.0376 13.9556 17.619 13.9556C18.2254 13.9556 18.1756 13.8178 17.536 13.7259C16.8964 13.6248 16.8881 13.5973 17.4446 13.2665C17.7436 13.0919 18.0842 12.853 18.2005 12.7427C18.3168 12.6232 18.2669 12.6967 18.0842 12.8897C17.8682 13.1194 17.8018 13.2297 17.9098 13.1838C18.0011 13.1562 18.2088 12.9632 18.3666 12.7611C18.6075 12.467 18.6988 12.4119 18.9065 12.4395C19.0477 12.4578 19.3716 12.5038 19.6291 12.5405ZM3.90566 13.2757C4.43725 13.3951 5.20972 13.5238 5.61672 13.5513L6.36427 13.6156L6.87925 14.1394C7.80123 15.0951 8.52386 15.0951 9.89437 14.1394C10.6834 13.5881 10.808 13.5238 10.808 13.6708C10.808 13.7167 10.9409 13.7719 11.0988 13.7902C11.4061 13.827 11.4559 13.7902 11.2898 13.6065C11.1237 13.4227 11.4725 13.4686 11.7715 13.6708C12.2367 13.9832 15.8415 14.9021 15.6173 14.6448C15.5924 14.6264 14.9196 14.4151 14.1222 14.1946C12.6105 13.7719 11.9377 13.487 11.8546 13.2481C11.8131 13.147 11.838 13.1286 11.946 13.1746C12.6271 13.487 13.0341 13.6248 13.9893 13.827C14.5956 13.9648 15.2767 14.1486 15.5093 14.2405C15.9495 14.4243 16.6223 14.9113 16.6223 15.0399C16.6223 15.2697 9.37939 15.4718 9.07206 15.2513C8.9807 15.187 9.03884 15.1226 9.29633 14.9756C9.58704 14.8102 9.81961 14.5989 9.70333 14.5989C9.60365 14.5989 8.989 14.9205 8.78965 15.0859C8.5737 15.2513 8.47402 15.2605 7.70986 15.2053C5.93235 15.0675 4.28774 14.6724 3.2744 14.1302C2.56838 13.7535 2.3192 13.4778 2.21952 12.9724L2.16138 12.6692L2.55177 12.8713C2.76773 12.9724 3.38238 13.1562 3.90566 13.2757ZM9.34616 12.9816L9.74486 13.0919L9.17174 13.3859C8.34943 13.8086 7.89259 13.7902 7.33609 13.34C7.10351 13.147 6.92909 12.9816 6.93739 12.9724C6.9457 12.954 7.0869 12.9908 7.24472 13.0367C7.68494 13.1838 8.1667 13.147 8.4408 12.954C8.582 12.853 8.74812 12.7978 8.81457 12.8254C8.88102 12.853 9.1219 12.9265 9.34616 12.9816ZM4.64491 13.193C4.56185 13.2113 4.42895 13.2113 4.35419 13.193C4.27113 13.1654 4.33758 13.147 4.4954 13.147C4.65321 13.147 4.71966 13.1654 4.64491 13.193ZM6.03203 13.2205C6.06525 13.2757 5.84929 13.3124 5.43399 13.3032C4.99376 13.3032 4.83595 13.2757 4.95223 13.2205C5.1848 13.1103 5.97388 13.1103 6.03203 13.2205ZM1.38061 13.6708L1.87897 13.7259L1.29755 13.8454C0.973607 13.9097 0.649669 13.9373 0.566608 13.9005C0.2842 13.7811 0.466935 13.4411 0.757648 13.5605C0.824097 13.5881 1.1065 13.634 1.38061 13.6708ZM2.83418 14.4978L3.12489 14.6908H2.81756C2.65144 14.6908 2.4604 14.7183 2.38565 14.7459C2.21122 14.8194 2.21952 15.187 2.38565 15.4718C2.52685 15.7107 2.48532 16.3448 2.33581 16.3448C2.15307 16.3448 1.88728 15.7383 1.85405 15.2513C1.80422 14.6081 1.73777 14.507 1.38061 14.5713C1.22279 14.5989 0.956995 14.5897 0.782567 14.5529L0.466935 14.4886L1.00683 14.2773C1.30585 14.167 1.67963 14.0108 1.83744 13.9281C2.11985 13.7902 2.13646 13.7902 2.33581 14.0475C2.45209 14.1854 2.67636 14.3875 2.83418 14.4978ZM20.9664 15.1686C20.7421 15.4443 20.0943 15.7843 19.679 15.8394C19.3218 15.8853 19.3301 15.8853 19.8202 15.6832C20.1524 15.5453 20.4431 15.334 20.6923 15.0491C21.0079 14.6908 21.0744 14.654 21.091 14.801C21.1076 14.9021 21.0495 15.0675 20.9664 15.1686ZM4.24621 15.0399C4.75289 15.2053 4.96054 15.2972 4.82764 15.3156C4.61168 15.3524 2.99199 15.187 2.69297 15.0951C2.42718 15.0124 2.45209 14.8745 2.7345 14.8745C2.85909 14.8745 3.01691 14.8286 3.08336 14.7827C3.14981 14.7367 3.26609 14.7183 3.33254 14.7459C3.39899 14.7735 3.8143 14.9113 4.24621 15.0399ZM19.6125 15.2421C19.5461 15.288 19.4132 15.3248 19.3218 15.3248H19.1557L19.3218 15.2421C19.4132 15.1962 19.5461 15.1594 19.6125 15.1594C19.7205 15.1502 19.7205 15.1594 19.6125 15.2421ZM5.30109 15.3891C5.27617 15.4167 5.20142 15.4259 5.14327 15.3983C5.07682 15.3707 5.10174 15.3432 5.19311 15.3432C5.28448 15.334 5.33431 15.3616 5.30109 15.3891ZM1.68793 15.7567C1.72116 15.9037 1.87897 16.1978 2.0451 16.4091L2.33581 16.7859L2.11154 16.8318C1.74608 16.9053 0.832403 16.7399 0.599832 16.5469C0.24267 16.2529 0.317425 16.0599 0.915465 15.7199C1.21448 15.5545 1.48859 15.4351 1.53842 15.4534C1.58826 15.4718 1.65471 15.6097 1.68793 15.7567ZM18.1839 15.5913C18.2586 15.8394 16.5309 16.1886 14.2717 16.3907C12.2616 16.5653 11.3812 16.5745 11.4393 16.4091C11.4642 16.3172 11.8795 16.2529 12.9925 16.1702C15.0109 16.0232 16.6555 15.8118 17.3865 15.6097C18.0427 15.4351 18.134 15.4259 18.1839 15.5913ZM3.9555 15.5637C3.91397 15.5821 3.73124 15.6188 3.55681 15.6556C3.36577 15.6924 3.11658 15.8394 2.90893 16.0415C2.56838 16.3815 2.47701 16.354 2.75111 15.9956C2.95046 15.7291 3.38238 15.527 3.74785 15.527C3.90566 15.527 4.00534 15.5453 3.9555 15.5637ZM7.07029 15.7383C7.59357 15.8118 8.67337 15.9037 9.46245 15.9405C10.2515 15.9772 10.8828 16.0232 10.8662 16.0324C10.8496 16.0507 10.1519 16.1518 9.30463 16.2529C8.46572 16.354 7.54374 16.501 7.25302 16.5745C6.60515 16.7491 5.49213 17.3372 5.49213 17.5026C5.49213 17.6772 5.50044 17.6772 6.14831 17.3188C6.83772 16.9329 7.50221 16.7307 8.31621 16.6664L8.93917 16.6205L8.29959 16.7491C7.53543 16.9053 6.97892 17.0983 6.18154 17.5026L5.57519 17.8058L5.40076 17.5577C5.15158 17.1994 4.42895 15.7567 4.47048 15.7016C4.52862 15.628 4.88578 16.1518 5.16819 16.7399C5.3094 17.034 5.44229 17.2545 5.46721 17.2361C5.52535 17.1626 5.1848 16.3448 4.95223 16.014C4.83595 15.8486 4.74458 15.6924 4.74458 15.6648C4.74458 15.6005 5.55027 15.5361 5.8659 15.5729C6.00711 15.5913 6.54701 15.6648 7.07029 15.7383ZM21.3734 16.4734C21.2654 16.6848 20.9996 16.8869 20.3684 17.2361C19.2637 17.8518 18.7985 18.0447 17.619 18.3847C16.2652 18.7615 15.1023 18.9177 13.0507 18.9728L11.2649 19.0188L11.4725 18.835C11.5888 18.7339 12.245 18.3388 12.9261 17.9529L14.172 17.2545L15.2518 17.1626C16.5226 17.0615 17.5526 16.8777 17.9928 16.6756C18.2752 16.5378 18.35 16.5469 18.948 16.7123C20.3435 17.1075 21.2654 16.841 21.2737 16.0507C21.282 15.8486 21.282 15.8486 21.3983 16.014C21.5063 16.1702 21.5063 16.2253 21.3734 16.4734ZM4.25452 16.4091C4.33758 16.501 4.53693 16.8594 4.71136 17.2177C4.87748 17.5669 5.11836 17.9804 5.23464 18.1274C5.35923 18.2837 5.40076 18.3756 5.32601 18.348C5.25956 18.3204 4.9024 18.1918 4.53693 18.0539C3.67309 17.7323 3.07505 17.374 2.91724 17.0615C2.80926 16.8318 2.80926 16.795 2.94215 16.648C3.02522 16.5469 3.08336 16.5286 3.08336 16.6021C3.08336 16.6664 3.12489 16.7123 3.17473 16.7123C3.24117 16.7123 3.23287 16.6664 3.16642 16.5745C3.04183 16.4091 3.05013 16.3999 3.36577 16.2253C3.63156 16.0691 4.03026 16.1518 4.25452 16.4091ZM20.5677 16.2713C20.5677 16.5286 19.6208 16.5745 19.0643 16.3448C18.6822 16.1794 18.9231 16.1059 19.7537 16.1334C20.3185 16.1518 20.5677 16.1886 20.5677 16.2713ZM17.8682 16.2529C17.5775 16.4367 14.7617 16.8869 14.6455 16.7675C14.6039 16.7215 14.7617 16.694 16.2319 16.4826C16.8217 16.3907 17.3948 16.2896 17.5194 16.2529C17.644 16.2069 17.8018 16.1702 17.8682 16.1702C17.9762 16.1702 17.9762 16.1794 17.8682 16.2529ZM10.7416 16.4367C10.6419 16.4918 10.1934 16.5469 9.74486 16.5653L8.93917 16.6113L9.76978 16.4918C10.2266 16.4275 10.6751 16.3723 10.7665 16.3632C10.916 16.354 10.9077 16.3632 10.7416 16.4367ZM12.5939 17.1534C12.1785 17.3923 11.73 17.6772 11.5805 17.7875C11.4393 17.9069 11.2732 17.9988 11.2067 17.9988C11.0489 17.9896 9.6618 17.0799 9.81131 17.0799C9.87775 17.0799 10.1768 17.034 10.4758 16.9788C10.7748 16.9237 11.4061 16.841 11.8878 16.8134C13.4826 16.6848 13.4328 16.6664 12.5939 17.1534ZM12.6022 17.5945C11.6387 18.1366 11.1486 18.3664 11.024 18.3296C10.7914 18.2561 9.16343 17.0799 9.29633 17.0799C9.44584 17.0799 10.1934 17.5118 10.6668 17.8702C10.8911 18.0447 11.1237 18.1826 11.1818 18.1826C11.2483 18.1826 11.8463 17.8702 12.5191 17.4934C13.1919 17.1167 13.8065 16.8042 13.873 16.8134C13.9477 16.8134 13.3746 17.1626 12.6022 17.5945ZM9.60365 17.9529C10.1103 18.3204 10.5921 18.7155 10.6834 18.8258L10.8496 19.0372L9.85284 18.9728C8.64845 18.8993 6.05695 18.5685 5.79946 18.4674C5.64164 18.3939 5.68317 18.348 6.18984 18.0815C6.86264 17.7323 8.48233 17.1718 8.60692 17.2453C8.65676 17.2729 9.10529 17.5945 9.60365 17.9529ZM22.0047 17.7507C21.9964 18.0723 22.1708 18.4583 22.5197 18.8901C22.7024 19.1015 22.8519 19.322 22.8519 19.3772C22.8519 19.4231 22.7356 19.469 22.6027 19.469C22.2456 19.469 21.8302 19.6804 21.6309 19.9652C21.5312 20.0939 21.3817 20.489 21.282 20.8382C21.1159 21.4355 20.8418 21.9501 20.6923 21.9501C20.6425 21.9501 20.6508 21.849 20.6923 21.7112C20.8169 21.3528 20.792 21.2609 20.6176 21.4355C20.4763 21.5825 20.4514 21.5733 20.2438 21.2609C20.0029 20.9117 19.3882 20.4155 19.3135 20.5074C19.2886 20.535 19.3633 20.6269 19.4796 20.7096C19.7288 20.8933 19.7537 20.9852 19.5544 21.0679C19.4713 21.0955 19.3467 21.1506 19.2803 21.1782C19.2055 21.2058 19.2221 21.169 19.3135 21.0863C19.5045 20.9209 19.5045 20.9301 19.056 20.6728C18.5826 20.4155 18.5161 20.4339 18.8567 20.7371C19.0975 20.9668 19.1308 21.0495 19.1308 21.3895C19.1225 21.8857 19.0477 21.9685 18.8733 21.6744C18.4912 21.022 18.1922 20.7739 17.2868 20.342C16.5974 20.0204 16.2153 19.8917 15.7668 19.8458L15.1687 19.7907L15.8249 19.662C16.3565 19.5517 16.5309 19.5517 16.7386 19.6436C17.6772 20.0755 18.4912 20.2317 19.1391 20.1215C19.355 20.0847 19.5295 20.0755 19.5295 20.1123C19.5295 20.1766 20.2438 20.5717 20.3684 20.5717C20.5345 20.5717 20.3435 20.3879 19.978 20.1766L19.6042 19.9652L19.8119 19.7539C20.0029 19.5609 20.0527 19.5426 20.3601 19.6344C20.5428 19.6804 20.6923 19.6896 20.6923 19.6528C20.6923 19.5426 20.1607 19.1934 19.9946 19.1934C19.9198 19.1934 19.8617 19.1474 19.8617 19.1015C19.8617 18.9636 20.086 18.9912 20.3601 19.1474C20.6425 19.3128 20.684 19.2118 20.4431 18.9636C20.2687 18.7891 20.2189 18.5501 20.3518 18.5501C20.5594 18.5501 20.9415 19.2209 21.0329 19.7539C21.1408 20.3788 21.2239 20.342 21.4066 19.5609C21.4897 19.175 21.5229 19.1382 21.8552 19.0463L22.2206 18.9545L21.8718 18.7982C21.6807 18.7155 21.4399 18.642 21.3319 18.642C21.1575 18.6328 21.1574 18.6328 21.3153 18.5318C21.5395 18.3939 21.8552 18.0723 21.8552 17.9804C21.8552 17.9345 21.7638 17.9253 21.6475 17.962C21.3817 18.0356 21.3817 17.9529 21.6641 17.6772C21.9216 17.4383 22.0213 17.4567 22.0047 17.7507ZM2.37734 17.7231C2.44379 17.8426 2.33581 17.8426 2.16969 17.7231C2.06171 17.6496 2.06171 17.6312 2.1863 17.6312C2.26105 17.6312 2.35242 17.668 2.37734 17.7231ZM2.70958 18.1826L3.04183 18.348L2.52685 18.302C2.20291 18.2653 2.00356 18.2837 2.00356 18.3388C2.00356 18.5226 2.40226 18.6237 2.93385 18.5777C3.59834 18.5134 3.73124 18.6604 3.14981 18.8166C2.71789 18.9177 1.72946 19.3772 1.7793 19.4323C1.79591 19.4507 2.08663 19.368 2.41887 19.2393C3.17473 18.9545 3.38238 18.982 2.70128 19.2761C1.42214 19.8274 1.18957 19.9101 1.14804 19.8642C1.12312 19.8366 1.17295 19.6069 1.25601 19.3404C1.43875 18.8258 1.46367 18.4858 1.33908 18.2745C1.2311 18.0815 1.38891 17.9988 1.9205 17.9988C2.19461 17.9988 2.51024 18.0723 2.70958 18.1826ZM4.31266 19.1015C4.60338 19.2026 4.95223 19.2853 5.08513 19.2853C5.21803 19.2853 5.32601 19.322 5.32601 19.3772C5.32601 19.4231 5.26786 19.469 5.19311 19.469C4.96054 19.469 5.16819 19.6528 5.80776 20.0112C6.15662 20.2042 6.61345 20.4615 6.82111 20.5809C7.31947 20.875 8.34112 20.9301 9.03053 20.7096C9.48737 20.5625 9.52059 20.5625 9.62027 20.7187C9.68671 20.8198 9.81961 20.875 9.99404 20.8658C10.1436 20.8566 10.5007 20.9117 10.7831 20.9944C11.2483 21.1139 11.3313 21.1139 11.6054 20.9852C12.054 20.7831 12.2699 20.8106 12.8929 21.169C13.2085 21.3436 13.5324 21.4906 13.6238 21.4906C13.7152 21.4906 13.8979 21.3436 14.0225 21.169C14.2385 20.8658 14.2883 20.8474 14.7368 20.8474C15.0525 20.8474 15.3266 20.9117 15.5425 21.0312C15.9827 21.2793 16.2735 21.2609 16.5393 20.9852L16.7552 20.7555L17.212 20.9117L17.6606 21.0587L17.0376 21.2241C16.6971 21.316 16.0658 21.4355 15.6422 21.4814C15.2103 21.5274 14.7784 21.6376 14.6621 21.7112C14.388 21.9225 13.6487 21.8949 13.1753 21.6744C12.9593 21.5733 12.6935 21.4906 12.5772 21.4906C12.2616 21.4906 11.4144 22.0328 11.132 22.4003L10.8911 22.7219L10.4592 22.2533C9.99404 21.7479 9.55382 21.4906 9.17174 21.4906C8.83949 21.4998 8.06702 21.8674 7.58527 22.2625L7.16166 22.6025L6.96231 22.2993C6.85433 22.1339 6.71313 21.8949 6.65498 21.7663C6.47225 21.3804 5.5918 20.1674 5.40076 20.0296C5.29278 19.9652 4.97715 19.8825 4.68644 19.855C4.14654 19.809 4.01364 19.6712 4.31266 19.4782C4.43725 19.3955 4.43725 19.368 4.32927 19.2853C4.26283 19.2393 4.05517 19.1934 3.87244 19.1934C3.6897 19.1934 3.46544 19.129 3.38238 19.0555C3.22456 18.9269 3.23287 18.9177 3.50697 18.9177C3.66479 18.9177 4.03025 19.0004 4.31266 19.1015ZM19.5295 19.2026C19.5295 19.4874 19.0145 19.6896 18.4663 19.6161C18.0593 19.5609 17.536 19.3496 17.536 19.2301C17.536 19.2117 17.9264 19.1934 18.4081 19.2026C18.9812 19.2118 19.3218 19.1842 19.3799 19.1199C19.5128 18.9728 19.5295 18.982 19.5295 19.2026ZM8.15008 19.8642C8.63184 19.8642 9.28802 19.8366 9.60365 19.7998L10.1851 19.7447L9.81131 19.8734C9.60365 19.9377 9.28802 20.0571 9.10529 20.1307C8.3079 20.4615 7.361 20.3788 6.68821 19.9193C6.22307 19.6069 6.28952 19.4874 6.8128 19.6896C7.16166 19.8274 7.4856 19.8642 8.15008 19.8642ZM3.2744 19.7171C3.39899 19.8366 3.44883 19.855 3.47375 19.7631C3.52358 19.6344 3.79768 19.6161 3.87244 19.7447C3.89736 19.7907 3.88075 19.8366 3.83921 19.8366C3.42391 19.8366 4.37081 20.3512 4.9024 20.4247C5.11836 20.4431 5.33431 20.5442 5.44229 20.6544L5.60842 20.8474H5.32601C5.15989 20.8474 4.89409 20.9301 4.71966 21.0312C4.28774 21.2885 4.19638 21.2609 3.96381 20.8566C3.65648 20.3236 3.35746 20.0939 2.98369 20.1215C2.77603 20.1398 2.62652 20.0939 2.51024 19.9836C2.26105 19.7355 2.29428 19.6712 2.65144 19.6253C2.81756 19.6069 2.99199 19.5885 3.03352 19.5793C3.07505 19.5701 3.18303 19.6344 3.2744 19.7171ZM13.6321 19.8734C13.8398 19.9377 14.3797 20.0479 14.8365 20.1031C16.3565 20.3052 16.3814 20.3144 16.1904 20.6636C16.0409 20.9209 15.9412 20.9025 15.4179 20.5166C15.0026 20.2134 14.9362 20.1858 14.5707 20.2501C14.3547 20.2869 14.1056 20.3788 14.0308 20.4523C13.8979 20.5809 13.8813 20.5809 13.8315 20.4247C13.7567 20.1398 13.6653 19.9836 13.5574 19.9469C13.4743 19.9193 13.4743 19.9561 13.5407 20.1031C13.5906 20.2134 13.6736 20.3788 13.7152 20.4798C13.7982 20.6636 13.6986 21.0312 13.5657 21.0312C13.5324 21.0312 13.2666 20.8658 12.9676 20.6636C12.3281 20.2225 12.0124 20.195 11.4974 20.535C11.132 20.7739 10.8911 20.7739 10.8911 20.5442C10.8911 20.4339 11.3812 20.1123 11.9294 19.8734C12.2699 19.7171 13.1753 19.7171 13.6321 19.8734ZM10.9575 19.9285C11.2981 19.9285 11.024 20.0847 10.4758 20.2042C10.2266 20.2593 9.95251 20.3328 9.86945 20.3604C9.75316 20.3971 9.71994 20.3604 9.74486 20.2409C9.76978 20.0663 10.4093 19.8182 10.6253 19.8917C10.6918 19.9101 10.8413 19.9285 10.9575 19.9285ZM2.65975 20.9117C2.83418 21.4263 3.55681 21.9133 4.59507 22.2166C5.90744 22.6025 6.30613 22.5382 5.0436 22.143C3.93058 21.7939 2.83418 21.1323 2.83418 20.8014C2.83418 20.6544 3.76446 21.0128 4.19638 21.3436C4.48709 21.5549 5.1765 21.7755 5.9988 21.8949C6.33935 21.9501 6.3975 21.996 6.57192 22.3452C6.80449 22.823 7.06198 23.1446 7.21149 23.1446C7.26964 23.1446 7.46068 23.0068 7.6268 22.8322C8.05872 22.4095 8.23315 22.3268 8.79796 22.2625C9.57043 22.1706 9.83622 22.2625 10.3014 22.7771C10.5173 23.0344 10.7665 23.2365 10.8496 23.2365C10.9243 23.2365 11.132 23.0711 11.2981 22.8782L11.5971 22.5198L12.6769 22.4555C14.1388 22.3728 15.6173 22.1798 16.9047 21.8949L17.9845 21.656L18.3666 22.1247C18.9397 22.8138 19.355 22.7495 19.5295 21.9409L19.6291 21.4722L19.978 21.8398C20.1607 22.042 20.3684 22.2166 20.4265 22.2441C20.493 22.2625 20.2687 22.4463 19.9281 22.6576C17.6938 24.0635 14.3797 24.7987 10.2349 24.7987C5.78284 24.7987 2.3275 23.5581 1.84575 21.7755C1.79591 21.5825 1.75438 21.1323 1.75438 20.7647V20.1123L2.16138 20.3604C2.44379 20.535 2.5933 20.7004 2.65975 20.9117ZM5.90744 21.316C5.98219 21.3712 5.88252 21.3712 5.65825 21.3436C5.4506 21.3068 5.22633 21.2425 5.15989 21.2058C5.08513 21.1506 5.1848 21.1506 5.40907 21.1782C5.61672 21.215 5.84099 21.2793 5.90744 21.316ZM12.7434 21.9225C12.6354 21.9409 12.4693 21.9409 12.3696 21.9225C12.2616 21.9041 12.3447 21.8857 12.5523 21.8857C12.76 21.8857 12.843 21.9041 12.7434 21.9225ZM21.7721 22.5106C21.7721 23.2365 20.7089 24.1095 19.0394 24.7435C17.1041 25.4878 15.1355 25.7543 11.5141 25.7635C7.12843 25.7635 4.5037 25.3224 2.44379 24.2381C1.32246 23.65 0.923771 23.0436 1.32246 22.5106L1.46367 22.3084L1.75438 22.7955C2.26105 23.65 3.35746 24.2933 5.09344 24.7527C6.42241 25.1111 7.46068 25.2489 9.42922 25.3592C12.7849 25.543 15.9578 25.203 18.242 24.4219C19.4547 24.0084 21.1907 22.9517 21.498 22.4463C21.6392 22.1982 21.7721 22.2349 21.7721 22.5106Z" fill="black"/>
<path d="M10.3924 0.769548C10.3093 0.879816 10.3093 0.93495 10.3924 1.04522C10.6 1.32089 11.0569 1.09116 10.9406 0.769548C10.8824 0.594957 10.5253 0.594957 10.3924 0.769548ZM10.7661 0.907383C10.7412 0.953328 10.6831 0.999273 10.6333 0.999273C10.5917 0.999273 10.5585 0.953328 10.5585 0.907383C10.5585 0.852249 10.6166 0.815493 10.6914 0.815493C10.7578 0.815493 10.7911 0.852249 10.7661 0.907383Z" fill="black"/>
<path d="M11.8962 0.806112C11.7052 0.943947 11.8547 1.18286 12.1371 1.18286C12.3281 1.18286 12.3863 1.13692 12.3863 1.00827C12.3863 0.760167 12.1205 0.649899 11.8962 0.806112ZM12.1952 0.962325C12.1703 0.989892 12.0956 0.999081 12.0374 0.971514C11.971 0.943947 11.9959 0.91638 12.0873 0.91638C12.1786 0.907191 12.2285 0.934758 12.1952 0.962325Z" fill="black"/>
<path d="M14.0227 0.980826C13.7569 1.30244 13.9479 1.53217 14.3383 1.36676C14.5626 1.27487 14.6041 1.10028 14.4463 0.925692C14.3051 0.769479 14.1805 0.787857 14.0227 0.980826ZM14.3798 1.09109C14.3798 1.13704 14.2968 1.18298 14.1971 1.18298C14.0393 1.18298 14.031 1.16461 14.1307 1.09109C14.2885 0.971637 14.3798 0.971637 14.3798 1.09109Z" fill="black"/>
<path d="M6.73755 1.33006C6.6711 1.35763 6.37208 1.45871 6.07306 1.56897C5.61623 1.72519 4.82715 2.14788 4.82715 2.23977C4.82715 2.24896 5.19262 2.12031 5.64945 1.94572C6.19766 1.74357 6.78739 1.59654 7.41035 1.52303C7.97516 1.44952 8.2991 1.37601 8.20773 1.33925C8.04161 1.26574 6.9369 1.26574 6.73755 1.33006Z" fill="black"/>
<path d="M12.4685 1.89971C12.2526 2.09268 12.3024 2.28564 12.5765 2.28564C12.8423 2.28564 12.9918 2.14781 12.9503 1.95484C12.9087 1.71593 12.7011 1.69755 12.4685 1.89971ZM12.7592 2.00997C12.7343 2.05592 12.6512 2.10186 12.5848 2.10186C12.5183 2.10186 12.4851 2.05592 12.51 2.00997C12.535 1.95484 12.618 1.91808 12.6845 1.91808C12.7509 1.91808 12.7841 1.95484 12.7592 2.00997Z" fill="black"/>
<path d="M15.6261 1.83549C14.9865 1.95494 14.2057 2.38683 13.807 2.8279C13.317 3.37005 13.3834 3.44356 13.9731 3.02087C15.1858 2.1571 16.7142 1.89981 18.0348 2.34088C18.5249 2.50628 18.6329 2.49709 18.3338 2.3225C17.5863 1.87224 16.4733 1.67008 15.6261 1.83549Z" fill="black"/>
<path d="M7.19436 2.1018C7.21928 2.14775 7.31064 2.19369 7.3937 2.19369C7.47676 2.19369 7.8007 2.33153 8.11633 2.50612C8.43197 2.68071 8.69776 2.80935 8.71437 2.79098C8.77252 2.72665 8.15787 2.28558 7.82562 2.14775C7.41032 1.99153 7.1196 1.96397 7.19436 2.1018Z" fill="black"/>
<path d="M6.22356 2.47857C6.02421 2.60722 6.03252 2.92883 6.22356 2.92883C6.4146 2.92883 6.6887 2.60722 6.61395 2.47857C6.5475 2.34993 6.40629 2.34993 6.22356 2.47857ZM6.48936 2.59803C6.48936 2.61641 6.43121 2.66235 6.35646 2.68992C6.29001 2.71749 6.25678 2.7083 6.2817 2.65316C6.33154 2.56127 6.48936 2.52452 6.48936 2.59803Z" fill="black"/>
<path d="M15.5175 2.53377C15.4012 2.65322 15.4677 2.92889 15.6338 3.02078C15.9826 3.23213 16.182 2.9197 15.8913 2.62566C15.7252 2.46025 15.6089 2.43269 15.5175 2.53377ZM15.7916 2.84619C15.7916 2.90133 15.7584 2.91052 15.7085 2.88295C15.667 2.85538 15.6255 2.78187 15.6255 2.73592C15.6255 2.68079 15.667 2.6716 15.7085 2.69917C15.7584 2.72674 15.7916 2.80025 15.7916 2.84619Z" fill="black"/>
<path d="M7.5194 3.0667C7.44464 3.27805 7.55262 3.37913 7.80181 3.30562C8.13405 3.20454 8.15066 2.92887 7.81842 2.92887C7.67721 2.92887 7.54432 2.984 7.5194 3.0667ZM7.90148 3.05751C7.90148 3.07589 7.84334 3.12184 7.76858 3.1494C7.70213 3.17697 7.66891 3.16778 7.69383 3.11265C7.74366 3.02076 7.90148 2.984 7.90148 3.05751Z" fill="black"/>
<path d="M16.7978 3.23201C16.723 3.34227 16.7313 3.39741 16.831 3.51687C17.0636 3.76497 17.4124 3.64551 17.3543 3.33309C17.3211 3.11255 16.939 3.04823 16.7978 3.23201ZM17.1466 3.36065C17.0885 3.37903 16.9888 3.37903 16.939 3.36065C16.8808 3.33309 16.9224 3.31471 17.0387 3.31471C17.1549 3.31471 17.1965 3.33309 17.1466 3.36065Z" fill="black"/>
<path d="M4.32914 3.32398C4.08826 3.46181 4.0052 3.75586 4.20455 3.75586C4.4122 3.75586 4.66139 3.58127 4.66139 3.43424C4.66139 3.24128 4.5451 3.20452 4.32914 3.32398ZM4.45373 3.48019C4.42881 3.52613 4.35406 3.57208 4.30422 3.57208C4.24608 3.57208 4.25439 3.53532 4.32914 3.48019C4.48696 3.36992 4.52018 3.36992 4.45373 3.48019Z" fill="black"/>
<path d="M18.5074 3.26887C18.4741 3.29644 18.4492 3.36076 18.4492 3.40671C18.4492 3.4986 18.9476 3.84778 19.0971 3.84778C19.2217 3.84778 19.23 3.46184 19.0971 3.31482C18.9891 3.19536 18.5987 3.16779 18.5074 3.26887ZM19.0306 3.48022C19.0306 3.59968 18.9393 3.59968 18.7815 3.48022C18.6818 3.40671 18.6901 3.38833 18.8479 3.38833C18.9476 3.38833 19.0306 3.42508 19.0306 3.48022Z" fill="black"/>
<path d="M17.976 4.08658C17.9511 4.1601 17.9926 4.29793 18.0674 4.38063C18.192 4.51847 18.2086 4.51847 18.3415 4.38063C18.4494 4.25199 18.4577 4.19685 18.3664 4.08658C18.2335 3.9028 18.0424 3.9028 17.976 4.08658ZM18.2833 4.21523C18.2833 4.26118 18.2667 4.30712 18.2501 4.30712C18.2252 4.30712 18.1836 4.26118 18.1587 4.21523C18.1338 4.1601 18.1504 4.12334 18.192 4.12334C18.2418 4.12334 18.2833 4.1601 18.2833 4.21523Z" fill="black"/>
<path d="M19.9367 4.76666C20.0446 4.86774 20.1609 4.95044 20.2024 4.95044C20.352 4.95044 20.2689 4.85855 20.0114 4.72071L19.7373 4.57369L19.9367 4.76666Z" fill="black"/>
<path d="M12.7347 4.96881C12.4856 5.24448 12.7597 5.67636 13.067 5.49258C13.3162 5.34556 13.1999 4.85854 12.9258 4.85854C12.876 4.85854 12.7929 4.90449 12.7347 4.96881ZM13.0504 5.23529C13.0504 5.28124 12.9922 5.31799 12.9258 5.31799C12.8012 5.31799 12.7597 5.20773 12.851 5.10665C12.9175 5.03313 13.0504 5.11584 13.0504 5.23529Z" fill="black"/>
<path d="M9.74455 5.49252C9.61165 5.58441 9.63657 5.87846 9.77778 5.93359C9.83592 5.95197 9.93559 5.89684 10.0103 5.81414C10.1183 5.70387 10.1266 5.63954 10.0519 5.53847C9.9439 5.39144 9.89406 5.38225 9.74455 5.49252Z" fill="black"/>
<path d="M5.10986 5.73142C4.93543 6.02547 5.01019 6.23682 5.27598 6.23682C5.51686 6.23682 5.79096 5.86007 5.7079 5.63953C5.63314 5.419 5.26768 5.47413 5.10986 5.73142ZM5.49194 5.86926C5.40888 6.04385 5.1597 6.12655 5.1597 5.97952C5.1597 5.86007 5.35074 5.68548 5.46702 5.68548C5.55839 5.68548 5.55839 5.73142 5.49194 5.86926Z" fill="black"/>
<path d="M7.31934 5.58448C7.31934 5.63961 7.4107 5.79582 7.51868 5.93366C7.6848 6.13582 7.74295 6.16338 7.82601 6.08068C7.98382 5.90609 7.75956 5.50177 7.51038 5.50177C7.4024 5.50177 7.31934 5.53853 7.31934 5.58448Z" fill="black"/>
<path d="M12.0874 6.09903C11.6804 6.54929 12.021 7.02712 12.4363 6.59524C12.6938 6.32876 12.7104 5.86931 12.4695 5.86931C12.3698 5.86931 12.2037 5.97038 12.0874 6.09903ZM12.4695 6.14498C12.4695 6.19092 12.3864 6.32876 12.2868 6.43902C12.0625 6.68713 11.9628 6.49416 12.1871 6.22768C12.3449 6.03471 12.4695 5.99795 12.4695 6.14498Z" fill="black"/>
<path d="M15.6258 6.00715C15.5427 6.11742 15.5427 6.17255 15.6258 6.28282C15.6839 6.35633 15.7753 6.42065 15.8334 6.42065C15.8916 6.42065 15.9829 6.35633 16.0411 6.28282C16.1241 6.17255 16.1241 6.11742 16.0411 6.00715C15.9829 5.93364 15.8916 5.86931 15.8334 5.86931C15.7753 5.86931 15.6839 5.93364 15.6258 6.00715ZM15.9165 6.14498C15.8916 6.19093 15.8251 6.23687 15.7836 6.23687C15.7338 6.23687 15.7254 6.19093 15.7504 6.14498C15.7753 6.08985 15.8417 6.05309 15.8833 6.05309C15.9331 6.05309 15.9414 6.08985 15.9165 6.14498Z" fill="black"/>
<path d="M17.7434 6.22771C17.7019 6.31041 18.2584 6.88013 18.383 6.88013C18.5076 6.88013 18.4494 6.63202 18.275 6.38392C18.1089 6.14501 17.8348 6.07149 17.7434 6.22771Z" fill="black"/>
<path d="M3.71471 6.38384C3.49044 6.62276 3.54858 6.88005 3.87252 7.02707C4.08848 7.12815 4.21307 7.13734 4.32936 7.06383C4.55362 6.93518 4.54532 6.55844 4.31275 6.38384C4.07187 6.20006 3.88083 6.20006 3.71471 6.38384ZM4.31275 6.73303C4.34597 6.91681 4.08848 6.926 3.86422 6.74222C3.73132 6.63195 3.72301 6.59519 3.82269 6.52168C3.9805 6.41141 4.27952 6.54006 4.31275 6.73303Z" fill="black"/>
<path d="M8.36588 7.02713C8.19976 7.20172 8.19976 7.28442 8.35758 7.43145C8.60676 7.66117 9.22141 7.33037 9.11343 7.01794C9.05529 6.83416 8.53201 6.83416 8.36588 7.02713ZM8.89748 7.15578C8.73135 7.27523 8.45725 7.27523 8.5237 7.15578C8.54862 7.10064 8.67321 7.06389 8.7978 7.06389C8.97223 7.06389 8.99715 7.08227 8.89748 7.15578Z" fill="black"/>
<path d="M6.02336 7.20175C5.75757 7.4958 5.76588 8.01039 6.03998 8.05633C6.38883 8.11147 6.72108 7.35797 6.47189 7.0823C6.33069 6.92608 6.25594 6.94446 6.02336 7.20175ZM6.3473 7.43148C6.29747 7.64283 6.08981 7.85417 6.01506 7.76228C5.99014 7.73472 6.00675 7.60607 6.05659 7.47742C6.17287 7.20175 6.41375 7.15581 6.3473 7.43148Z" fill="black"/>
<path d="M17.7106 7.14667C17.4864 7.39477 17.4781 7.85422 17.694 7.98287C18.0346 8.18502 18.3087 7.76233 18.1509 7.26612C18.0512 6.9537 17.9183 6.91694 17.7106 7.14667ZM17.9515 7.51423C17.9515 7.80828 17.8352 7.96449 17.7439 7.79909C17.6691 7.66125 17.7688 7.24775 17.8684 7.24775C17.9183 7.24775 17.9515 7.3672 17.9515 7.51423Z" fill="black"/>
<path d="M15.4272 7.45893C15.2113 7.63352 15.286 7.9 15.61 8.10216C15.8259 8.24 15.9007 8.25837 16.0003 8.16648C16.1914 7.99189 16.1499 7.74379 15.909 7.53244C15.6515 7.30272 15.6183 7.30272 15.4272 7.45893ZM15.8758 7.79892C15.9422 7.92757 15.9422 7.9827 15.8758 7.9827C15.7262 7.9827 15.4604 7.79892 15.4604 7.70703C15.4604 7.54163 15.7844 7.61514 15.8758 7.79892Z" fill="black"/>
<path d="M11.3238 8.22172C11.1079 8.38712 11.0746 8.80981 11.274 8.80981C11.4899 8.80981 11.8886 8.44225 11.8886 8.24929C11.8886 8.02875 11.5896 8.01037 11.3238 8.22172ZM11.5647 8.45144C11.4567 8.55252 11.3404 8.60766 11.3155 8.5709C11.2574 8.50658 11.5481 8.25847 11.6727 8.25847C11.7225 8.26766 11.6727 8.35036 11.5647 8.45144Z" fill="black"/>
<path d="M18.3672 8.15739C18.3672 8.20333 18.4253 8.29522 18.5001 8.35954C18.5748 8.42387 18.741 8.69035 18.8739 8.94764C19.0566 9.29682 19.1147 9.52655 19.1147 9.91249V10.4087L19.3058 10.2065C19.5633 9.91249 19.5467 9.28763 19.2642 8.85575C18.9569 8.37792 18.3672 7.91847 18.3672 8.15739Z" fill="black"/>
<path d="M3.50795 8.42385C3.45812 8.53411 3.41659 8.77303 3.42489 8.966C3.42489 9.30599 3.4332 9.30599 3.54948 8.81897C3.67408 8.2952 3.65746 8.12061 3.50795 8.42385Z" fill="black"/>
<path d="M13.716 8.53416C13.608 8.76388 13.633 9.19576 13.7658 9.24171C13.9403 9.30603 14.1396 8.98442 14.1147 8.68118C14.0815 8.34119 13.8489 8.2493 13.716 8.53416ZM13.8904 8.92928C13.824 9.00279 13.7991 8.99361 13.7991 8.89253C13.7991 8.70875 13.9071 8.5801 13.9486 8.71794C13.9735 8.78226 13.9403 8.87415 13.8904 8.92928Z" fill="black"/>
<path d="M4.74414 9.47139C4.75245 9.78381 4.8272 9.93084 5.15114 10.2341C5.34218 10.4087 5.34218 10.4087 5.12622 10.0595C5.00994 9.86651 4.91026 9.58165 4.91026 9.44382C4.91026 9.2968 4.87704 9.17734 4.8272 9.17734C4.78567 9.17734 4.74414 9.31517 4.74414 9.47139Z" fill="black"/>
<path d="M17.0037 9.84824C16.9289 10.179 16.2977 10.8131 15.8325 11.0152C15.4837 11.1715 15.4671 11.1898 15.7079 11.1439C16.414 11.0061 17.203 10.3628 17.203 9.91256C17.203 9.65527 17.0618 9.60933 17.0037 9.84824Z" fill="black"/>
<path d="M5.6582 10.4362C5.6582 10.6016 5.99875 11.0151 6.26455 11.1713C6.52204 11.3183 7.48555 11.4929 7.48555 11.3919C7.48555 11.3643 7.26959 11.2632 7.00379 11.1805C6.56357 11.0335 6.3393 10.8956 5.84924 10.5005C5.74126 10.4178 5.6582 10.3903 5.6582 10.4362Z" fill="black"/>
<path d="M21.3974 13.0368C21.3725 13.0827 21.3891 13.1287 21.4307 13.1287C21.4805 13.1287 21.522 13.0827 21.522 13.0368C21.522 12.9816 21.5054 12.9449 21.4888 12.9449C21.4639 12.9449 21.4224 12.9816 21.3974 13.0368Z" fill="black"/>
<path d="M5.36772 13.7719C5.3428 13.8178 5.39264 13.8638 5.48401 13.8638C5.57537 13.8638 5.67505 13.8178 5.69997 13.7719C5.72488 13.7167 5.67505 13.68 5.58368 13.68C5.49231 13.68 5.39264 13.7167 5.36772 13.7719Z" fill="black"/>
<path d="M11.9302 14.2314C11.9551 14.2773 12.088 14.3232 12.2292 14.3232C12.3621 14.3232 12.4701 14.2773 12.4701 14.2314C12.4701 14.1762 12.3372 14.1395 12.1711 14.1395C11.9966 14.1395 11.897 14.1762 11.9302 14.2314Z" fill="black"/>
<path d="M10.8577 14.3049C10.7829 14.4428 11.0487 14.5255 11.2066 14.4152C11.2896 14.3693 11.3062 14.3233 11.2481 14.3233C11.1983 14.3233 11.0986 14.2958 11.0321 14.2682C10.9657 14.2406 10.8826 14.259 10.8577 14.3049Z" fill="black"/>
<path d="M10.0772 14.5621C10.1935 14.6908 10.2516 14.6999 10.3264 14.6172C10.3928 14.5437 10.4011 14.507 10.3347 14.507C10.2848 14.507 10.1685 14.4794 10.0855 14.4518C9.94428 14.3875 9.94428 14.3967 10.0772 14.5621Z" fill="black"/>
<path d="M10.7256 14.8747C10.7256 14.9206 10.8502 14.9666 10.9997 14.9666C11.199 14.9666 11.2323 14.939 11.1409 14.8747C10.9748 14.7552 10.7256 14.7552 10.7256 14.8747Z" fill="black"/>
<path d="M12.7854 14.9389C12.8851 14.9572 13.0346 14.9572 13.1176 14.9389C13.1924 14.9113 13.1093 14.8929 12.9266 14.9021C12.7439 14.9021 12.6774 14.9205 12.7854 14.9389Z" fill="black"/>
<path d="M9.7535 15.1227C9.82825 15.1411 9.94454 15.1411 10.0027 15.1227C10.0525 15.0951 9.99438 15.0767 9.85317 15.0767C9.72027 15.0767 9.67044 15.0951 9.7535 15.1227Z" fill="black"/>
<path d="M18.2832 16.7858C18.2832 16.8777 18.7151 17.0798 18.9145 17.0798C19.1221 17.0798 19.0391 16.9236 18.8065 16.8685C18.6736 16.8409 18.5075 16.7858 18.4327 16.7582C18.3497 16.7215 18.2832 16.7307 18.2832 16.7858Z" fill="black"/>
<path d="M17.3691 17.0708C17.3691 17.1902 17.5768 17.2545 17.6931 17.1718C17.7761 17.1259 17.7595 17.0891 17.6599 17.0432C17.4688 16.9697 17.3691 16.9697 17.3691 17.0708Z" fill="black"/>
<path d="M17.9937 17.2637C17.9688 17.3096 18.0186 17.3556 18.11 17.3556C18.2097 17.3556 18.2844 17.3096 18.2844 17.2637C18.2844 17.2086 18.2346 17.1718 18.1681 17.1718C18.1017 17.1718 18.0186 17.2086 17.9937 17.2637Z" fill="black"/>
<path d="M19.2803 17.2637C19.2803 17.3096 19.3135 17.3556 19.355 17.3556C19.4049 17.3556 19.463 17.3096 19.4879 17.2637C19.5128 17.2086 19.4796 17.1718 19.4132 17.1718C19.3384 17.1718 19.2803 17.2086 19.2803 17.2637Z" fill="black"/>
<path d="M15.542 17.4383C15.542 17.5394 15.949 17.6313 16.1151 17.5578C16.2148 17.521 16.2065 17.4935 16.0736 17.4383C15.8493 17.3373 15.542 17.3373 15.542 17.4383Z" fill="black"/>
<path d="M17.0209 17.4199C17.0791 17.4474 17.1538 17.4383 17.1788 17.4107C17.212 17.3831 17.1621 17.3556 17.0708 17.3647C16.9794 17.3647 16.9545 17.3923 17.0209 17.4199Z" fill="black"/>
<path d="M18.6162 17.6313C18.6162 17.6772 18.6577 17.7231 18.6993 17.7231C18.7491 17.7231 18.7823 17.6772 18.7823 17.6313C18.7823 17.5761 18.7491 17.5394 18.6993 17.5394C18.6577 17.5394 18.6162 17.5761 18.6162 17.6313Z" fill="black"/>
<path d="M19.1973 17.6496C19.1973 17.6864 19.2305 17.7231 19.272 17.7231C19.3219 17.7231 19.3717 17.6864 19.3966 17.6496C19.4215 17.6037 19.3883 17.5669 19.3219 17.5669C19.2554 17.5669 19.1973 17.6037 19.1973 17.6496Z" fill="black"/>
<path d="M17.3691 17.7233C17.3691 17.7692 17.4273 17.8152 17.4937 17.8152C17.5602 17.8152 17.6183 17.7692 17.6183 17.7233C17.6183 17.6682 17.5602 17.6314 17.4937 17.6314C17.4273 17.6314 17.3691 17.6682 17.3691 17.7233Z" fill="black"/>
<path d="M18.1582 17.9529C17.9422 18.054 17.9339 18.0723 18.0917 18.0815C18.316 18.0907 18.532 17.9988 18.532 17.8977C18.532 17.7875 18.4572 17.7967 18.1582 17.9529Z" fill="black"/>
<path d="M13.6739 17.9988C13.6988 18.0448 13.7736 18.0907 13.84 18.0907C13.9065 18.0907 13.9812 18.0448 14.0062 17.9988C14.0394 17.9437 13.9646 17.9069 13.84 17.9069C13.7154 17.9069 13.6407 17.9437 13.6739 17.9988Z" fill="black"/>
<path d="M16.4237 17.9895C16.3074 18.0355 16.2908 18.0814 16.3572 18.1274C16.4901 18.2101 16.8058 18.0998 16.7476 17.9895C16.6895 17.8977 16.6396 17.8977 16.4237 17.9895Z" fill="black"/>
<path d="M15.6921 18.247C15.7419 18.2653 15.8416 18.2653 15.8998 18.247C15.9496 18.2194 15.9081 18.201 15.7918 18.201C15.6755 18.201 15.634 18.2194 15.6921 18.247Z" fill="black"/>
<path d="M17.228 18.2468C17.0536 18.3204 17.1034 18.449 17.2861 18.3939C17.3775 18.3663 17.4523 18.3112 17.4523 18.2652C17.4523 18.1733 17.3858 18.1733 17.228 18.2468Z" fill="black"/>
<path d="M14.5048 18.3479C14.4134 18.3663 14.3054 18.4306 14.2556 18.4766C14.1974 18.5409 14.2473 18.5501 14.4217 18.5041C14.7872 18.4122 14.8619 18.2652 14.5048 18.3479Z" fill="black"/>
<path d="M16.506 18.3665C16.4146 18.394 16.3814 18.4492 16.423 18.4859C16.506 18.5411 16.7718 18.4032 16.7054 18.3389C16.6804 18.3113 16.5891 18.3297 16.506 18.3665Z" fill="black"/>
<path d="M13.1748 18.642C13.0253 18.7155 13.0253 18.7247 13.2163 18.7247C13.3326 18.7247 13.4821 18.688 13.5486 18.642C13.6482 18.5685 13.6482 18.5501 13.507 18.5593C13.4157 18.5593 13.2662 18.5961 13.1748 18.642Z" fill="black"/>
<path d="M12.0951 18.7339C12.12 18.7799 12.2363 18.8258 12.3525 18.8258C12.4688 18.8258 12.5353 18.789 12.5104 18.7339C12.4854 18.6788 12.3692 18.642 12.2529 18.642C12.1366 18.642 12.0701 18.6788 12.0951 18.7339Z" fill="black"/>
<path d="M3.74707 16.896C3.74707 16.942 3.89658 16.9879 4.07931 16.9879C4.26205 16.9879 4.41156 16.942 4.41156 16.896C4.41156 16.8409 4.26205 16.8041 4.07931 16.8041C3.89658 16.8041 3.74707 16.8409 3.74707 16.896Z" fill="black"/>
<path d="M10.5759 17.3464C10.875 17.4842 11.9215 17.4475 12.0627 17.2913C12.1126 17.2361 11.8135 17.2086 11.2238 17.2086C10.36 17.2177 10.3184 17.2269 10.5759 17.3464Z" fill="black"/>
<path d="M8.18361 17.8609C8.27498 17.9345 8.39127 17.9988 8.4328 17.9988C8.48263 17.9988 8.44941 17.9345 8.36635 17.8609C8.27498 17.7874 8.1587 17.7231 8.11717 17.7231C8.06733 17.7231 8.10055 17.7874 8.18361 17.8609Z" fill="black"/>
<path d="M6.57227 18.0998C6.57227 18.1825 6.83806 18.256 6.97096 18.2101C7.17031 18.1274 7.07063 18.0079 6.82145 18.0263C6.68855 18.0355 6.57227 18.0722 6.57227 18.0998Z" fill="black"/>
<path d="M7.1543 18.1918C7.1543 18.2928 7.45332 18.348 7.5696 18.2745C7.62774 18.2285 7.5696 18.1918 7.41179 18.1642C7.27058 18.1458 7.1543 18.155 7.1543 18.1918Z" fill="black"/>
<path d="M9.39648 18.2193C9.39648 18.302 9.64567 18.348 9.6872 18.2744C9.72042 18.2193 9.66228 18.1826 9.57091 18.1826C9.47124 18.1826 9.39648 18.2009 9.39648 18.2193Z" fill="black"/>
<path d="M8.17464 18.6144C8.2494 18.6328 8.38229 18.6328 8.46535 18.6144C8.54011 18.5868 8.47366 18.5684 8.31584 18.5684C8.15803 18.5684 8.09158 18.5868 8.17464 18.6144Z" fill="black"/>
<path d="M7.79214 21.1323C7.4682 21.3252 6.95322 22.0052 7.03628 22.1523C7.0612 22.189 7.25224 22.0236 7.45989 21.7663C7.66754 21.5182 7.92503 21.2242 8.04132 21.1231C8.30711 20.8934 8.19914 20.8934 7.79214 21.1323Z" fill="black"/>
<path d="M16.2899 22.4647C15.8995 22.5382 14.9277 22.6761 14.1303 22.7772L12.6768 22.9609L13.715 22.915C15.235 22.8599 17.1205 22.5934 17.1205 22.4464C17.1205 22.3728 17.0956 22.3177 17.0624 22.3269C17.0209 22.3361 16.6803 22.3912 16.2899 22.4647Z" fill="black"/>
<path d="M8.10907 22.7771C8.20044 22.823 8.54099 22.8506 8.85662 22.8506C9.41313 22.8506 9.42144 22.8414 9.06427 22.7679C8.54099 22.6668 7.89311 22.676 8.10907 22.7771Z" fill="black"/>
</svg>
