<svg width="21" height="25" viewBox="0 0 21 25" fill="none" xmlns="http://www.w3.org/2000/svg">
<path d="M9.72433 6.3534C10.0712 6.73384 10.4991 7.40098 10.8498 8.06884C11.5716 9.42694 11.8329 9.80342 12.8344 10.9558C13.987 12.2695 14.6376 13.127 14.7418 13.4705C14.7944 13.6315 14.7769 13.918 14.7038 14.1075C14.6007 14.39 14.6181 14.4766 14.777 14.5653C15.0026 14.6915 15.0302 14.8386 14.8474 14.9888C14.7496 15.0657 14.665 15.0403 14.5082 14.9088C14.3393 14.7595 14.2537 14.7555 14.0339 14.874C13.4452 15.1812 12.5245 14.7871 11.2504 13.6908C8.90445 11.666 6.59676 7.88525 7.12952 6.93237C7.19495 6.81535 7.17409 6.61717 7.08439 6.42439C6.95954 6.1571 6.90571 6.11603 6.70384 6.12385C6.36429 6.14246 6.24879 5.85846 6.44507 5.5074C6.59462 5.23992 6.62068 5.23255 6.92726 5.37104C7.12049 5.45714 7.24021 5.55699 7.21217 5.60714C7.18413 5.65729 7.08554 5.65702 6.99359 5.60561C6.90165 5.55421 6.80305 5.55394 6.77501 5.60409C6.73762 5.67096 6.8249 5.73073 7.01912 5.79543C7.17524 5.8498 7.31931 5.88647 7.32866 5.86975C7.34169 5.86607 7.50104 5.75767 7.68276 5.62887C8.34155 5.19628 8.85636 5.3744 9.72433 6.3534ZM8.05324 5.86892C7.90989 5.90946 7.75521 6.0095 7.71315 6.08473C7.6524 6.19339 7.6728 6.21577 7.79009 6.1826C8.0768 6.10152 8.27714 6.31228 8.40684 6.8456C8.53754 7.35753 8.54958 7.37524 8.79252 7.31357C9.04381 7.25659 9.04381 7.25659 8.80744 7.6401C8.51132 8.11088 8.53514 8.24488 8.87351 7.97327L9.13172 7.76654L9.12724 8.04929C9.12841 8.3023 9.08267 8.36449 8.81241 8.55351C8.40888 8.84355 8.45409 8.97854 8.89079 8.80579C9.17947 8.68193 9.23897 8.69325 9.31762 8.84694C9.36849 8.95218 9.50736 9.1944 9.63517 9.39751L9.86301 9.75531L9.50674 9.76457C9.03885 9.77726 8.97612 9.9287 9.43269 9.97552C9.90598 10.0317 10.035 10.1148 9.97771 10.3351C9.93736 10.4661 9.99021 10.5286 10.163 10.5923C10.3192 10.6467 10.4128 10.7539 10.4597 10.9447C10.5167 11.196 10.5706 11.2371 10.8383 11.288C11.1024 11.3259 11.1599 11.3801 11.2189 11.5886C11.2594 11.7319 11.2645 11.8994 11.2271 11.9662C11.101 12.1919 11.2561 12.2677 11.5578 12.1401C11.8511 12.0079 11.8511 12.0079 11.7567 12.1965C11.6679 12.3553 11.6836 12.386 11.8547 12.3939C12.0947 12.3964 12.1372 12.497 11.9924 12.7561C11.8288 13.0487 12.0909 13.1294 12.2972 12.8388L12.4625 12.6021L12.65 13.0909C12.866 13.7054 12.9951 13.7885 13.1068 13.4121C13.2221 13.0487 13.2676 13.0851 13.4428 13.6548C13.5212 13.9071 13.6219 14.139 13.6554 14.1577C13.7724 14.2231 13.9721 13.9837 13.9045 13.8691C13.8731 13.8076 13.8994 13.7017 13.9618 13.6488C14.1846 13.4662 13.9103 13.0934 13.3132 12.7485C12.2229 12.128 11.7155 11.6029 10.4563 9.81272C9.84474 8.94417 9.6995 8.6545 9.36656 7.60161C8.88424 6.07022 8.61362 5.71045 8.05324 5.86892ZM9.7 7.43695C9.60653 7.60412 9.66918 7.82567 9.79483 7.79717C9.89073 7.76301 9.95597 7.3716 9.86402 7.3202C9.82223 7.29683 9.74673 7.35336 9.7 7.43695ZM10.0935 8.10679C10.0327 8.21545 10.2221 9.03449 10.2913 8.9305C10.366 8.79676 10.3158 8.12134 10.2238 8.06993C10.182 8.04657 10.1215 8.05663 10.0935 8.10679ZM10.4175 9.35219C10.4765 9.56071 10.4849 9.56538 10.5737 9.40657C10.6952 9.18924 10.6546 9.04589 10.4852 9.0938C10.394 9.11959 10.3686 9.20417 10.4175 9.35219ZM10.949 9.91265C10.7813 10.0164 10.7803 10.0378 10.9281 10.0875C11.021 10.1175 11.1383 10.0843 11.2017 10.0101C11.3557 9.83283 11.1745 9.76444 10.949 9.91265ZM9.06803 8.95974C9.04467 9.00154 9.07981 9.07604 9.14668 9.11343C9.21355 9.15082 9.29543 9.14174 9.31879 9.09994C9.34683 9.04979 9.30702 8.98364 9.24015 8.94626C9.17328 8.90887 9.09607 8.90959 9.06803 8.95974ZM11.5434 10.5961C11.4956 10.701 11.6267 10.7414 11.7209 10.6514C11.774 10.6153 11.7592 10.5632 11.6914 10.5472C11.6272 10.5442 11.5621 10.5626 11.5434 10.5961ZM12.1311 11.3306C12.1674 11.6581 12.2832 11.8435 12.3626 11.7014C12.4374 11.5677 12.3382 11.1172 12.2211 11.0518C12.1208 10.9957 12.1012 11.0505 12.1311 11.3306ZM12.6016 11.7253C12.4575 12.0616 12.5889 12.2778 12.7525 11.9852C12.846 11.8181 12.8431 11.5092 12.7428 11.4532C12.7261 11.4438 12.669 11.5655 12.6016 11.7253ZM13.1056 12.1387C13.0682 12.2056 13.0595 12.2995 13.0826 12.3563C13.1502 12.4709 13.3393 12.3682 13.3332 12.2221C13.3281 12.0547 13.1803 12.005 13.1056 12.1387ZM14.2134 13.4932C14.2205 13.6179 14.2463 13.7091 14.2854 13.6981C14.3245 13.687 14.3415 13.5978 14.325 13.4898C14.2727 13.2302 14.2216 13.2235 14.2134 13.4932Z" fill="white"/>
<path fill-rule="evenodd" clip-rule="evenodd" d="M12.6007 20.4365C17.2604 19.4765 20.7615 15.3873 20.7615 10.4884C20.7615 4.87648 16.1673 0.327148 10.4999 0.327148C4.83257 0.327148 0.238281 4.87648 0.238281 10.4884C0.238281 15.401 3.75894 19.4993 8.43812 20.4444C8.35488 20.8836 8.40996 21.3577 8.6413 21.8045L9.95066 24.3332C10.1898 24.7951 10.8505 24.7951 11.0897 24.3332L12.399 21.8045C12.6318 21.355 12.6861 20.8779 12.6007 20.4365ZM18.2314 10.5285C18.2314 14.7874 14.779 18.2398 10.5201 18.2398C6.26132 18.2398 2.80886 14.7874 2.80886 10.5285C2.80886 6.26971 6.26132 2.81725 10.5201 2.81725C14.779 2.81725 18.2314 6.26971 18.2314 10.5285Z" fill="#FCFCFC"/>
</svg>
