<svg width="23" height="28" viewBox="0 0 23 28" fill="none" xmlns="http://www.w3.org/2000/svg">
<path d="M20.312 21.0536C19.4768 20.857 18.4914 20.5149 18.118 20.2727C17.4323 19.8529 13.2463 16.2564 12.986 15.8681C12.9047 15.7467 12.831 15.4268 12.8101 15.1594C12.7806 14.6692 12.7034 14.5802 11.0176 12.7729C8.7469 10.3552 8.51543 10.1409 8.15909 10.239C7.75821 10.3494 7.37999 9.75867 7.40265 9.05763C7.42995 8.59969 7.33624 8.3811 6.84842 7.70557C5.81172 6.23713 2.88339 3.31037 2.48226 3.31537C2.38504 3.32775 1.89569 3.72599 1.38631 4.22558C0.880936 4.70489 0.440253 5.12328 0.415979 5.13954C0.391705 5.15581 0.392076 5.31384 0.408711 5.49614C0.445986 5.84047 3.18112 9.31875 3.95258 9.99767C4.19618 10.2037 4.76009 10.4942 5.23454 10.6511C6.4632 11.0412 6.54852 11.1423 6.3881 11.8478C6.21566 12.614 6.32952 12.7839 8.42508 14.809C10.1267 16.4299 10.4879 16.6803 11.27 16.7189C11.6266 16.7262 11.9349 16.8714 12.1705 17.118C13.9577 18.9979 16.9711 21.9205 17.6044 22.393C18.7003 23.1887 19.1423 23.3498 19.9038 23.2264C20.9407 23.0416 20.9607 22.9403 20.0115 22.5211C18.4094 21.836 17.7154 21.3514 15.9003 19.7187C14.6131 18.5588 14.1094 18.017 14.1374 17.8751C14.1615 17.7535 14.1978 17.6764 14.2222 17.7129C14.3604 17.9192 16.984 20.4698 17.4833 20.8738C17.8081 21.1486 18.7412 21.6489 19.5686 21.9914C20.392 22.3541 21.0858 22.7334 21.1145 22.8548C21.1431 22.9763 21.2162 23.0329 21.2768 22.9922C21.3375 22.9516 21.3372 22.7935 21.3044 22.6396C21.2472 22.4493 21.3399 22.2465 21.5664 22.0596C21.7565 21.8971 21.9019 21.6941 21.8692 21.5929C21.8568 21.4957 21.1472 21.2502 20.312 21.0536ZM20.7478 21.9926C20.5329 21.9607 20.0505 21.8444 19.6855 21.7196C19.0205 21.5145 19.0205 21.5145 20.3172 21.5601C21.3709 21.6103 21.5695 21.6706 21.3795 21.8331C21.2501 21.955 20.9626 22.0246 20.7478 21.9926ZM19.4735 22.8992C19.1573 22.8473 18.772 22.6658 18.6096 22.5285C18.4512 22.3708 18.2034 22.1323 18.041 21.9949C17.8461 21.809 19.631 22.6881 19.9882 22.9588C20.0248 22.9871 19.7897 22.9511 19.4735 22.8992ZM17.6513 21.6757C17.5905 21.6637 17.5052 21.5626 17.4847 21.4533C17.456 21.3318 17.5168 21.3438 17.6063 21.4773C17.7079 21.6027 17.7202 21.6999 17.6513 21.6757ZM16.474 20.706C16.4132 20.694 16.3278 20.5929 16.3073 20.4836C16.2787 20.3621 16.3395 20.3741 16.4289 20.5076C16.5305 20.633 16.5429 20.7302 16.474 20.706ZM11.8445 14.6106C11.7475 14.7283 11.4847 14.9923 11.2624 15.2116C10.8096 15.6381 10.7942 15.9826 11.2118 16.1072C11.67 16.2399 11.4921 16.3943 11.0096 16.2779C10.6772 16.2017 10.0966 15.729 8.83773 14.5325C7.89148 13.619 7.03857 12.766 6.94098 12.6204C6.85152 12.4869 6.84253 12.106 6.92687 11.7857C7.04725 11.283 7.0226 11.1412 6.73421 10.8421C6.41742 10.5267 6.4173 10.4741 6.7246 10.1978C7.00763 9.93783 7.08057 9.94171 7.24322 10.1844C7.43026 10.4636 8.1318 10.697 8.35026 10.5506C8.41095 10.5099 8.70722 10.7159 8.99962 10.9948C9.74281 11.7102 9.75106 11.775 9.07731 11.2944C8.75263 11.0723 8.45247 10.9393 8.39992 10.9921C8.10476 11.2603 8.34473 11.6446 9.4779 12.7846C10.7613 14.0701 11.3336 14.478 10.9229 13.8388L10.691 13.4666L11.2469 13.7975C11.953 14.2213 12.0424 14.3548 11.8445 14.6106ZM12.434 15.4641C12.4388 15.7599 12.5854 16.0837 12.9552 16.557C13.3617 17.1111 13.4269 17.2609 13.2935 17.403C13.152 17.533 13.0019 17.4402 12.6159 16.9954C12.3315 16.6759 11.8606 16.288 11.5563 16.1226L11.0166 15.8159L11.3965 15.3855C12.1117 14.537 12.4319 14.5687 12.434 15.4641ZM13.7271 17.3939C13.6544 17.4954 13.5977 17.5158 13.5853 17.4186C13.5729 17.3213 13.6253 17.2159 13.6982 17.1671C13.8681 17.0532 13.8886 17.1626 13.7271 17.3939ZM15.662 20.0191C15.6011 20.0071 15.5158 19.906 15.4953 19.7966C15.4667 19.6751 15.5275 19.6872 15.6169 19.8207C15.7185 19.946 15.7309 20.0432 15.662 20.0191ZM15.1706 19.5745C15.0894 19.5058 14.9918 19.3602 14.9673 19.2711C14.9468 19.1618 15.0117 19.2062 15.1256 19.3761C15.2394 19.546 15.2558 19.623 15.1706 19.5745ZM14.6873 19.0894C14.6265 19.0774 14.5412 18.9763 14.5207 18.867C14.492 18.7455 14.5528 18.7575 14.6423 18.891C14.7439 19.0164 14.7562 19.1136 14.6873 19.0894ZM14.1146 18.5235C14.0334 18.4548 13.9196 18.2849 13.8707 18.1594C13.8258 18.0136 13.8988 18.0702 14.0289 18.2644C14.1672 18.4707 14.1999 18.5719 14.1146 18.5235ZM10.4964 13.386C10.4152 13.3173 10.3176 13.1716 10.293 13.0826C10.2725 12.9732 10.3375 13.0176 10.4513 13.1875C10.5652 13.3575 10.5816 13.4344 10.4964 13.386ZM9.96836 12.8605C9.88716 12.7918 9.78957 12.6461 9.76505 12.557C9.74454 12.4477 9.80947 12.4921 9.92333 12.662C10.0372 12.8319 10.0536 12.9089 9.96836 12.8605ZM6.95673 8.96953C7.03892 9.45962 6.999 9.71499 6.78479 9.94646C6.62713 10.1049 6.45334 10.2917 6.40078 10.3444C6.29568 10.45 4.94165 10.1615 4.83593 10.0037C4.81153 9.96729 4.96117 9.84943 5.18789 9.76786C5.64534 9.58445 6.38494 8.77232 6.40835 8.38733C6.44815 8.07929 6.43601 8.08742 5.89873 8.78157C5.418 9.40264 4.72595 9.76084 5.13786 9.16829C5.46094 8.70561 5.15715 8.75089 4.8138 9.20957C4.64413 9.42877 4.44194 9.59943 4.36086 9.58341C4.17844 9.54737 1.52913 6.38089 1.02492 5.62841C0.492187 4.8071 1.16206 5.36065 2.592 6.91731C3.3517 7.76239 4.03408 8.46583 4.13142 8.50612C4.39104 8.63113 4.27232 8.11275 3.89823 7.55446L3.54441 7.00017L4.31588 7.67909C4.73814 8.04683 5.20082 8.3699 5.3387 8.4182C5.53739 8.47852 5.56992 8.52706 5.48108 8.65693C5.25899 8.98161 5.78075 8.57924 6.02712 8.2383C6.46731 7.60921 6.77584 7.85971 6.95673 8.96953ZM9.44038 12.3349C9.35918 12.2663 9.26159 12.1206 9.23706 12.0315C9.21655 11.9222 9.28148 11.9666 9.39534 12.1365C9.50919 12.3064 9.52558 12.3834 9.44038 12.3349ZM6.01424 7.93038C5.69129 8.44574 5.41165 8.42208 4.88754 7.82362C4.62755 7.54059 3.77864 6.66736 3.01506 5.89522C2.25148 5.12309 1.63804 4.44379 1.63792 4.39112C1.67396 4.20869 2.86769 5.25536 3.96045 6.44002C4.57789 7.09904 5.13015 7.6083 5.19084 7.56764C5.23939 7.53511 5.09288 7.26397 4.84503 6.97281L4.39399 6.4309L4.89345 6.8876C5.76238 7.65949 5.27844 6.91101 4.0109 5.49174C2.58496 3.91482 2.04108 3.52305 3.08554 4.8456C3.9756 5.99022 3.82984 6.03513 2.86282 4.9069C2.0746 3.993 1.98077 3.72174 2.53216 3.86227C2.84434 3.93447 3.29513 4.37102 5.55371 6.79691C6.14676 7.41952 6.20793 7.58956 6.01424 7.93038ZM4.1993 6.35032C4.1181 6.28162 4.00425 6.11171 3.95533 5.98621C3.91042 5.84045 3.98349 5.897 4.11361 6.09119C4.25186 6.29752 4.28451 6.39874 4.1993 6.35032ZM3.87895 7.97186C3.79775 7.90316 3.70016 7.75752 3.67564 7.66843C3.65512 7.55908 3.72006 7.6035 3.83391 7.77341C3.94777 7.94333 3.96415 8.02028 3.87895 7.97186ZM2.84287 6.7668C2.52596 6.39881 2.01811 5.82462 1.72559 5.49305C1.43307 5.16147 1.24203 4.90259 1.30283 4.91461C1.49739 4.94251 2.49268 6.03421 2.96849 6.77056L3.41577 7.43808L2.84287 6.7668Z" fill="black"/>
<path d="M19.3665 6.80854C19.5615 5.9166 19.09 4.17999 18.5051 3.52854C17.1788 2.08689 15.6348 1.92867 13.9022 3.07216C12.5069 4.0015 11.7856 5.69905 12.0219 7.55169C12.2778 9.59923 12.2961 9.57014 9.6945 13.2923C8.44668 15.0852 6.80796 17.4035 6.059 18.4345C3.72447 21.6345 3.3515 22.293 3.46814 23.0763C3.64189 24.3825 4.97607 24.7132 5.92535 23.6864C6.55515 23.0067 9.45467 17.9703 10.7645 15.3034C12.1861 12.3617 13.4966 10.243 13.9595 10.0874C14.1436 10.0204 14.8376 9.94911 15.495 9.93599C16.2855 9.90496 16.9342 9.74432 17.3846 9.47943C18.2617 8.95506 19.1677 7.73871 19.3665 6.80854ZM17.1975 9.26047C16.8984 9.47835 16.5738 9.63971 16.4737 9.63767C16.3644 9.65018 16.5596 9.46849 16.8879 9.26889C18.8977 7.97486 19.391 5.60662 17.9886 3.99543C16.6898 2.51013 14.3522 2.96935 13.1186 4.93347C12.4424 6.01009 12.4711 8.64538 13.1451 9.41358L13.4448 9.74387L13.2896 9.11887C13.1848 8.76898 13.1838 8.38289 13.2569 8.2665C13.3574 8.10646 13.4867 8.12678 13.7557 8.37687C13.9756 8.57586 14.4087 8.72616 14.9677 8.77293C16.4535 8.89459 18.0244 7.58866 18.1369 6.11741C18.2169 5.37638 18.4338 5.28944 18.434 5.9997C18.4613 6.82838 18.0751 7.70169 17.3888 8.40677C16.8886 8.94473 16.5732 9.09154 15.3215 9.34009C14.5253 9.50951 13.6925 9.73714 13.4956 9.8569C13.0032 10.1563 11.8938 11.955 10.785 14.3018C9.62131 16.7359 6.38874 22.4964 5.80631 23.1653C5.20933 23.825 4.58805 23.942 4.19763 23.4331C3.72905 22.8547 4.03265 22.2744 6.50594 18.9181C9.27332 15.158 12.2266 10.5206 12.4307 9.61414C12.5208 9.24465 12.5409 8.40514 12.475 7.73481C12.3182 6.17555 12.4817 5.52757 13.3312 4.3366C14.4236 2.79104 15.7667 2.397 17.2565 3.19068C18.6444 3.9204 19.2695 5.34775 18.9218 6.93503C18.7874 7.60128 17.9271 8.74488 17.1975 9.26047Z" fill="black"/>
</svg>
