<svg width="27" height="27" viewBox="0 0 27 27" fill="none" xmlns="http://www.w3.org/2000/svg">
<path d="M9.67676 4.21875C6.68079 4.21875 4.21875 6.67749 4.21875 9.67676V17.3232C4.21875 20.3192 6.67749 22.7812 9.67676 22.7812H17.3232C20.3192 22.7812 22.7812 20.3225 22.7812 17.3232V9.67676C22.7812 6.68079 20.3225 4.21875 17.3232 4.21875H9.67676ZM9.67676 5.90625H17.3232C19.4095 5.90625 21.0938 7.59045 21.0938 9.67676V17.3232C21.0938 19.4095 19.4095 21.0938 17.3232 21.0938H9.67676C7.59045 21.0938 5.90625 19.4095 5.90625 17.3232V9.67676C5.90625 7.59045 7.59045 5.90625 9.67676 5.90625ZM18.4834 7.75195C18.0582 7.75195 17.7188 8.09143 17.7188 8.5166C17.7188 8.94177 18.0582 9.28125 18.4834 9.28125C18.9086 9.28125 19.248 8.94177 19.248 8.5166C19.248 8.09143 18.9086 7.75195 18.4834 7.75195ZM13.5 8.4375C10.715 8.4375 8.4375 10.715 8.4375 13.5C8.4375 16.285 10.715 18.5625 13.5 18.5625C16.285 18.5625 18.5625 16.285 18.5625 13.5C18.5625 10.715 16.285 8.4375 13.5 8.4375ZM13.5 10.125C15.3754 10.125 16.875 11.6246 16.875 13.5C16.875 15.3754 15.3754 16.875 13.5 16.875C11.6246 16.875 10.125 15.3754 10.125 13.5C10.125 11.6246 11.6246 10.125 13.5 10.125Z" fill="white"/>
</svg>
