<svg width="19" height="19" viewBox="0 0 19 19" fill="none" xmlns="http://www.w3.org/2000/svg">
<path d="M5.67676 0.21875C2.68079 0.21875 0.21875 2.67749 0.21875 5.67676V13.3232C0.21875 16.3192 2.67749 18.7812 5.67676 18.7812H13.3232C16.3192 18.7812 18.7812 16.3225 18.7812 13.3232V5.67676C18.7812 2.68079 16.3225 0.21875 13.3232 0.21875H5.67676ZM5.67676 1.90625H13.3232C15.4095 1.90625 17.0938 3.59045 17.0938 5.67676V13.3232C17.0938 15.4095 15.4095 17.0938 13.3232 17.0938H5.67676C3.59045 17.0938 1.90625 15.4095 1.90625 13.3232V5.67676C1.90625 3.59045 3.59045 1.90625 5.67676 1.90625ZM14.4834 3.75195C14.0582 3.75195 13.7188 4.09143 13.7188 4.5166C13.7188 4.94177 14.0582 5.28125 14.4834 5.28125C14.9086 5.28125 15.248 4.94177 15.248 4.5166C15.248 4.09143 14.9086 3.75195 14.4834 3.75195ZM9.5 4.4375C6.71497 4.4375 4.4375 6.71497 4.4375 9.5C4.4375 12.285 6.71497 14.5625 9.5 14.5625C12.285 14.5625 14.5625 12.285 14.5625 9.5C14.5625 6.71497 12.285 4.4375 9.5 4.4375ZM9.5 6.125C11.3754 6.125 12.875 7.62463 12.875 9.5C12.875 11.3754 11.3754 12.875 9.5 12.875C7.62463 12.875 6.125 11.3754 6.125 9.5C6.125 7.62463 7.62463 6.125 9.5 6.125Z" fill="white"/>
</svg>
