<svg width="28" height="29" viewBox="0 0 28 29" fill="none" xmlns="http://www.w3.org/2000/svg">
<path d="M1.41935 9.17301C1.04634 10.2233 0.912788 10.7656 0.69408 12.0306C0.182125 15.0473 0.11044 18.1566 0.520175 19.6858C0.978281 21.3955 2.5418 23.6626 4.38107 25.2811C4.70859 25.5688 5.11661 25.966 5.29602 26.1683C6.42606 27.4759 8.17852 28.4519 10.011 28.7918C12.0842 29.181 13.8619 29.0403 16.9472 28.2364C18.0477 27.9471 19.0438 27.7145 19.1546 27.7245C19.2626 27.7242 19.3476 27.7014 19.3535 27.66C19.3489 27.6212 19.6887 27.5301 20.1046 27.4474C20.9288 27.2947 20.9747 27.1686 20.214 27.1335C19.9605 27.1218 19.7137 27.1138 19.6723 27.1078C19.5306 27.0889 21.0111 26.5613 21.2416 26.5507C21.3815 26.5416 21.6249 26.4309 21.7962 26.3053C21.9674 26.1798 22.3492 25.9694 22.6564 25.8416C22.9568 25.7097 23.559 25.3664 23.9942 25.0791C24.4333 24.7849 24.8837 24.5335 24.9995 24.5195C25.1154 24.5055 25.2167 24.5012 25.2155 24.5186C25.2184 24.5292 25.0874 24.6781 24.9171 24.8488C24.576 25.1907 24.5458 25.2897 24.82 25.1878C24.9128 25.1516 24.85 25.2141 24.6691 25.3251C24.4844 25.4429 23.9716 25.6316 23.5227 25.7403C22.4233 26.0122 21.9228 26.226 21.7829 26.4683C21.608 26.7713 21.633 26.9922 21.8552 27.1203C21.9629 27.1825 22.0512 27.2784 22.0548 27.3344C22.0545 27.3971 22.1814 27.4882 22.3748 27.5729C22.6087 27.6811 22.7928 27.6888 23.0717 27.6254C23.287 27.5789 23.636 27.5652 23.8501 27.5989C24.1254 27.6503 24.3463 27.6252 24.5686 27.5201C24.7513 27.4371 25.0446 27.364 25.2193 27.3572C25.871 27.3475 26.403 27.2508 26.6658 27.1061C27.0659 26.8795 27.585 25.9495 27.6018 25.4384C27.6209 25.0006 27.5302 24.8317 27.18 24.6293C26.8233 24.4236 26.26 24.4664 25.7352 24.7378C24.9342 25.1459 24.9698 25.1307 25.1645 24.9646C25.2669 24.8802 25.4304 24.7683 25.5269 24.7252C25.7386 24.6231 25.9455 24.3114 25.8793 24.1927C25.8545 24.1425 25.6659 24.0963 25.475 24.0849C25.2772 24.0694 25.1117 24.0455 25.106 24.0244C25.1003 24.0032 25.3077 23.7369 25.5771 23.4257C26.1433 22.7562 27.1623 21.0377 27.4272 20.2839C27.7542 19.3597 27.9508 18.2883 27.8561 17.8926C27.8127 17.688 27.7996 17.3841 27.8301 17.2223C27.8715 17.0576 27.9126 16.7222 27.9231 16.4861C27.9377 16.2431 27.9608 16.0321 27.9871 16.0023C28.0093 15.9792 28.0008 15.9474 27.9739 15.9318C27.9403 15.9124 27.8898 15.5333 27.8649 15.079C27.8427 14.6353 27.7936 14.1762 27.7759 14.0671C27.7514 13.9542 27.7605 13.6274 27.809 13.3412C27.8818 12.764 27.8695 11.6348 27.7622 11.0433C27.7105 10.7441 27.6732 10.6687 27.5739 10.7011C27.4811 10.7373 27.4606 10.7883 27.4822 10.8906C27.4917 10.9678 27.3844 10.6096 27.2411 10.096C27.091 9.57852 26.7956 8.7528 26.5953 8.26014C26.3844 7.77035 26.2006 7.2961 26.1884 7.20829C26.183 7.12439 26.1581 7.07414 26.1347 7.11452C26.1153 7.14819 26.0922 7.1259 26.0888 7.06997C26.0734 6.86356 24.8591 5.62394 23.4528 4.39022C23.0226 4.01613 22.5224 3.52986 22.3306 3.30239C21.5987 2.44003 21.1394 2.08509 19.9783 1.4686C19.3838 1.16126 18.6554 0.821494 18.3617 0.723754C16.9792 0.257659 14.3454 -0.0780228 12.891 0.0157786C10.1605 0.189712 6.38568 2.32794 3.84497 5.14275C3.05038 6.02149 1.80118 8.09188 1.41935 9.17301ZM4.02076 5.28914C5.88922 3.17232 8.72849 1.30183 11.2447 0.519486C12.5434 0.120281 14.2656 0.0913161 16.2995 0.439782C17.8922 0.712996 18.4554 0.90351 19.855 1.66668C20.9919 2.27823 21.1727 2.40054 21.5471 2.77822C21.9636 3.20725 22.7182 4.15457 22.4272 3.89679C20.3635 2.01411 16.2127 0.667908 13.1119 0.861417C12.1782 0.923771 10.431 1.36918 9.33356 1.83967C8.82252 2.05626 7.98744 2.50766 7.47297 2.83898C6.59306 3.39913 5.51308 4.27468 5.35761 4.54395C5.31874 4.61127 5.85338 4.2916 6.54966 3.8319C7.95285 2.90958 9.24201 2.26256 10.5997 1.80771C13.2939 0.903681 15.5952 0.975651 18.5612 2.04177C19.4815 2.37565 21.7135 3.71812 22.555 4.43734C22.9325 4.76298 23.2582 5.02286 23.2793 5.01716C23.2967 5.01821 23.1953 4.8519 23.0534 4.6623C22.6232 4.05483 22.935 4.19894 23.8127 5.01085C25.3742 6.44195 25.8688 7.07767 26.3122 8.22224C26.5876 8.91095 26.9249 10.2546 26.859 10.3691C26.8396 10.4028 26.8076 10.4113 26.7817 10.3784C26.7625 10.3494 26.4752 9.9142 26.1362 9.41323C25.8037 8.91615 25.3597 8.19293 25.1636 7.80155C24.9678 7.41016 24.5783 6.76337 24.3061 6.36393C23.7428 5.53604 23.3721 5.21426 23.8135 5.92686C24.3743 6.85212 24.9433 8.10527 25.5474 9.7645C25.8579 10.6259 26.0834 10.6395 25.9743 9.78664L25.9147 9.3303L26.0991 9.74187C26.4409 10.4868 26.8867 11.938 27.0773 12.8829C27.5753 15.3785 27.571 17.8267 27.0616 19.642C26.7109 20.9026 25.8291 22.4761 24.9253 23.4353C23.8161 24.6259 22.1856 25.6775 20.537 26.2785C20.199 26.3975 19.4041 26.7017 18.7724 26.9562C18.1339 27.2071 17.259 27.5099 16.8168 27.6226C14.888 28.1337 12.1051 27.963 9.84158 27.204C8.7286 26.8307 6.7848 25.7351 6.00497 25.0337C4.78915 23.9367 3.58437 22.3076 2.90736 20.8217C2.45756 19.8439 2.06309 18.3504 1.96295 17.2334C1.76756 15.2087 2.1166 12.1787 2.80023 10.0151C3.13568 8.95213 4.28127 6.98347 5.04864 6.15187C5.99815 5.12919 6.97135 4.40746 8.49469 3.5725C10.1001 2.70411 11.5291 2.28142 13.1223 2.19595C14.0762 2.14521 14.5794 2.17543 15.725 2.35216C17.4816 2.6213 18.6899 3.03163 20.1171 3.85567C21.5107 4.66024 22.3374 5.45169 23.4037 7.00978C23.733 7.49626 24.1294 8.14696 24.2812 8.45907C24.6168 9.13745 24.7087 9.52259 24.4091 8.99962C24.2045 8.63905 24.0766 8.50253 24.0224 8.59676C24.003 8.63043 24.128 8.92699 24.2884 9.27098C24.4459 9.60435 24.7418 10.4754 24.9393 11.1907C25.2421 12.299 25.3171 12.4951 25.4476 12.4716C25.5634 12.4576 25.5902 12.4732 25.5754 12.5454C25.5686 12.6042 25.5848 12.8559 25.6251 13.1126C25.8234 14.448 25.7652 16.5237 25.4915 17.775C25.1102 19.6014 23.993 21.6763 22.5824 23.1868C20.6505 25.258 17.7694 26.781 15.2815 27.0324C13.7921 27.1868 12.0023 27.0062 10.5107 26.5579C9.87422 26.3701 9.46044 26.1849 8.5091 25.6715C7.20381 24.9629 6.61478 24.5061 5.65713 23.4595L5.21572 22.9802L5.42173 22.6234C5.68992 22.1589 5.74771 21.3126 5.56747 20.4276C5.43457 19.7405 5.43617 19.5977 5.57075 19.9088C6.60927 22.2768 7.80246 23.6927 9.69421 24.7849C11.7072 25.9472 13.9428 26.2414 16.6297 25.6923C17.1692 25.5819 17.1971 25.5802 16.9247 25.71C16.7633 25.7874 16.2448 25.9549 15.7775 26.0799C14.8045 26.335 13.711 26.3321 12.4307 26.0776C11.0445 25.7888 10.3293 25.5197 9.09727 24.8083C7.69023 23.9961 6.99583 23.3796 6.0595 22.094C5.94638 21.9479 5.8638 21.8733 5.86739 21.9292C5.87436 22.1038 6.32476 22.7229 6.8814 23.3136C8.84974 25.3924 11.7893 26.551 14.8598 26.4569C15.9553 26.4249 17.0385 26.1347 18.1556 25.5679C19.0998 25.0988 19.3513 24.9119 19.3058 24.7421C19.2574 24.5614 19.022 24.5959 18.4692 24.8693C16.9674 25.6358 15.1405 25.7839 12.9953 25.3174C9.9561 24.6579 7.22399 22.5958 6.09149 20.1108C5.73718 19.3407 5.63379 18.7424 5.65074 17.5314C5.66983 15.415 5.905 13.7017 6.38018 12.2256C6.58656 11.5728 6.74514 11.2515 7.42146 10.0801C7.85394 9.31544 8.28511 8.63083 8.36644 8.55213C8.47397 8.44366 8.49937 8.36855 8.44372 8.30948C8.34975 8.19239 7.55051 9.03255 6.91884 9.92453C6.11253 11.0568 5.42647 12.6804 5.0683 14.2958C4.87847 15.1377 4.95463 16.6538 5.2688 18.2085C5.33007 18.5222 5.33646 18.8221 5.27816 18.9231C5.19443 19.0991 5.17814 19.0807 4.96673 18.4829C4.84097 18.1411 4.70148 17.8541 4.64658 17.8403C4.35085 17.7773 3.71424 18.6933 3.57133 19.3918C3.4559 19.9804 3.72883 20.8292 4.31877 21.7353C4.57632 22.1443 4.88412 22.5285 4.99185 22.5906C5.14669 22.6801 5.16478 22.7264 5.08448 22.7878C4.94513 22.9048 5.00931 22.9957 5.67517 23.7392C6.49173 24.6416 7.00671 25.0554 8.1983 25.7434C9.38992 26.4315 10.2996 26.7682 11.6975 27.0367C15.0791 27.6785 18.0228 27.0262 21.1264 24.9313C23.0064 23.665 23.458 23.1627 24.7124 21.0055C25.6142 19.4436 25.6502 19.3657 25.8445 18.6251C26.4538 16.2481 26.3513 14.3578 25.4675 11.2085C24.939 9.34138 24.4827 8.29701 23.6848 7.08241C22.5738 5.39969 21.343 4.20439 19.835 3.33373C16.8257 1.5963 13.0739 1.37805 9.78365 2.75479C7.69702 3.63257 5.71538 4.96596 4.57572 6.25584C3.88372 7.05016 2.84774 8.87565 2.50553 9.93478C1.89167 11.8065 1.51777 14.7862 1.6378 16.8482C1.76325 18.9942 2.4458 20.9681 3.7111 22.8655C5.52229 25.5899 8.02322 27.3837 10.891 27.9981C11.5373 28.138 13.2106 28.2872 14.4389 28.3052L15.1032 28.3206L14.3319 28.5218C13.0374 28.8514 11.3201 28.8562 9.77979 28.5235C8.83767 28.3209 8.2592 28.0946 7.39746 27.5969C6.58285 27.1266 6.13521 26.7516 5.17728 25.7677C4.86919 25.4461 4.36617 24.9492 4.06662 24.6596C2.67915 23.3469 1.40665 21.3376 0.867757 19.5813C0.439844 18.2391 0.38197 16.94 0.610095 14.6481C0.891756 11.8126 1.20224 10.2954 1.80588 8.76784C1.85851 8.64561 2.24433 7.96175 2.66696 7.2453C3.28291 6.20958 3.56816 5.80877 4.02076 5.28914ZM5.34716 14.4657C5.47301 14.5743 5.41927 14.9472 5.25479 15.0767C5.1377 15.1706 5.12423 15.1629 5.09244 14.9381C5.04073 14.6389 5.20505 14.3388 5.34716 14.4657ZM4.01793 19.7843C4.09872 19.8309 4.29942 20.6649 4.2595 20.7496C4.18462 20.8948 3.89674 20.585 3.85074 20.3071C3.78944 19.9935 3.8833 19.7066 4.01793 19.7843ZM5.00814 20.2303C5.44376 21.7924 5.44139 21.8897 5.02118 20.7674C4.8773 20.3792 4.59672 19.0772 4.64338 18.9964C4.65114 18.9829 4.81646 19.5362 5.00814 20.2303ZM22.4011 26.4392C22.5593 26.414 22.6471 26.4018 22.6008 26.4198C22.5544 26.438 22.5223 26.5091 22.5355 26.5796C22.5504 26.678 22.5108 26.7 22.3567 26.656C22.0659 26.569 22.0558 26.6797 22.3297 26.8738C22.6575 27.0989 22.5674 27.2085 22.195 27.0293C21.9141 26.894 21.9045 26.8795 22.0133 26.6911C22.0872 26.5633 22.2177 26.4771 22.4011 26.4392ZM22.9379 26.7222C23.1867 26.9286 23.2341 26.8932 23.1275 26.5804C23.0895 26.4597 23.0887 26.4143 23.127 26.4723C23.1653 26.5305 23.2313 26.6492 23.2608 26.7382C23.3016 26.8695 23.3489 26.8966 23.5224 26.9072L23.7276 26.9089L23.5558 26.7559C23.3666 26.6015 23.3424 26.3635 23.531 26.4723C23.6723 26.5539 23.9271 26.9523 23.8806 27.033C23.8609 27.0667 23.7251 27.069 23.5698 27.0421C23.408 27.0116 23.2392 27.0399 23.1724 27.1089C23.061 27.2242 23.061 27.2242 22.9906 27.0039L22.9163 26.7904L22.8585 26.9996C22.7714 27.2904 22.6754 27.2079 22.6962 26.8609C22.7084 26.7154 22.7168 26.5767 22.7245 26.563C22.7256 26.5459 22.8255 26.6215 22.9379 26.7222ZM24.2852 26.4409C24.4202 26.456 24.5309 26.466 24.5484 26.4671C24.5658 26.4683 24.5775 26.3852 24.5772 26.2774C24.5592 25.9977 24.6902 26.0194 24.818 26.3264C24.9524 26.6378 24.8537 26.7154 24.4125 26.6401C24.1611 26.5935 24.1465 26.6032 24.1785 26.7653C24.2005 26.8678 24.1719 26.9948 24.1194 27.0544C24.0515 27.1409 24.0267 27.0907 24.0173 26.8427C23.997 26.4272 24.0087 26.4069 24.2852 26.4409ZM25.2726 25.7722C25.5352 25.9238 25.9532 26.4434 25.826 26.4777C25.762 26.4948 25.6556 26.4152 25.5098 26.2323C25.3965 26.0862 25.2218 25.9224 25.1277 25.8681C25.0332 25.8136 24.9884 25.7517 25.0386 25.7269C25.082 25.698 25.185 25.7217 25.2726 25.7722ZM25.1913 26.0842C25.2923 26.1427 25.4644 26.4663 25.4447 26.5627C25.4059 26.8007 25.3012 26.7491 25.2001 26.4574C25.1185 26.1949 25.1105 26.0376 25.1913 26.0842ZM25.8885 25.6073C25.945 25.7115 26.0291 25.877 26.0788 25.9774C26.1353 26.0819 26.1481 26.2149 26.1093 26.2822C26.0508 26.3832 26.0086 26.3319 25.8802 25.9794C25.7181 25.5448 25.7269 25.2806 25.8885 25.6073ZM26.3234 25.2118C26.5765 25.0528 26.6806 25.0591 26.5103 25.23C26.421 25.3222 26.4324 25.3647 26.5605 25.4386C26.6478 25.4892 26.7026 25.5656 26.6832 25.5993C26.6598 25.6395 26.5808 25.621 26.4971 25.5636C26.4241 25.5034 26.3316 25.4772 26.2948 25.5097C26.2186 25.5642 26.3764 25.835 26.6298 26.0802L26.8045 26.244L26.5668 26.1424C26.3331 26.0345 25.9969 25.5439 26.0705 25.4161C26.0939 25.3759 26.2072 25.2885 26.3234 25.2118ZM26.5034 26.3301C26.5291 26.4257 26.5131 26.5154 26.4706 26.5268C26.4281 26.5382 26.3927 26.4908 26.3901 26.4175C26.3796 26.1869 26.4521 26.1389 26.5034 26.3301Z" fill="black"/>
<mask id="path-2-outside-1_2207_1194" maskUnits="userSpaceOnUse" x="8.2168" y="2.8916" width="12" height="23" fill="black">
<rect fill="white" x="8.2168" y="2.8916" width="12" height="23"/>
<path d="M14.249 12.4697C14.3503 12.4183 14.4184 12.4857 14.3852 12.6043C14.3745 12.6261 14.3623 12.6471 14.3489 12.6666C14.3404 12.6792 14.3314 12.6912 14.3221 12.7024C14.2781 12.7555 14.2272 12.7915 14.1832 12.7917C14.0236 12.7794 14.0198 12.6304 14.1319 12.5336L13.9729 12.4892C13.9694 12.5018 13.9341 12.6468 14.0666 12.7778C14.1033 12.8139 14.1412 12.8383 14.1784 12.8542L14.1836 12.8563C14.2565 12.8859 14.3259 12.8832 14.3758 12.8731C14.3834 12.8716 14.3905 12.8699 14.3972 12.8681C14.4076 12.8614 14.421 12.8507 14.434 12.8343C14.451 12.8129 14.4676 12.7818 14.4768 12.737C14.4817 12.7132 14.4841 12.6838 14.4814 12.6517C14.4808 12.6447 14.48 12.6377 14.4789 12.6305C14.4714 12.5814 14.4514 12.5272 14.4106 12.4764C14.3372 12.3851 14.2474 12.3674 14.2162 12.3649L14.249 12.4697ZM14.249 12.4697C14.2342 12.4744 14.2201 12.4798 14.2069 12.4859L14.2135 12.3998L14.249 12.4697ZM18.7949 19.371L18.7939 19.3682L18.793 19.3654C18.6727 19.0115 18.4821 18.5843 18.2451 18.1236C18.2475 18.1429 18.2489 18.163 18.249 18.1838C18.2499 18.3419 18.178 18.4616 18.1104 18.5353C18.0448 18.6069 17.9689 18.6528 17.9068 18.682C17.8099 18.7278 17.7016 18.7542 17.5945 18.7642C18.3822 19.6101 18.899 20.2555 19.1384 20.7932C19.1714 20.8671 19.1999 20.9408 19.2237 21.0145C19.1778 20.5961 19.0411 20.0634 18.7949 19.371ZM17.9645 17.6965C17.9948 17.7183 18.0282 17.7448 18.0612 17.7765C17.7913 17.2806 17.4771 16.7591 17.146 16.2575L17.1449 16.2557C15.6407 13.9521 15.2663 13.1973 14.3261 10.6339L14.3254 10.6319C14.3001 10.562 14.275 10.4928 14.2501 10.4242C14.1885 10.5278 14.0939 10.5815 14.049 10.6026C14.1408 10.6878 14.2286 10.7821 14.2996 10.8784C14.3418 10.9355 14.3839 11.0009 14.4168 11.0717C14.4478 11.1382 14.4835 11.2361 14.4842 11.3512C14.4845 11.4085 14.4844 11.5674 14.3857 11.7089C14.3254 11.7955 14.2366 11.8637 14.1271 11.8969C14.0272 11.927 13.9372 11.9198 13.8762 11.9083C13.7633 11.8871 13.6601 11.8332 13.586 11.7906C13.5281 11.7573 13.4645 11.7167 13.3958 11.6703C13.4811 11.9066 13.5778 12.1551 13.6875 12.4204C13.77 12.2515 13.9253 12.1304 14.0933 12.0705C14.2411 12.0091 14.479 11.9817 14.6684 12.1688C14.852 12.3502 14.8342 12.5882 14.7975 12.7195L14.7868 12.7578L14.7692 12.7935C14.725 12.8833 14.663 12.9727 14.586 13.046C14.5232 13.1059 14.3838 13.2186 14.1858 13.2198L14.168 13.2199L14.1502 13.2185C14.1096 13.2154 14.0663 13.2082 14.0227 13.1957C14.0917 13.3495 14.1646 13.5089 14.2414 13.6745C14.3655 13.5386 14.5301 13.4394 14.7104 13.4017C14.8475 13.3725 15.0364 13.3566 15.2109 13.444C15.3075 13.4924 15.3968 13.5722 15.4523 13.6857C15.5065 13.7965 15.5135 13.9087 15.5006 14.0008C15.4765 14.1734 15.3803 14.312 15.2921 14.4066C15.1979 14.5076 15.0773 14.597 14.9392 14.6705C14.8801 14.7038 14.8186 14.7372 14.7599 14.7641C14.7849 14.8157 14.8103 14.8679 14.836 14.9206C14.885 14.9032 14.9277 14.8959 14.9527 14.8922C15.0292 14.8809 15.1212 14.8801 15.1944 14.8797C15.3325 14.8788 15.4665 14.8924 15.5884 14.9252C15.7054 14.9567 15.8405 15.0137 15.9492 15.1211C16.07 15.2405 16.146 15.4135 16.1204 15.61C16.1108 15.6838 16.0882 15.7504 16.0584 15.8096C16.1034 15.8281 16.1485 15.8485 16.1928 15.87C16.3451 15.9438 16.512 16.041 16.666 16.142C16.8191 16.2424 16.9713 16.3542 17.0903 16.46C17.1488 16.512 17.2099 16.5719 17.26 16.6357C17.2852 16.6677 17.3145 16.7094 17.3392 16.759C17.362 16.8048 17.3949 16.8851 17.3955 16.9872C17.3965 17.1473 17.328 17.3114 17.2059 17.4276C17.2201 17.4284 17.2337 17.4296 17.2468 17.4308C17.3721 17.4432 17.5033 17.4775 17.6192 17.5198C17.7343 17.5618 17.8592 17.6209 17.9645 17.6965ZM13.811 9.52063C13.8573 9.54705 13.9041 9.57676 13.9493 9.60966C13.8816 9.42911 13.8153 9.25432 13.7504 9.08538C13.7016 9.21833 13.6111 9.31681 13.5023 9.38282C13.6145 9.42026 13.7199 9.46855 13.811 9.52063ZM13.4135 8.26657C13.4204 8.27065 13.4272 8.27484 13.434 8.27915C13.2706 7.87298 13.1181 7.51045 12.9767 7.19212C12.8679 6.94718 12.7664 6.73022 12.6725 6.5409C12.6291 6.60542 12.5762 6.64874 12.5234 6.67777C12.6906 7.06593 12.7772 7.60051 12.7895 8.20447C12.9765 8.14077 13.2054 8.14117 13.4135 8.26657ZM12.1377 5.93851C12.1378 5.93583 12.1378 5.9332 12.1378 5.93058L12.1111 5.9731L12.1013 5.98882L12.0815 6.02024C12.0941 6.03092 12.1062 6.04133 12.1178 6.05146C12.1251 6.02972 12.1305 6.00712 12.1338 5.98391C12.1358 5.97084 12.1369 5.95823 12.1374 5.9461C12.1376 5.94354 12.1376 5.94102 12.1377 5.93851ZM13.6408 11.4332C13.6417 11.4352 13.6417 11.4356 13.6408 11.4332V11.4332ZM16.4786 17.4958C16.4423 17.4765 16.4051 17.4544 16.3679 17.4308C16.4466 17.5238 16.5305 17.62 16.621 17.7211C16.6429 17.6796 16.6704 17.6396 16.7037 17.6021L16.7207 17.583L16.7215 17.5822C16.6719 17.5748 16.6311 17.5619 16.604 17.5522C16.558 17.5357 16.5153 17.5153 16.4786 17.4958ZM16.3247 19.9825C16.1236 19.9912 15.9494 19.991 15.8069 19.9803C15.7217 19.974 15.6372 19.9632 15.56 19.9446C15.4936 19.9285 15.3831 19.8956 15.2868 19.8155C15.2335 19.7711 15.1723 19.702 15.137 19.6027C15.1001 19.4992 15.1033 19.3962 15.1287 19.3087C15.1481 19.2419 15.1795 19.1862 15.213 19.1413C15.2098 19.1428 15.2066 19.1444 15.2034 19.146L15.2009 19.1472L15.1984 19.1484C14.9869 19.249 14.7964 19.3222 14.6366 19.3595C14.5581 19.3778 14.4672 19.3923 14.3751 19.388C14.2948 19.3843 14.1325 19.3627 14.0045 19.2274C13.8549 19.0695 13.8591 18.8768 13.8871 18.762C13.9132 18.655 13.9676 18.5664 14.0123 18.5041C14.0646 18.4314 14.1322 18.356 14.2115 18.279C14.1798 18.2473 14.1542 18.2153 14.1349 18.1873C14.0535 18.0695 14.006 17.9221 14.0051 17.7692C14.0042 17.6163 14.0499 17.4683 14.1298 17.3496C14.1475 17.3233 14.1706 17.2934 14.1991 17.2635C14.1434 17.1674 14.0883 17.0704 14.0367 16.9772C13.9439 17.1245 13.8512 17.2484 13.7613 17.3435C13.7068 17.4012 13.642 17.4604 13.5682 17.5065C13.5068 17.5448 13.3721 17.6169 13.2006 17.5922C12.9783 17.5602 12.8563 17.3967 12.8109 17.2627C12.7725 17.1496 12.7772 17.0391 12.7857 16.9653C12.8035 16.8092 12.8626 16.6243 12.9474 16.4242C13.023 16.2377 13.0736 16.0938 13.1036 15.9821C13.1192 15.9239 13.1275 15.8807 13.1317 15.8497C12.9499 15.8058 12.7429 15.7032 12.6342 15.464C12.5415 15.26 12.5627 15.034 12.588 14.8673L12.5886 14.8635L12.5892 14.8597C12.6029 14.779 12.5953 14.7266 12.579 14.6838C12.5615 14.6378 12.5228 14.5735 12.4313 14.4886C12.2627 14.3385 12.0745 14.1542 12.0135 13.8849C11.9554 13.6285 12.0335 13.3744 12.1036 13.1597L12.1066 13.1505L12.1101 13.1414C12.1486 13.0395 12.1684 12.9732 12.1776 12.9276C12.1826 12.9026 12.1834 12.8887 12.1834 12.8827C12.1771 12.8712 12.1521 12.8336 12.0692 12.7516C12.0008 12.6841 11.9189 12.6221 11.846 12.5796C11.8105 12.5589 11.7833 12.5464 11.7663 12.54C11.6229 12.538 11.459 12.5133 11.3159 12.4265C11.1349 12.3169 11.0227 12.1268 11.0292 11.9049C11.0345 11.7198 11.1208 11.5635 11.2029 11.4523C11.2317 11.4133 11.2637 11.3749 11.2983 11.3371C11.2829 11.3203 11.268 11.3019 11.254 11.2816C11.1335 11.1071 11.1623 10.9235 11.1834 10.838C11.1967 10.7842 11.2165 10.7309 11.2378 10.6816C11.2337 10.6816 11.2295 10.6816 11.2253 10.6816C11.0316 10.6828 10.8254 10.6471 10.6596 10.5308C10.4704 10.398 10.3572 10.1684 10.4146 9.91575C10.4635 9.70012 10.6179 9.55159 10.7616 9.46258C10.8437 9.41181 10.9358 9.37126 11.0355 9.34096L10.9424 9.23058C10.7477 9.01238 10.5906 8.82058 10.4775 8.6563C10.3765 8.50956 10.2641 8.32101 10.2443 8.12471C10.2327 8.00965 10.2501 7.85832 10.3549 7.72416C10.4556 7.59535 10.5904 7.54258 10.6893 7.52084C10.7046 7.51747 10.7202 7.51461 10.7358 7.51222C10.5743 7.34259 10.4251 7.16949 10.3125 7.02546C10.2538 6.95049 10.2005 6.8777 10.1598 6.814C10.1398 6.78278 10.1179 6.74625 10.0995 6.70813L10.0985 6.70607C10.0878 6.68404 10.0449 6.59621 10.0443 6.48605C10.0428 6.24654 10.1817 6.08194 10.2982 5.99299C10.4147 5.90413 10.5506 5.85413 10.6712 5.82959C10.7931 5.80479 10.9336 5.79897 11.0703 5.82922C11.1332 5.84314 11.2086 5.86808 11.2824 5.91126C11.2856 5.81035 11.3202 5.69749 11.4169 5.59964C11.5343 5.48075 11.677 5.45518 11.7647 5.4527C11.774 5.45244 11.7831 5.45241 11.7921 5.45258C11.648 5.38763 11.5017 5.34332 11.3866 5.32759L11.3828 5.32708L11.379 5.32648C11.1252 5.2871 10.8551 5.23168 10.6599 5.07741C10.5879 5.02062 10.5335 4.95758 10.4924 4.8916C10.4824 4.97405 10.4605 5.05769 10.4219 5.1409C10.3137 5.37396 10.1078 5.52393 9.92114 5.64447C9.5856 5.86834 9.32877 6.31923 9.24518 7.14178C9.16177 7.96307 9.26068 9.08067 9.5618 10.5164C10.1171 13.1442 11.3522 16.1417 12.6881 18.4788C13.3561 19.6474 14.0402 20.6348 14.665 21.3231C14.9777 21.6676 15.2656 21.926 15.5193 22.0951C15.7786 22.2678 15.9654 22.3227 16.0854 22.322C16.321 22.3206 16.537 22.417 16.7081 22.5334C16.8844 22.6532 17.0462 22.8159 17.1813 23.0006C17.2698 23.1221 17.3598 23.2498 17.4249 23.3845C17.4392 23.3329 17.4564 23.2779 17.4764 23.2293C17.4865 23.205 17.5053 23.1623 17.5351 23.1187C17.5497 23.0973 17.5783 23.0586 17.6236 23.0213C17.6379 23.0094 17.658 22.9944 17.6837 22.9795C17.6805 22.9789 17.6774 22.9782 17.6743 22.9775C17.6184 22.9646 17.4099 22.9104 17.3193 22.6879C17.2301 22.4687 17.3377 22.2856 17.3666 22.2388C17.409 22.1702 17.4641 22.1106 17.5077 22.0664C17.5561 22.0175 17.5699 21.9832 17.5747 21.9633C17.5793 21.9439 17.5827 21.9086 17.5621 21.8452C17.5151 21.701 17.3646 21.4759 17.0228 21.1623L17.021 21.1607L17.0192 21.159C16.8516 21.0017 16.7126 20.8703 16.6094 20.761C16.5134 20.6594 16.4065 20.5349 16.3483 20.3895C16.2921 20.2491 16.2882 20.1107 16.3247 19.9825ZM17.2916 24.4881C17.2982 24.4964 17.3149 24.5118 17.3452 24.5284C17.3245 24.4793 17.3121 24.4319 17.3043 24.3911C17.2876 24.4299 17.2846 24.4547 17.2845 24.4659C17.2843 24.4773 17.286 24.481 17.2916 24.4881ZM14.3643 17.8191C14.3786 17.8413 14.4121 17.8802 14.466 17.9079C14.4459 17.867 14.4334 17.8181 14.4331 17.7666C14.4329 17.7347 14.4374 17.7037 14.4456 17.6749C14.44 17.6658 14.4343 17.6567 14.4286 17.6474C14.3957 17.6716 14.3742 17.6981 14.3636 17.715C14.3516 17.7341 14.3471 17.7485 14.3454 17.755C14.3437 17.762 14.3436 17.7672 14.3436 17.7672C14.3436 17.7672 14.3437 17.7724 14.3456 17.7793C14.3473 17.7858 14.352 17.8001 14.3643 17.8191ZM12.1105 5.92621C12.0835 5.94023 12.0561 5.95849 12.0298 5.98229C12.0424 5.99088 12.0551 5.99992 12.0678 6.00946L12.1105 5.92621ZM12.074 5.72759L12.0751 5.72874C12.0723 5.7254 12.0716 5.725 12.074 5.72759ZM14.1767 12.5016L14.1815 12.4989L14.1807 12.3637C14.1096 12.3641 14.0594 12.3859 14.036 12.3983C14.0225 12.4054 14.0126 12.4123 14.0058 12.4175L14.1767 12.5016ZM14.8886 14.239C14.8904 14.2379 14.891 14.2383 14.8886 14.239L14.8852 14.2398L14.8886 14.239Z"/>
</mask>
<path d="M12.9185 9.87577L12.9199 9.87686L13.2261 9.48156L13.2247 9.48047L12.9185 9.87577ZM15.1212 15.3099L15.1223 15.3113L15.5174 15.0048L15.5163 15.0034L15.1212 15.3099ZM15.7533 19.1102C15.6569 19.3408 15.6569 19.3408 15.657 19.3409C15.657 19.3409 15.657 19.3409 15.6571 19.3409C15.6571 19.3409 15.6572 19.3409 15.6572 19.341C15.6573 19.341 15.6574 19.341 15.6575 19.3411C15.6577 19.3412 15.6579 19.3412 15.6581 19.3413C15.6585 19.3415 15.6589 19.3417 15.6593 19.3418C15.6601 19.3421 15.6609 19.3425 15.6617 19.3428C15.6634 19.3434 15.665 19.344 15.6666 19.3446C15.6698 19.3459 15.6731 19.347 15.6764 19.3481C15.683 19.3503 15.6898 19.3522 15.6968 19.354L15.8206 18.8696C15.8238 18.8704 15.8279 18.8715 15.8327 18.8731C15.8352 18.8739 15.8378 18.8749 15.8406 18.8759C15.8421 18.8764 15.8435 18.877 15.845 18.8776C15.8458 18.8779 15.8466 18.8782 15.8473 18.8785C15.8477 18.8787 15.8481 18.8788 15.8485 18.879C15.8487 18.8791 15.8489 18.8792 15.8491 18.8792C15.8492 18.8793 15.8493 18.8793 15.8494 18.8794C15.8495 18.8794 15.8495 18.8794 15.8496 18.8794C15.8496 18.8794 15.8496 18.8795 15.8496 18.8795C15.8497 18.8795 15.8497 18.8795 15.7533 19.1102ZM13.6357 17.0694C13.8836 17.1017 13.8836 17.1016 13.8836 17.1016C13.8836 17.1016 13.8836 17.1016 13.8836 17.1016C13.8837 17.1015 13.8837 17.1015 13.8837 17.1015C13.8837 17.1014 13.8837 17.1013 13.8837 17.1013C13.8837 17.1011 13.8837 17.101 13.8837 17.1008C13.8838 17.1005 13.8838 17.1003 13.8839 17.1C13.8839 17.0994 13.884 17.0988 13.8841 17.0982C13.8842 17.097 13.8843 17.0958 13.8845 17.0945C13.8847 17.092 13.885 17.0893 13.8852 17.0864C13.8856 17.0807 13.8859 17.0744 13.8859 17.0676L13.386 17.0625C13.386 17.0585 13.3862 17.0544 13.3865 17.0502C13.3866 17.0481 13.3868 17.0459 13.387 17.0438C13.3872 17.0427 13.3873 17.0416 13.3874 17.0405C13.3875 17.0399 13.3875 17.0394 13.3876 17.0388C13.3876 17.0386 13.3877 17.0383 13.3877 17.038C13.3877 17.0379 13.3877 17.0377 13.3878 17.0376C13.3878 17.0375 13.3878 17.0374 13.3878 17.0374C13.3878 17.0373 13.3878 17.0373 13.3878 17.0373C13.3878 17.0373 13.3878 17.0372 13.3878 17.0372C13.3878 17.0372 13.3878 17.0372 13.6357 17.0694ZM14.9159 19.1412L14.9173 19.1388L14.4863 18.8853L14.4849 18.8877L14.9159 19.1412ZM11.6919 12.7782L11.694 12.7787L11.8199 12.2949L11.8178 12.2943L11.6919 12.7782ZM11.9529 12.9788L11.9537 12.9808L12.417 12.7927L12.4162 12.7908L11.9529 12.9788ZM14.4777 14.2255L14.4792 14.2249L14.3057 13.756L14.3042 13.7566L14.4777 14.2255ZM14.6768 13.8095C14.4866 13.6473 14.4865 13.6473 14.4865 13.6473C14.4865 13.6474 14.4865 13.6474 14.4865 13.6474C14.4865 13.6474 14.4864 13.6475 14.4864 13.6475C14.4863 13.6476 14.4863 13.6476 14.4862 13.6477C14.4861 13.6479 14.486 13.648 14.4859 13.6481C14.4856 13.6484 14.4854 13.6487 14.4851 13.649C14.4847 13.6496 14.4842 13.6501 14.4837 13.6507C14.4827 13.6519 14.4817 13.6532 14.4807 13.6544C14.4787 13.657 14.4766 13.6597 14.4745 13.6626C14.4703 13.6684 14.4658 13.6749 14.4614 13.6821L14.8874 13.9439C14.8844 13.9488 14.8812 13.9535 14.8778 13.9581C14.8761 13.9604 14.8744 13.9627 14.8726 13.9649C14.8717 13.9661 14.8708 13.9672 14.8699 13.9683C14.8694 13.9689 14.869 13.9694 14.8685 13.97C14.8683 13.9702 14.8681 13.9705 14.8678 13.9708C14.8677 13.9709 14.8676 13.9711 14.8675 13.9712C14.8674 13.9713 14.8673 13.9713 14.8673 13.9714C14.8673 13.9715 14.8672 13.9715 14.8672 13.9715C14.8672 13.9715 14.8672 13.9716 14.8672 13.9716C14.8671 13.9716 14.8671 13.9716 14.6768 13.8095ZM14.9204 14.2344C14.9383 13.985 14.9382 13.985 14.9382 13.985C14.9382 13.985 14.9381 13.985 14.9381 13.985C14.938 13.985 14.938 13.985 14.9379 13.985C14.9378 13.985 14.9377 13.985 14.9376 13.985C14.9373 13.985 14.9371 13.9849 14.9368 13.9849C14.9364 13.9849 14.9359 13.9849 14.9354 13.9848C14.9344 13.9848 14.9335 13.9847 14.9325 13.9847C14.9306 13.9846 14.9287 13.9845 14.9267 13.9845C14.9229 13.9844 14.919 13.9843 14.9152 13.9844C14.9074 13.9845 14.8996 13.985 14.8916 13.9857L14.9387 14.4835C14.9344 14.4839 14.9292 14.4842 14.9231 14.4843C14.9201 14.4844 14.9169 14.4844 14.9134 14.4843C14.9117 14.4842 14.91 14.4842 14.9081 14.4841C14.9072 14.484 14.9063 14.484 14.9054 14.4839C14.9049 14.4839 14.9044 14.4839 14.904 14.4838C14.9037 14.4838 14.9035 14.4838 14.9033 14.4838C14.9031 14.4838 14.903 14.4838 14.9029 14.4838C14.9028 14.4838 14.9028 14.4838 14.9027 14.4838C14.9027 14.4838 14.9026 14.4837 14.9026 14.4837C14.9026 14.4837 14.9025 14.4837 14.9204 14.2344ZM14.249 12.4697L14.3996 12.9465L14.4387 12.9341L14.4753 12.9156L14.249 12.4697ZM14.3852 12.6043L14.8338 12.8251L14.8543 12.7835L14.8668 12.7388L14.3852 12.6043ZM14.3489 12.6666L13.9356 12.3853L13.9354 12.3856L14.3489 12.6666ZM14.3221 12.7024L13.9373 12.3831L13.9371 12.3834L14.3221 12.7024ZM14.1832 12.7917L14.1446 13.2903L14.1655 13.2919L14.1865 13.2917L14.1832 12.7917ZM14.1319 12.5336L14.4587 12.912L15.164 12.3028L14.2664 12.052L14.1319 12.5336ZM13.9729 12.4892L14.1075 12.0076L13.6257 11.873L13.4913 12.3549L13.9729 12.4892ZM14.0666 12.7778L13.7152 13.1334L13.7154 13.1337L14.0666 12.7778ZM14.1784 12.8542L13.9825 13.3142L13.9857 13.3155L14.1784 12.8542ZM14.1836 12.8563L13.9909 13.3177L13.9954 13.3196L14.1836 12.8563ZM14.3758 12.8731L14.475 13.3632L14.4753 13.3631L14.3758 12.8731ZM14.3972 12.8681L14.5277 13.3507L14.6023 13.3306L14.6673 13.2888L14.3972 12.8681ZM14.434 12.8343L14.8251 13.1458L14.8253 13.1456L14.434 12.8343ZM14.4768 12.737L13.9871 12.6358L13.987 12.6365L14.4768 12.737ZM14.4814 12.6517L13.9831 12.6926L13.9832 12.6942L14.4814 12.6517ZM14.4789 12.6305L13.9846 12.706L13.9848 12.707L14.4789 12.6305ZM14.4106 12.4764L14.8004 12.1633L14.8002 12.1631L14.4106 12.4764ZM14.2162 12.3649L14.2551 11.8665L13.5186 11.8091L13.739 12.5141L14.2162 12.3649ZM14.2069 12.4859L13.7084 12.4474L13.6429 13.295L14.4155 12.9403L14.2069 12.4859ZM14.2135 12.3998L14.6594 12.1736L13.8524 10.5828L13.715 12.3613L14.2135 12.3998ZM18.7949 19.371L19.266 19.2035L19.2657 19.2027L18.7949 19.371ZM18.7939 19.3682L18.3194 19.5262L18.3231 19.5365L18.7939 19.3682ZM18.793 19.3654L19.2674 19.2074L19.2664 19.2044L18.793 19.3654ZM18.2451 18.1236L18.6897 17.8949L17.7489 18.1852L18.2451 18.1236ZM18.249 18.1838L18.749 18.1808L18.749 18.1804L18.249 18.1838ZM18.1104 18.5353L17.7419 18.1973L17.7417 18.1975L18.1104 18.5353ZM17.9068 18.682L18.1201 19.1343L18.1202 19.1343L17.9068 18.682ZM17.5945 18.7642L17.5483 18.2663L16.5352 18.3603L17.2286 19.1049L17.5945 18.7642ZM19.1384 20.7932L18.6817 20.9966L18.6818 20.9968L19.1384 20.7932ZM19.2237 21.0145L18.7477 21.1677L19.7207 20.96L19.2237 21.0145ZM17.9645 17.6965L18.2562 17.2904L18.2562 17.2904L17.9645 17.6965ZM18.0612 17.7765L17.7149 18.1371L18.5004 17.5374L18.0612 17.7765ZM17.146 16.2575L17.5633 15.9821L17.5632 15.9819L17.146 16.2575ZM17.1449 16.2557L16.7262 16.5291L16.7277 16.5313L17.1449 16.2557ZM14.3261 10.6339L13.8555 10.8027L13.8567 10.806L14.3261 10.6339ZM14.3254 10.6319L14.796 10.4631L14.7956 10.4619L14.3254 10.6319ZM14.2501 10.4242L14.7199 10.2533L14.3593 9.26223L13.8203 10.1687L14.2501 10.4242ZM14.049 10.6026L13.8365 10.15L13.1652 10.4652L13.7091 10.9693L14.049 10.6026ZM14.2996 10.8784L14.7019 10.5814L14.7018 10.5813L14.2996 10.8784ZM14.4168 11.0717L13.9635 11.2827L13.9636 11.2828L14.4168 11.0717ZM14.4842 11.3512L13.9842 11.3541V11.3541L14.4842 11.3512ZM14.3857 11.7089L13.9756 11.423L13.9755 11.423L14.3857 11.7089ZM14.1271 11.8969L14.2716 12.3755L14.2718 12.3755L14.1271 11.8969ZM13.8762 11.9083L13.7836 12.3997L13.7838 12.3997L13.8762 11.9083ZM13.586 11.7906L13.8354 11.3573L13.8353 11.3572L13.586 11.7906ZM13.3958 11.6703L13.6755 11.2558L12.4053 10.3987L12.9255 11.84L13.3958 11.6703ZM13.6875 12.4204L13.2254 12.6114L13.6493 13.637L14.1367 12.64L13.6875 12.4204ZM14.0933 12.0705L14.2611 12.5415L14.2732 12.5372L14.2851 12.5323L14.0933 12.0705ZM14.6684 12.1688L15.0198 11.8131L15.0198 11.8131L14.6684 12.1688ZM14.7975 12.7195L14.3159 12.5849L14.3159 12.585L14.7975 12.7195ZM14.7868 12.7578L15.2353 12.9788L15.2559 12.9371L15.2684 12.8923L14.7868 12.7578ZM14.7692 12.7935L14.3207 12.5724L14.3206 12.5726L14.7692 12.7935ZM14.586 13.046L14.2412 12.684L14.2411 12.684L14.586 13.046ZM14.1858 13.2198L14.1829 12.7198L14.1826 12.7198L14.1858 13.2198ZM14.168 13.2199L14.1295 13.7184L14.1503 13.72L14.1712 13.7199L14.168 13.2199ZM14.1502 13.2185L14.1118 13.717L14.1118 13.717L14.1502 13.2185ZM14.0227 13.1957L14.1606 12.7151L13.1257 12.4181L13.5665 13.4004L14.0227 13.1957ZM14.2414 13.6745L13.7878 13.8849L14.1039 14.5663L14.6105 14.0117L14.2414 13.6745ZM14.7104 13.4017L14.8126 13.8912L14.8148 13.8907L14.7104 13.4017ZM15.2109 13.444L14.9869 13.891L14.9869 13.891L15.2109 13.444ZM15.4523 13.6857L15.9015 13.4661L15.9015 13.4661L15.4523 13.6857ZM15.5006 14.0008L15.9958 14.07L15.9958 14.07L15.5006 14.0008ZM15.2921 14.4066L15.6577 14.7476L15.6577 14.7476L15.2921 14.4066ZM14.9392 14.6705L14.7042 14.2291L14.694 14.2348L14.9392 14.6705ZM14.7599 14.7641L14.5517 14.3095L14.0869 14.5223L14.31 14.9823L14.7599 14.7641ZM14.836 14.9206L14.3865 15.1396L14.5824 15.5415L15.0036 15.3917L14.836 14.9206ZM14.9527 14.8922L15.0257 15.3869L15.0259 15.3868L14.9527 14.8922ZM15.1944 14.8797L15.1973 15.3797L15.1974 15.3797L15.1944 14.8797ZM15.5884 14.9252L15.7182 14.4423L15.7182 14.4423L15.5884 14.9252ZM15.9492 15.1211L16.3006 14.7654L16.3006 14.7654L15.9492 15.1211ZM16.1204 15.61L16.6162 15.6749L16.6162 15.6747L16.1204 15.61ZM16.0584 15.8096L15.6116 15.5853L15.3697 16.0672L15.8684 16.2721L16.0584 15.8096ZM16.1928 15.87L16.4109 15.4201L16.4108 15.42L16.1928 15.87ZM16.666 16.142L16.9401 15.7238L16.9401 15.7238L16.666 16.142ZM17.0903 16.46L16.7581 16.8337L16.7581 16.8337L17.0903 16.46ZM17.26 16.6357L16.8669 16.9446L16.8669 16.9447L17.26 16.6357ZM17.3392 16.759L17.7869 16.5364L17.7869 16.5363L17.3392 16.759ZM17.3955 16.9872L16.8955 16.9901L16.8955 16.9902L17.3955 16.9872ZM17.2059 17.4276L16.8613 17.0654L16.0292 17.8572L17.1757 17.9267L17.2059 17.4276ZM17.2468 17.4308L17.2959 16.9333L17.2956 16.9332L17.2468 17.4308ZM17.6192 17.5198L17.4477 17.9895L17.4477 17.9895L17.6192 17.5198ZM13.811 9.52063L13.563 9.95479L13.5632 9.95491L13.811 9.52063ZM13.9493 9.60966L13.6553 10.0141L15.0023 10.9933L14.4175 9.43408L13.9493 9.60966ZM13.7504 9.08538L14.2172 8.90616L13.7403 7.66405L13.2812 8.91283L13.7504 9.08538ZM13.5023 9.38282L13.243 8.95533L12.3198 9.51535L13.344 9.85711L13.5023 9.38282ZM13.4135 8.26657L13.1554 8.6948L13.1583 8.69657L13.4135 8.26657ZM13.434 8.27915L13.1661 8.70135L14.4774 9.53327L13.8978 8.09256L13.434 8.27915ZM12.9767 7.19212L13.4336 6.98914L13.4336 6.98912L12.9767 7.19212ZM12.6725 6.5409L13.1205 6.31875L12.7384 5.54822L12.2578 6.26157L12.6725 6.5409ZM12.5234 6.67777L12.2827 6.2395L11.8844 6.45822L12.0642 6.87557L12.5234 6.67777ZM12.7895 8.20447L12.2896 8.2146L12.3034 8.89819L12.9507 8.67778L12.7895 8.20447ZM12.1377 5.93851L12.6375 5.95555L12.6376 5.94915L12.1377 5.93851ZM12.1378 5.93058L12.6378 5.93601L12.6571 4.164L11.7144 5.66462L12.1378 5.93058ZM12.1111 5.9731L11.6877 5.70714L11.6877 5.70718L12.1111 5.9731ZM12.1013 5.98882L11.6778 5.72291L11.6778 5.72303L12.1013 5.98882ZM12.0815 6.02024L11.658 5.75445L11.4278 6.12138L11.7581 6.40157L12.0815 6.02024ZM12.1178 6.05146L11.7887 6.42787L12.3538 6.92195L12.592 6.21014L12.1178 6.05146ZM12.1338 5.98391L11.6391 5.91154L11.6389 5.91269L12.1338 5.98391ZM12.1374 5.9461L12.6369 5.96843L12.637 5.9683L12.1374 5.9461ZM16.4786 17.4958L16.2438 17.9372L16.2442 17.9374L16.4786 17.4958ZM16.3679 17.4308L16.6359 17.0087L15.9863 17.7539L16.3679 17.4308ZM16.621 17.7211L16.2483 18.0544L16.728 18.5908L17.0634 17.9542L16.621 17.7211ZM16.7037 17.6021L17.0774 17.9343L17.0776 17.9341L16.7037 17.6021ZM16.7207 17.583L16.3928 17.2055L16.3683 17.2267L16.3468 17.251L16.7207 17.583ZM16.7215 17.5822L17.0494 17.9597L17.8688 17.2481L16.7954 17.0877L16.7215 17.5822ZM16.604 17.5522L16.4357 18.023L16.4358 18.023L16.604 17.5522ZM16.3247 19.9825L16.8056 20.1192L16.9948 19.4532L16.3031 19.483L16.3247 19.9825ZM15.8069 19.9803L15.7696 20.479L15.7697 20.479L15.8069 19.9803ZM15.56 19.9446L15.4424 20.4305L15.4425 20.4306L15.56 19.9446ZM15.2868 19.8155L14.9669 20.1997L14.9671 20.1999L15.2868 19.8155ZM15.137 19.6027L15.608 19.4351L15.608 19.435L15.137 19.6027ZM15.1287 19.3087L14.6485 19.1694L14.6484 19.1696L15.1287 19.3087ZM15.213 19.1413L15.6138 19.4402L14.9926 18.6925L15.213 19.1413ZM15.2034 19.146L15.421 19.5962L15.4254 19.594L15.2034 19.146ZM15.2009 19.1472L15.4182 19.5975L15.4185 19.5974L15.2009 19.1472ZM15.1984 19.1484L15.4131 19.6L15.4157 19.5987L15.1984 19.1484ZM14.6366 19.3595L14.7501 19.8465L14.7502 19.8464L14.6366 19.3595ZM14.3751 19.388L14.3521 19.8875L14.3522 19.8875L14.3751 19.388ZM14.0045 19.2274L14.3676 18.8837L14.3675 18.8837L14.0045 19.2274ZM13.8871 18.762L14.3728 18.8806L14.3729 18.8804L13.8871 18.762ZM14.0123 18.5041L14.4184 18.7959L14.4184 18.7958L14.0123 18.5041ZM14.2115 18.279L14.5597 18.6378L14.9245 18.2839L14.5646 17.9249L14.2115 18.279ZM14.1349 18.1873L14.5464 17.9033L14.5463 17.9032L14.1349 18.1873ZM14.1298 17.3496L14.5447 17.6287L14.5448 17.6286L14.1298 17.3496ZM14.1991 17.2635L14.5612 17.6083L14.8198 17.3368L14.6316 17.0126L14.1991 17.2635ZM14.0367 16.9772L14.4741 16.7351L14.0645 15.9949L13.6136 16.7107L14.0367 16.9772ZM13.7613 17.3435L13.398 17L13.398 17L13.7613 17.3435ZM13.5682 17.5065L13.833 17.9306L13.8331 17.9306L13.5682 17.5065ZM13.2006 17.5922L13.2719 17.0973L13.2718 17.0973L13.2006 17.5922ZM12.8109 17.2627L12.3373 17.4232L12.3374 17.4234L12.8109 17.2627ZM12.7857 16.9653L13.2824 17.022L13.2824 17.022L12.7857 16.9653ZM12.9474 16.4242L13.4078 16.6193L13.4107 16.6122L12.9474 16.4242ZM13.1036 15.9821L13.5865 16.1119L13.5865 16.1118L13.1036 15.9821ZM13.1317 15.8497L13.6272 15.9167L13.6877 15.4695L13.249 15.3636L13.1317 15.8497ZM12.6342 15.464L13.0894 15.2571L13.0894 15.2571L12.6342 15.464ZM12.588 14.8673L12.094 14.7898L12.0936 14.7923L12.588 14.8673ZM12.5886 14.8635L12.0953 14.7819L12.0946 14.7859L12.5886 14.8635ZM12.5892 14.8597L12.0963 14.7757L12.0959 14.7781L12.5892 14.8597ZM12.579 14.6838L13.0465 14.5064L13.0464 14.5062L12.579 14.6838ZM12.4313 14.4886L12.7714 14.122L12.7638 14.1152L12.4313 14.4886ZM12.0135 13.8849L11.5259 13.9954L11.5259 13.9954L12.0135 13.8849ZM12.1036 13.1597L11.6284 13.0042L11.6283 13.0045L12.1036 13.1597ZM12.1066 13.1505L11.6391 12.9732L11.635 12.984L11.6314 12.995L12.1066 13.1505ZM12.1101 13.1414L12.5776 13.3187L12.5778 13.3181L12.1101 13.1414ZM12.1776 12.9276L12.6677 13.0267L12.6677 13.0267L12.1776 12.9276ZM12.1834 12.8827L12.6834 12.8851L12.6841 12.7547L12.6209 12.6406L12.1834 12.8827ZM12.0692 12.7516L11.7177 13.1073L11.7177 13.1073L12.0692 12.7516ZM11.846 12.5796L12.098 12.1478L12.098 12.1478L11.846 12.5796ZM11.7663 12.54L11.9415 12.0717L11.8602 12.0413L11.7734 12.0401L11.7663 12.54ZM11.3159 12.4265L11.5751 11.999L11.575 11.9989L11.3159 12.4265ZM11.0292 11.9049L11.529 11.9195L11.529 11.9194L11.0292 11.9049ZM11.2029 11.4523L10.8006 11.1553L10.8006 11.1554L11.2029 11.4523ZM11.2983 11.3371L11.6666 11.6753L11.9778 11.3365L11.666 10.9982L11.2983 11.3371ZM11.254 11.2816L10.8425 11.5657L10.8428 11.566L11.254 11.2816ZM11.1834 10.838L10.698 10.7182L10.698 10.7183L11.1834 10.838ZM11.2378 10.6816L11.697 10.8794L11.9976 10.1816H11.2378V10.6816ZM11.2253 10.6816V10.1816L11.2223 10.1816L11.2253 10.6816ZM10.6596 10.5308L10.3724 10.94L10.3724 10.9401L10.6596 10.5308ZM10.4146 9.91575L10.9022 10.0264L10.9022 10.0264L10.4146 9.91575ZM10.7616 9.46258L10.4985 9.03744L10.4985 9.03746L10.7616 9.46258ZM11.0355 9.34096L11.1809 9.81935L11.9069 9.59868L11.4177 9.01862L11.0355 9.34096ZM10.9424 9.23058L11.3248 8.90811L11.3155 8.8977L10.9424 9.23058ZM10.4775 8.6563L10.8894 8.37279L10.8893 8.37277L10.4775 8.6563ZM10.2443 8.12471L10.7418 8.07466L10.7418 8.07461L10.2443 8.12471ZM10.3549 7.72416L9.96095 7.41626L9.96095 7.41627L10.3549 7.72416ZM10.6893 7.52084L10.582 7.03249L10.582 7.03249L10.6893 7.52084ZM10.7358 7.51222L10.8114 8.00647L11.7587 7.86152L11.0979 7.16745L10.7358 7.51222ZM10.3125 7.02546L10.7063 6.71739L10.7062 6.7173L10.3125 7.02546ZM10.1598 6.814L9.73861 7.08348L9.73868 7.0836L10.1598 6.814ZM10.0995 6.70813L10.5496 6.49047L10.5492 6.48959L10.0995 6.70813ZM10.0985 6.70607L10.5482 6.48753L10.548 6.48714L10.0985 6.70607ZM10.0443 6.48605L10.5443 6.48307L10.5443 6.48302L10.0443 6.48605ZM10.2982 5.99299L9.99489 5.59549L9.9948 5.59556L10.2982 5.99299ZM10.6712 5.82959L10.7709 6.31955L10.7709 6.31955L10.6712 5.82959ZM11.0703 5.82922L11.1784 5.34104L11.1783 5.34102L11.0703 5.82922ZM11.2824 5.91126L11.0301 6.34291L11.7558 6.76718L11.7822 5.92695L11.2824 5.91126ZM11.4169 5.59964L11.7726 5.95106L11.7726 5.95105L11.4169 5.59964ZM11.7647 5.4527L11.7508 4.95289L11.7506 4.9529L11.7647 5.4527ZM11.7921 5.45258L11.7826 5.95249L11.9976 4.99676L11.7921 5.45258ZM11.3866 5.32759L11.4543 4.83219L11.4537 4.83211L11.3866 5.32759ZM11.3828 5.32708L11.3054 5.82117L11.3157 5.82256L11.3828 5.32708ZM11.379 5.32648L11.4563 4.8325L11.4556 4.83239L11.379 5.32648ZM10.6599 5.07741L10.9699 4.68511L10.9697 4.685L10.6599 5.07741ZM10.4924 4.8916L10.9168 4.62726L10.1679 3.42485L9.99612 4.83096L10.4924 4.8916ZM10.4219 5.1409L9.96841 4.93033L9.96841 4.93034L10.4219 5.1409ZM9.92114 5.64447L9.64987 5.22439L9.64364 5.22855L9.92114 5.64447ZM9.24518 7.14178L8.74775 7.09123L8.74774 7.09126L9.24518 7.14178ZM9.5618 10.5164L9.07245 10.619L9.07261 10.6198L9.5618 10.5164ZM12.6881 18.4788L12.254 18.727L12.254 18.727L12.6881 18.4788ZM14.665 21.3231L15.0352 20.987L15.0352 20.987L14.665 21.3231ZM15.5193 22.0951L15.7966 21.6789L15.7966 21.6789L15.5193 22.0951ZM16.0854 22.322L16.0884 22.822H16.0884L16.0854 22.322ZM16.7081 22.5334L16.427 22.9469L16.4271 22.9469L16.7081 22.5334ZM17.1813 23.0006L17.5853 22.7061L17.5849 22.7055L17.1813 23.0006ZM17.4249 23.3845L16.9748 23.6022L17.5525 24.7965L17.9067 23.518L17.4249 23.3845ZM17.4764 23.2293L17.0144 23.0382L17.0144 23.0382L17.4764 23.2293ZM17.5351 23.1187L17.1223 22.8365L17.1221 22.8367L17.5351 23.1187ZM17.6236 23.0213L17.3053 22.6356L17.3053 22.6357L17.6236 23.0213ZM17.6837 22.9795L17.9346 23.412L19.0602 22.759L17.7869 22.4903L17.6837 22.9795ZM17.6743 22.9775L17.7871 22.4904L17.7866 22.4902L17.6743 22.9775ZM17.3193 22.6879L16.8562 22.8764L16.8562 22.8764L17.3193 22.6879ZM17.3666 22.2388L17.7919 22.5017L17.792 22.5016L17.3666 22.2388ZM17.5077 22.0664L17.1521 21.715L17.152 21.7151L17.5077 22.0664ZM17.5747 21.9633L18.0607 22.0808L18.0607 22.0807L17.5747 21.9633ZM17.5621 21.8452L17.0866 22.0001L17.0867 22.0003L17.5621 21.8452ZM17.0228 21.1623L17.3608 20.7939L17.3584 20.7917L17.0228 21.1623ZM17.021 21.1607L16.6762 21.523L16.6854 21.5313L17.021 21.1607ZM17.0192 21.159L17.3639 20.7968L17.3614 20.7945L17.0192 21.159ZM16.6094 20.761L16.9729 20.4177L16.9729 20.4177L16.6094 20.761ZM16.3483 20.3895L16.8125 20.2036L16.8124 20.2036L16.3483 20.3895ZM17.2916 24.4881L16.8981 24.7966L16.9005 24.7996L17.2916 24.4881ZM17.3452 24.5284L17.1057 24.9673L18.3637 25.6536L17.8058 24.3337L17.3452 24.5284ZM17.3043 24.3911L17.7955 24.2977L17.4907 22.695L16.8451 24.1932L17.3043 24.3911ZM17.2845 24.4659L16.7845 24.4582L16.7845 24.4584L17.2845 24.4659ZM14.3643 17.8191L13.9439 18.0899L13.9442 18.0903L14.3643 17.8191ZM14.466 17.9079L14.2378 18.3527L15.5779 19.0402L14.9149 17.6878L14.466 17.9079ZM14.4331 17.7666L13.9331 17.7693L13.9331 17.7697L14.4331 17.7666ZM14.4456 17.6749L14.9267 17.811L14.9867 17.5989L14.8706 17.4116L14.4456 17.6749ZM14.4286 17.6474L14.8544 17.3854L14.57 16.9231L14.1326 17.2445L14.4286 17.6474ZM14.3636 17.715L13.9404 17.4488L13.9401 17.4492L14.3636 17.715ZM14.3454 17.755L13.861 17.6312L13.8608 17.6319L14.3454 17.755ZM14.3436 17.7672L13.8437 17.7589L13.8435 17.7699L13.8438 17.7808L14.3436 17.7672ZM14.3456 17.7793L13.8626 17.9085L13.8629 17.9096L14.3456 17.7793ZM12.1105 5.92621L12.5554 6.15427L13.2704 4.75933L11.8798 5.48263L12.1105 5.92621ZM12.0298 5.98229L11.6942 5.61166L11.2228 6.03849L11.7488 6.39586L12.0298 5.98229ZM12.0678 6.00946L11.7677 6.40935L12.2422 6.76549L12.5128 6.23751L12.0678 6.00946ZM12.074 5.72759L11.7065 6.06677L11.7114 6.07189L12.074 5.72759ZM12.0751 5.72874L11.7125 6.07303L12.46 5.40962L12.0751 5.72874ZM14.1767 12.5016L13.9558 12.9502L14.1941 13.0676L14.4248 12.9357L14.1767 12.5016ZM14.1815 12.4989L14.4296 12.933L14.6832 12.788L14.6815 12.4959L14.1815 12.4989ZM14.1807 12.3637L14.6807 12.3607L14.6777 11.8607L14.1777 11.8637L14.1807 12.3637ZM14.036 12.3983L13.8021 11.9564L13.802 11.9565L14.036 12.3983ZM14.0058 12.4175L13.7013 12.0209L13.0634 12.5107L13.7849 12.866L14.0058 12.4175ZM14.4753 12.9156C14.4192 12.9441 14.202 13.0127 14.016 12.8289C13.857 12.6717 13.8968 12.4945 13.9036 12.4699L14.8668 12.7388C14.9068 12.5955 14.9291 12.3253 14.719 12.1176C14.4819 11.8833 14.1801 11.944 14.0227 12.0239L14.4753 12.9156ZM13.9366 12.3836C13.9364 12.384 13.936 12.3848 13.9356 12.3853L14.7622 12.948C14.7885 12.9094 14.8127 12.8682 14.8338 12.8251L13.9366 12.3836ZM13.9354 12.3856C13.9356 12.3853 13.9362 12.3844 13.9373 12.3831L14.7069 13.0216C14.7266 12.9979 14.7452 12.9731 14.7625 12.9477L13.9354 12.3856ZM13.9371 12.3834C13.9381 12.3821 13.9499 12.3676 13.9771 12.3497C13.9997 12.3347 14.0707 12.2925 14.18 12.2918L14.1865 13.2917C14.3397 13.2907 14.4581 13.2304 14.5282 13.1841C14.6028 13.1348 14.6621 13.0757 14.7071 13.0214L13.9371 12.3834ZM14.2218 12.2932C14.2568 12.2959 14.332 12.3101 14.4086 12.3728C14.4903 12.4396 14.5384 12.5334 14.5512 12.6272C14.5739 12.7951 14.4857 12.8887 14.4587 12.912L13.8051 12.1552C13.666 12.2753 13.5237 12.4918 13.5602 12.7615C13.5798 12.9062 13.6518 13.0456 13.7756 13.1469C13.8944 13.244 14.0298 13.2814 14.1446 13.2903L14.2218 12.2932ZM14.2664 12.052L14.1075 12.0076L13.8384 12.9708L13.9974 13.0152L14.2664 12.052ZM13.4913 12.3549C13.4679 12.4387 13.3919 12.8139 13.7152 13.1334L14.4181 12.4221C14.4401 12.4439 14.4588 12.4813 14.4643 12.5224C14.4686 12.5543 14.4651 12.5857 14.4546 12.6235L13.4913 12.3549ZM13.7154 13.1337C13.796 13.2131 13.8864 13.2732 13.9825 13.3142L14.3744 12.3941C14.3961 12.4034 14.4106 12.4147 14.4178 12.4219L13.7154 13.1337ZM13.9857 13.3155L13.9909 13.3177L14.3763 12.3949L14.3711 12.3928L13.9857 13.3155ZM13.9954 13.3196C14.1829 13.3957 14.3572 13.3871 14.475 13.3632L14.2765 12.3831C14.2946 12.3794 14.33 12.3761 14.3718 12.3931L13.9954 13.3196ZM14.4753 13.3631C14.4935 13.3594 14.511 13.3553 14.5277 13.3507L14.2667 12.3854C14.2701 12.3845 14.2733 12.3837 14.2763 12.3831L14.4753 13.3631ZM14.6673 13.2888C14.7183 13.2561 14.7742 13.2098 14.8251 13.1458L14.0429 12.5228C14.0677 12.4916 14.0969 12.4667 14.127 12.4473L14.6673 13.2888ZM14.8253 13.1456C14.893 13.0605 14.9422 12.9565 14.9666 12.8376L13.987 12.6365C13.9931 12.6071 14.009 12.5654 14.0428 12.523L14.8253 13.1456ZM14.9664 12.8382C14.9809 12.7681 14.9865 12.6904 14.9796 12.6092L13.9832 12.6942C13.9818 12.6773 13.9825 12.6582 13.9871 12.6358L14.9664 12.8382ZM14.9797 12.6109C14.9782 12.5922 14.976 12.5732 14.973 12.554L13.9848 12.707C13.984 12.7021 13.9835 12.6973 13.9831 12.6926L14.9797 12.6109ZM14.9731 12.5549C14.9538 12.4281 14.902 12.2897 14.8004 12.1633L14.0207 12.7894C14.0009 12.7647 13.989 12.7346 13.9846 12.706L14.9731 12.5549ZM14.8002 12.1631C14.6153 11.9331 14.3779 11.876 14.2551 11.8665L14.1774 12.8634C14.1426 12.8607 14.1149 12.8535 14.0907 12.8425C14.0632 12.83 14.0385 12.8116 14.0209 12.7896L14.8002 12.1631ZM13.739 12.5141L13.7718 12.6189L14.7262 12.3205L14.6934 12.2157L13.739 12.5141ZM14.0983 11.993C14.0645 12.0037 14.031 12.0165 13.9983 12.0315L14.4155 12.9403C14.4092 12.9432 14.4038 12.9452 14.3996 12.9465L14.0983 11.993ZM14.7054 12.5244L14.712 12.4383L13.715 12.3613L13.7084 12.4474L14.7054 12.5244ZM13.7676 12.626L13.8031 12.696L14.6949 12.2435L14.6594 12.1736L13.7676 12.626ZM19.2657 19.2027L19.2647 19.1999L18.3231 19.5365L18.3241 19.5393L19.2657 19.2027ZM19.2683 19.2102L19.2674 19.2074L18.3186 19.5233L18.3195 19.5262L19.2683 19.2102ZM19.2664 19.2044C19.1352 18.8187 18.9328 18.3675 18.6897 17.8949L17.8005 18.3523C18.0313 18.801 18.2101 19.2043 18.3196 19.5263L19.2664 19.2044ZM17.7489 18.1852C17.7489 18.1855 17.749 18.1862 17.749 18.1873L18.749 18.1804C18.7487 18.1398 18.746 18.1003 18.7413 18.062L17.7489 18.1852ZM17.749 18.1868C17.749 18.1877 17.7489 18.1875 17.7491 18.1869C17.7492 18.1863 17.7493 18.1864 17.7489 18.1872C17.7485 18.1881 17.7477 18.1897 17.7463 18.1918C17.7448 18.1939 17.7432 18.1959 17.7419 18.1973L18.4789 18.8732C18.6048 18.7359 18.7509 18.4999 18.749 18.1808L17.749 18.1868ZM17.7417 18.1975C17.7332 18.2068 17.7177 18.2184 17.6935 18.2298L18.1202 19.1343C18.2201 19.0871 18.3563 19.0071 18.4791 18.873L17.7417 18.1975ZM17.6936 18.2298C17.6574 18.2469 17.6072 18.2609 17.5483 18.2663L17.6407 19.262C17.7959 19.2476 17.9624 19.2087 18.1201 19.1343L17.6936 18.2298ZM17.2286 19.1049C18.019 19.9537 18.4802 20.5443 18.6817 20.9966L19.5952 20.5898C19.3177 19.9668 18.7454 19.2664 17.9604 18.4234L17.2286 19.1049ZM18.6818 20.9968C18.7081 21.0559 18.73 21.1128 18.7477 21.1677L19.6996 20.8613C19.6698 20.7689 19.6346 20.6783 19.5951 20.5896L18.6818 20.9968ZM19.7207 20.96C19.6688 20.4863 19.518 19.912 19.266 19.2035L18.3238 19.5385C18.5643 20.2148 18.6869 20.706 18.7266 21.0689L19.7207 20.96ZM17.6728 18.1026C17.6887 18.114 17.7029 18.1255 17.7149 18.1371L18.4075 17.4158C18.3536 17.364 18.3009 17.3225 18.2562 17.2904L17.6728 18.1026ZM18.5004 17.5374C18.2232 17.0284 17.9017 16.4948 17.5633 15.9821L16.7287 16.533C17.0525 17.0234 17.3593 17.5328 17.6221 18.0155L18.5004 17.5374ZM17.5632 15.9819L17.5621 15.9802L16.7277 16.5313L16.7288 16.5331L17.5632 15.9819ZM17.5635 15.9824C16.0803 13.7108 15.7229 12.99 14.7955 10.4617L13.8567 10.806C14.8098 13.4045 15.201 14.1933 16.7262 16.5291L17.5635 15.9824ZM14.7967 10.465L14.796 10.4631L13.8548 10.8008L13.8555 10.8027L14.7967 10.465ZM14.7956 10.4619C14.7702 10.3917 14.745 10.3222 14.7199 10.2533L13.7802 10.5952C13.805 10.6634 13.83 10.7323 13.8552 10.802L14.7956 10.4619ZM13.8203 10.1687C13.8276 10.1565 13.8342 10.1513 13.8345 10.1511C13.8349 10.1508 13.8349 10.1508 13.8347 10.1509C13.8345 10.151 13.8349 10.1508 13.8365 10.15L14.2615 11.0552C14.3469 11.0151 14.5448 10.9069 14.6798 10.6798L13.8203 10.1687ZM13.7091 10.9693C13.7837 11.0386 13.849 11.1099 13.8975 11.1755L14.7018 10.5813C14.6081 10.4544 14.4979 10.337 14.3889 10.236L13.7091 10.9693ZM13.8974 11.1754C13.9265 11.2148 13.9488 11.251 13.9635 11.2827L14.8701 10.8607C14.8189 10.7507 14.7571 10.6562 14.7019 10.5814L13.8974 11.1754ZM13.9636 11.2828C13.9706 11.2978 13.9759 11.3118 13.9795 11.3249C13.983 11.3378 13.9841 11.3474 13.9842 11.3541L14.9842 11.3482C14.9829 11.1334 14.9169 10.9612 14.87 10.8605L13.9636 11.2828ZM13.9842 11.3541C13.9843 11.3749 13.9838 11.3895 13.9809 11.4048C13.978 11.4201 13.9745 11.4244 13.9756 11.423L14.7959 11.9948C14.9906 11.7155 14.9846 11.416 14.9842 11.3482L13.9842 11.3541ZM13.9755 11.423C13.9758 11.4226 13.9766 11.4216 13.9781 11.4205C13.9798 11.4193 13.9815 11.4185 13.9824 11.4182L14.2718 12.3755C14.494 12.3083 14.6744 12.1692 14.796 11.9948L13.9755 11.423ZM13.9826 11.4182C13.9834 11.418 13.9831 11.4182 13.9808 11.4182C13.9782 11.4183 13.9741 11.418 13.9686 11.4169L13.7838 12.3997C13.8935 12.4203 14.0701 12.4363 14.2716 12.3755L13.9826 11.4182ZM13.9687 11.417C13.9591 11.4152 13.9419 11.4103 13.9164 11.3992C13.8913 11.3882 13.8649 11.3742 13.8354 11.3573L13.3365 12.2239C13.4203 12.2721 13.5841 12.3621 13.7836 12.3997L13.9687 11.417ZM13.8353 11.3572C13.7915 11.332 13.7388 11.2985 13.6755 11.2558L13.1161 12.0848C13.1903 12.1348 13.2646 12.1826 13.3367 12.224L13.8353 11.3572ZM12.9255 11.84C13.0138 12.0846 13.1133 12.3402 13.2254 12.6114L14.1496 12.2294C14.0423 11.97 13.9485 11.7287 13.8661 11.5006L12.9255 11.84ZM14.1367 12.64C14.1525 12.6077 14.1944 12.5653 14.2611 12.5415L13.9255 11.5995C13.6563 11.6954 13.3876 11.8953 13.2383 12.2008L14.1367 12.64ZM14.2851 12.5323C14.2911 12.5298 14.2992 12.5273 14.3074 12.5258C14.3156 12.5243 14.3204 12.5245 14.3219 12.5246C14.3227 12.5247 14.3202 12.5245 14.3163 12.5228C14.3146 12.522 14.3135 12.5213 14.3132 12.5211C14.3129 12.5209 14.3142 12.5217 14.317 12.5244L15.0198 11.8131C14.6317 11.4297 14.1507 11.5053 13.9015 11.6088L14.2851 12.5323ZM14.3169 12.5244C14.3202 12.5276 14.3199 12.5281 14.3191 12.5266C14.3187 12.5257 14.3197 12.5273 14.3205 12.5328C14.3213 12.5387 14.3217 12.5474 14.3207 12.5583C14.3197 12.5693 14.3176 12.5789 14.3159 12.5849L15.2791 12.854C15.3373 12.6455 15.3915 12.1803 15.0198 11.8131L14.3169 12.5244ZM14.3159 12.585L14.3052 12.6233L15.2684 12.8923L15.2791 12.8539L14.3159 12.585ZM14.3383 12.5367L14.3207 12.5724L15.2177 13.0145L15.2353 12.9788L14.3383 12.5367ZM14.3206 12.5726C14.2988 12.617 14.27 12.6565 14.2412 12.684L14.9309 13.4081C15.0559 13.2889 15.1511 13.1497 15.2178 13.0143L14.3206 12.5726ZM14.2411 12.684C14.2292 12.6954 14.2156 12.7061 14.2021 12.7133C14.1903 12.7196 14.185 12.7198 14.1829 12.7198L14.1888 13.7198C14.579 13.7175 14.8371 13.4974 14.9309 13.408L14.2411 12.684ZM14.1826 12.7198L14.1648 12.7199L14.1712 13.7199L14.189 13.7198L14.1826 12.7198ZM14.2065 12.7214L14.1887 12.72L14.1118 13.717L14.1295 13.7184L14.2065 12.7214ZM14.1887 12.72C14.179 12.7192 14.1692 12.7175 14.1606 12.7151L13.8848 13.6763C13.9635 13.6988 14.0402 13.7115 14.1118 13.717L14.1887 12.72ZM13.5665 13.4004C13.6365 13.5564 13.7102 13.7177 13.7878 13.8849L14.6949 13.4641C14.6189 13.3002 14.547 13.1427 14.4789 12.9909L13.5665 13.4004ZM14.6105 14.0117C14.67 13.9466 14.7435 13.9056 14.8126 13.8912L14.6082 12.9123C14.3166 12.9731 14.061 13.1305 13.8722 13.3373L14.6105 14.0117ZM14.8148 13.8907C14.8572 13.8817 14.8953 13.8775 14.9276 13.8787C14.9585 13.8799 14.9764 13.8857 14.9869 13.891L15.4349 12.9969C15.1099 12.8341 14.785 12.8746 14.606 12.9127L14.8148 13.8907ZM14.9869 13.891C14.9922 13.8937 14.9961 13.8966 14.9985 13.8989C15.0005 13.9009 15.0019 13.9027 15.0031 13.9053L15.9015 13.4661C15.7922 13.2425 15.6171 13.0883 15.4349 12.9969L14.9869 13.891ZM15.0031 13.9053C15.0044 13.9079 15.0052 13.9105 15.0057 13.9144C15.0063 13.9189 15.0063 13.9249 15.0054 13.9317L15.9958 14.07C16.0195 13.9003 16.008 13.6839 15.9015 13.4661L15.0031 13.9053ZM15.0054 13.9316C15.0035 13.9453 14.9978 13.9641 14.9841 13.9887C14.97 14.0139 14.9501 14.0402 14.9264 14.0656L15.6577 14.7476C15.7816 14.6149 15.9518 14.385 15.9958 14.07L15.0054 13.9316ZM14.9264 14.0656C14.8759 14.1197 14.8019 14.1772 14.7042 14.2292L15.1741 15.1119C15.3526 15.0169 15.5198 14.8955 15.6577 14.7476L14.9264 14.0656ZM14.694 14.2348C14.6375 14.2666 14.5907 14.2916 14.5517 14.3095L14.9681 15.2187C15.0464 15.1828 15.1228 15.1409 15.1843 15.1063L14.694 14.2348ZM14.31 14.9823C14.3352 15.0343 14.3608 15.0868 14.3865 15.1396L15.2855 14.7016C15.2599 14.649 15.2346 14.5971 15.2098 14.5458L14.31 14.9823ZM15.0036 15.3917C15.0085 15.3899 15.0149 15.3885 15.0257 15.3869L14.8796 14.3976C14.8406 14.4034 14.7616 14.4164 14.6685 14.4495L15.0036 15.3917ZM15.0259 15.3868C15.0613 15.3816 15.1172 15.3801 15.1973 15.3797L15.1915 14.3797C15.1252 14.3801 14.997 14.3802 14.8794 14.3976L15.0259 15.3868ZM15.1974 15.3797C15.3027 15.379 15.3902 15.3897 15.4586 15.408L15.7182 14.4423C15.5427 14.3952 15.3624 14.3786 15.1914 14.3797L15.1974 15.3797ZM15.4585 15.408C15.5278 15.4267 15.5726 15.4519 15.5978 15.4768L16.3006 14.7654C16.1084 14.5755 15.883 14.4866 15.7182 14.4423L15.4585 15.408ZM15.5978 15.4768C15.6101 15.4889 15.6175 15.5013 15.6213 15.5115C15.6246 15.5204 15.6265 15.5306 15.6246 15.5454L16.6162 15.6747C16.6645 15.3041 16.5182 14.9804 16.3006 14.7654L15.5978 15.4768ZM15.6246 15.5452C15.6231 15.5569 15.6194 15.5698 15.6116 15.5853L16.5053 16.0339C16.557 15.9309 16.5984 15.8108 16.6162 15.6749L15.6246 15.5452ZM15.8684 16.2721C15.9022 16.286 15.9379 16.3021 15.9748 16.32L16.4108 15.42C16.3592 15.395 16.3045 15.3702 16.2484 15.3471L15.8684 16.2721ZM15.9748 16.32C16.1035 16.3823 16.2515 16.4681 16.3919 16.5601L16.9401 15.7238C16.7725 15.6139 16.5867 15.5053 16.4109 15.4201L15.9748 16.32ZM16.3919 16.5601C16.5324 16.6522 16.6632 16.7493 16.7581 16.8337L17.4226 16.0864C17.2795 15.9591 17.1059 15.8325 16.9401 15.7238L16.3919 16.5601ZM16.7581 16.8337C16.8057 16.876 16.8425 16.9136 16.8669 16.9446L17.6532 16.3268C17.5773 16.2302 17.492 16.1481 17.4226 16.0864L16.7581 16.8337ZM16.8669 16.9447C16.879 16.9601 16.8869 16.9724 16.8915 16.9816L17.7869 16.5363C17.7421 16.4464 17.6913 16.3753 17.6532 16.3268L16.8669 16.9447ZM16.8915 16.9816C16.8937 16.986 16.8948 16.9889 16.8953 16.9909C16.8959 16.9927 16.8955 16.9923 16.8955 16.9901L17.8955 16.9842C17.8943 16.7765 17.8275 16.6181 17.7869 16.5364L16.8915 16.9816ZM16.8955 16.9902C16.8956 17.0114 16.8841 17.0437 16.8613 17.0654L17.5506 17.7898C17.7719 17.5792 17.8973 17.2832 17.8955 16.9841L16.8955 16.9902ZM17.1757 17.9267C17.1831 17.9271 17.1906 17.9277 17.198 17.9285L17.2956 16.9332C17.2768 16.9314 17.257 16.9298 17.2362 16.9285L17.1757 17.9267ZM17.1977 17.9284C17.2713 17.9357 17.3607 17.9577 17.4477 17.9895L17.7908 17.0502C17.6459 16.9973 17.4729 16.9507 17.2959 16.9333L17.1977 17.9284ZM17.4477 17.9895C17.5348 18.0213 17.6154 18.0614 17.6729 18.1026L18.2562 17.2904C18.103 17.1804 17.9338 17.1024 17.7908 17.0502L17.4477 17.9895ZM13.5632 9.95491C13.5955 9.97329 13.6265 9.99316 13.6553 10.0141L14.2434 9.20524C14.1816 9.16036 14.1192 9.12081 14.0588 9.08634L13.5632 9.95491ZM14.4175 9.43408C14.3494 9.25236 14.2826 9.07636 14.2172 8.90616L13.2837 9.2646C13.348 9.43227 13.4139 9.60585 13.4812 9.78525L14.4175 9.43408ZM13.2812 8.91283C13.2777 8.92215 13.2736 8.92865 13.2689 8.93422C13.2637 8.94021 13.2556 8.94764 13.243 8.95533L13.7616 9.81032C13.9557 9.69256 14.1273 9.5092 14.2197 9.25792L13.2812 8.91283ZM13.344 9.85711C13.4239 9.88377 13.4993 9.91839 13.563 9.95479L14.059 9.08646C13.9404 9.0187 13.8051 8.95675 13.6605 8.90853L13.344 9.85711ZM13.1583 8.69657C13.1607 8.69795 13.1632 8.69953 13.1661 8.70135L13.7018 7.85695C13.6911 7.85015 13.68 7.84334 13.6686 7.83657L13.1583 8.69657ZM13.8978 8.09256C13.7328 7.6822 13.5779 7.31404 13.4336 6.98914L12.5197 7.39509C12.6582 7.70685 12.8084 8.06377 12.9701 8.46574L13.8978 8.09256ZM13.4336 6.98912C13.3226 6.73917 13.2181 6.51565 13.1205 6.31875L12.2246 6.76305C12.3147 6.94478 12.4131 7.15519 12.5197 7.39511L13.4336 6.98912ZM12.2578 6.26157C12.2599 6.25853 12.2635 6.25412 12.2687 6.2495C12.2737 6.24502 12.2786 6.24173 12.2827 6.2395L12.764 7.11603C12.8795 7.05263 12.9949 6.95738 13.0872 6.82024L12.2578 6.26157ZM12.0642 6.87557C12.1953 7.18003 12.278 7.64201 12.2896 8.2146L13.2894 8.19434C13.2765 7.55901 13.1858 6.95182 12.9826 6.47996L12.0642 6.87557ZM12.9507 8.67778C13.0226 8.65327 13.0942 8.65793 13.1554 8.69479L13.6716 7.83834C13.3167 7.62442 12.9304 7.62828 12.6283 7.73116L12.9507 8.67778ZM12.6376 5.94915C12.6377 5.94345 12.6378 5.93826 12.6378 5.93601L11.6379 5.92514C11.6378 5.92815 11.6378 5.92821 11.6378 5.92788L12.6376 5.94915ZM11.7144 5.66462L11.6877 5.70714L12.5345 6.23906L12.5612 6.19654L11.7144 5.66462ZM11.6877 5.70718L11.6778 5.72291L12.5247 6.25474L12.5346 6.23902L11.6877 5.70718ZM11.6778 5.72303L11.658 5.75445L12.505 6.28604L12.5248 6.25462L11.6778 5.72303ZM11.7581 6.40157C11.7689 6.41071 11.7791 6.41949 11.7887 6.42787L12.4469 5.67506C12.4333 5.66318 12.4193 5.65112 12.4049 5.63891L11.7581 6.40157ZM12.592 6.21014C12.6086 6.1604 12.6211 6.10855 12.6287 6.05514L11.6389 5.91269C11.64 5.90568 11.6416 5.89903 11.6437 5.89279L12.592 6.21014ZM12.6286 6.05629C12.633 6.02579 12.6357 5.99644 12.6369 5.96843L11.6379 5.92377C11.6381 5.92002 11.6385 5.9159 11.6391 5.91154L12.6286 6.05629ZM12.637 5.9683C12.6372 5.96272 12.6374 5.95763 12.6374 5.95555L11.638 5.92148C11.6379 5.92442 11.6379 5.92435 11.6379 5.9239L12.637 5.9683ZM13.1754 11.616C13.177 11.62 13.1795 11.6264 13.1828 11.6339C13.1839 11.6365 13.1877 11.6451 13.193 11.6559C13.1936 11.6571 13.2031 11.6769 13.2177 11.7001C13.222 11.707 13.2304 11.7202 13.2423 11.7359C13.2487 11.7445 13.2797 11.7862 13.3312 11.827C13.3551 11.8458 13.4187 11.8934 13.5151 11.9186C13.6311 11.9489 13.8026 11.9453 13.9523 11.8265C14.076 11.7283 14.1142 11.6049 14.1262 11.5576C14.1403 11.5019 14.1415 11.4563 14.1415 11.4348C14.1415 11.3903 14.1354 11.356 14.1334 11.3452C14.1306 11.3299 14.1276 11.3177 14.1259 11.3108C14.1223 11.2969 14.1189 11.2861 14.1173 11.2813C14.1139 11.2707 14.1109 11.2626 14.1096 11.2593C14.1067 11.2514 14.1042 11.2452 14.1028 11.2419C14.0997 11.2344 14.0967 11.2279 14.0942 11.2224L13.1874 11.6439C13.1853 11.6395 13.1827 11.6337 13.1798 11.6268C13.1786 11.6238 13.1761 11.6178 13.1732 11.6102C13.172 11.6069 13.169 11.5988 13.1656 11.5883C13.1641 11.5835 13.1607 11.5728 13.1571 11.5588C13.1553 11.5519 13.1524 11.5398 13.1496 11.5244C13.1476 11.5137 13.1415 11.4793 13.1415 11.4348C13.1415 11.4134 13.1427 11.3678 13.1568 11.3121C13.1688 11.2648 13.2069 11.1414 13.3306 11.0432C13.4804 10.9244 13.6519 10.9208 13.7679 10.9511C13.8643 10.9763 13.9279 11.0239 13.9517 11.0427C14.0033 11.0835 14.0342 11.1252 14.0406 11.1337C14.0525 11.1495 14.061 11.1627 14.0653 11.1695C14.0798 11.1927 14.0893 11.2125 14.0899 11.2137C14.0951 11.2243 14.0988 11.2327 14.0998 11.2351C14.1029 11.242 14.105 11.2475 14.1062 11.2504L13.1754 11.616ZM16.7134 17.0543C16.6908 17.0424 16.6649 17.0272 16.6359 17.0087L16.0998 17.8529C16.1452 17.8817 16.1937 17.9106 16.2438 17.9372L16.7134 17.0543ZM15.9863 17.7539C16.0683 17.8508 16.1553 17.9505 16.2483 18.0544L16.9937 17.3878C16.9057 17.2895 16.8248 17.1967 16.7494 17.1077L15.9863 17.7539ZM17.0634 17.9542C17.0664 17.9484 17.0708 17.9417 17.0774 17.9343L16.33 17.2699C16.27 17.3374 16.2194 17.4107 16.1786 17.4881L17.0634 17.9542ZM17.0776 17.9341L17.0945 17.915L16.3468 17.251L16.3298 17.2701L17.0776 17.9341ZM17.0485 17.9605L17.0494 17.9597L16.3937 17.2047L16.3928 17.2055L17.0485 17.9605ZM16.7954 17.0877C16.7896 17.0868 16.7823 17.0849 16.7722 17.0813L16.4358 18.023C16.4799 18.0388 16.5542 18.0628 16.6476 18.0767L16.7954 17.0877ZM16.7723 17.0814C16.7566 17.0757 16.7368 17.0668 16.713 17.0541L16.2442 17.9374C16.2937 17.9637 16.3595 17.9958 16.4357 18.023L16.7723 17.0814ZM16.3031 19.483C16.1127 19.4912 15.9598 19.4903 15.844 19.4817L15.7697 20.479C15.939 20.4916 16.1344 20.4912 16.3462 20.4821L16.3031 19.483ZM15.8441 19.4817C15.774 19.4765 15.7188 19.4685 15.6774 19.4586L15.4425 20.4306C15.5556 20.4579 15.6694 20.4715 15.7696 20.479L15.8441 19.4817ZM15.6776 19.4586C15.6587 19.454 15.643 19.4492 15.6292 19.4434C15.6153 19.4376 15.6087 19.4328 15.6065 19.431L14.9671 20.1999C15.1519 20.3536 15.3518 20.4086 15.4424 20.4305L15.6776 19.4586ZM15.6067 19.4312C15.6055 19.4301 15.605 19.4295 15.6054 19.4299C15.606 19.4308 15.6072 19.4327 15.608 19.4351L14.6659 19.7704C14.7386 19.9746 14.8637 20.1138 14.9669 20.1997L15.6067 19.4312ZM15.608 19.435C15.6089 19.4375 15.6094 19.4406 15.6095 19.4433C15.6095 19.4456 15.6092 19.447 15.6089 19.4478L14.6484 19.1696C14.5974 19.3459 14.5899 19.5571 14.666 19.7705L15.608 19.435ZM15.6089 19.4481C15.6085 19.4492 15.6089 19.4467 15.6138 19.4402L14.8122 18.8423C14.75 18.9257 14.6876 19.0345 14.6485 19.1694L15.6089 19.4481ZM14.9926 18.6925C14.9916 18.6929 14.9855 18.6959 14.9813 18.698L15.4254 19.594C15.4276 19.5929 15.428 19.5927 15.4334 19.5901L14.9926 18.6925ZM14.9857 18.6958L14.9833 18.697L15.4185 19.5974L15.421 19.5962L14.9857 18.6958ZM14.9835 18.6969L14.9811 18.6981L15.4157 19.5987L15.4182 19.5975L14.9835 18.6969ZM14.9837 18.6968C14.7877 18.79 14.6335 18.8468 14.523 18.8726L14.7502 19.8464C14.9592 19.7977 15.1861 19.7079 15.4131 19.6L14.9837 18.6968ZM14.5231 18.8726C14.4678 18.8855 14.4265 18.8899 14.398 18.8886L14.3522 19.8875C14.508 19.8946 14.6485 19.8701 14.7501 19.8465L14.5231 18.8726ZM14.3982 18.8886C14.3927 18.8883 14.3873 18.8878 14.382 18.8869C14.3765 18.8861 14.3724 18.885 14.3694 18.884C14.3666 18.883 14.3657 18.8824 14.3662 18.8826C14.3664 18.8828 14.3667 18.883 14.3671 18.8833C14.3675 18.8837 14.3677 18.8838 14.3676 18.8837L13.6413 19.5712C13.9016 19.8461 14.2231 19.8815 14.3521 19.8875L14.3982 18.8886ZM14.3675 18.8837C14.3667 18.8828 14.3669 18.8829 14.3675 18.8838C14.3682 18.8848 14.369 18.8861 14.3698 18.8878C14.3714 18.8911 14.3719 18.8935 14.3719 18.8938C14.3719 18.8938 14.3718 18.8934 14.3718 18.8923C14.3717 18.8913 14.3717 18.8898 14.3718 18.8881C14.372 18.8844 14.3726 18.8814 14.3728 18.8806L13.4013 18.6435C13.3504 18.8523 13.3324 19.2449 13.6414 19.5712L14.3675 18.8837ZM14.3729 18.8804C14.3746 18.8734 14.3785 18.8621 14.3866 18.8464C14.3947 18.8307 14.4053 18.814 14.4184 18.7959L13.6063 18.2123C13.545 18.2976 13.4493 18.4469 13.4013 18.6436L14.3729 18.8804ZM14.4184 18.7958C14.4482 18.7543 14.4941 18.7014 14.5597 18.6378L13.8634 17.9201C13.7702 18.0105 13.6809 18.1084 13.6062 18.2124L14.4184 18.7958ZM14.5646 17.9249C14.5564 17.9167 14.5501 17.9087 14.5464 17.9033L13.7234 18.4713C13.7583 18.5219 13.8031 18.5778 13.8585 18.633L14.5646 17.9249ZM14.5463 17.9032C14.5226 17.8688 14.5054 17.8196 14.5051 17.7662L13.5051 17.7722C13.5066 18.0247 13.5845 18.2702 13.7235 18.4714L14.5463 17.9032ZM14.5051 17.7662C14.5048 17.7128 14.5213 17.6634 14.5447 17.6287L13.715 17.0704C13.5785 17.2733 13.5036 17.5197 13.5051 17.7722L14.5051 17.7662ZM14.5448 17.6286C14.5481 17.6237 14.5537 17.6162 14.5612 17.6083L13.8371 16.9187C13.7875 16.9707 13.747 17.0229 13.7149 17.0706L14.5448 17.6286ZM14.6316 17.0126C14.5773 16.919 14.5239 16.825 14.4741 16.7351L13.5992 17.2193C13.6526 17.3159 13.7095 17.4159 13.7667 17.5144L14.6316 17.0126ZM13.6136 16.7107C13.5321 16.8401 13.4588 16.9357 13.398 17L14.1247 17.6869C14.2435 17.5612 14.3557 17.4089 14.4597 17.2437L13.6136 16.7107ZM13.398 17C13.3599 17.0403 13.3281 17.0669 13.3034 17.0824L13.8331 17.9306C13.956 17.8538 14.0536 17.7621 14.1247 17.6869L13.398 17ZM13.3034 17.0823C13.2927 17.089 13.2835 17.0935 13.2758 17.096C13.2694 17.098 13.2693 17.097 13.2719 17.0973L13.1294 18.0871C13.4767 18.1371 13.7375 17.9902 13.833 17.9306L13.3034 17.0823ZM13.2718 17.0973C13.2707 17.0971 13.271 17.0971 13.2723 17.0975C13.2737 17.098 13.2756 17.0987 13.2777 17.0998C13.2821 17.102 13.285 17.1044 13.2863 17.1056C13.2873 17.1066 13.2868 17.1064 13.2857 17.1045C13.2844 17.1025 13.284 17.1011 13.2843 17.1021L12.3374 17.4234C12.4238 17.678 12.6673 18.0206 13.1295 18.0871L13.2718 17.0973ZM13.2844 17.1022C13.283 17.0982 13.2809 17.0894 13.2801 17.0742C13.2793 17.059 13.2802 17.0418 13.2824 17.022L12.2889 16.9086C12.277 17.0125 12.2645 17.2084 12.3373 17.4232L13.2844 17.1022ZM13.2824 17.022C13.2923 16.9357 13.3304 16.802 13.4078 16.6193L12.487 16.2292C12.3949 16.4466 12.3147 16.6827 12.2889 16.9086L13.2824 17.022ZM13.4107 16.6122C13.4898 16.4173 13.5488 16.252 13.5865 16.1119L12.6207 15.8523C12.5983 15.9357 12.5563 16.0582 12.4841 16.2363L13.4107 16.6122ZM13.5865 16.1118C13.6065 16.0372 13.6196 15.9728 13.6272 15.9167L12.6362 15.7827C12.6354 15.7887 12.6319 15.8106 12.6207 15.8525L13.5865 16.1118ZM13.249 15.3636C13.2004 15.3519 13.1647 15.336 13.1404 15.3192C13.12 15.305 13.1033 15.2876 13.0894 15.2571L12.1791 15.671C12.3751 16.1021 12.749 16.2717 13.0145 16.3358L13.249 15.3636ZM13.0894 15.2571C13.0778 15.2316 13.0684 15.1936 13.0666 15.1365C13.0649 15.0784 13.0713 15.0149 13.0823 14.9422L12.0936 14.7923C12.0671 14.9676 12.0209 15.3231 12.1791 15.671L13.0894 15.2571ZM13.0819 14.9448L13.0825 14.941L12.0946 14.7859L12.094 14.7898L13.0819 14.9448ZM13.0819 14.945L13.0825 14.9412L12.0959 14.7781L12.0953 14.7819L13.0819 14.945ZM13.0821 14.9436C13.1085 14.7885 13.0988 14.6443 13.0465 14.5064L12.1115 14.8611C12.1039 14.841 12.0986 14.8183 12.0969 14.7965C12.0953 14.7769 12.0976 14.7683 12.0963 14.7757L13.0821 14.9436ZM13.0464 14.5062C12.9947 14.37 12.903 14.2442 12.7714 14.1221L12.0912 14.8551C12.1169 14.8791 12.1263 14.8917 12.127 14.8927C12.1272 14.893 12.1253 14.8904 12.1223 14.8849C12.1192 14.8792 12.1154 14.8714 12.1116 14.8614L13.0464 14.5062ZM12.7638 14.1152C12.597 13.9667 12.5238 13.8746 12.5011 13.7744L11.5259 13.9954C11.6252 14.4338 11.9284 14.7104 12.0988 14.862L12.7638 14.1152ZM12.5011 13.7744C12.4908 13.7288 12.4896 13.6708 12.5033 13.5913C12.5174 13.5087 12.5437 13.4227 12.5789 13.315L11.6283 13.0045C11.5626 13.2057 11.4332 13.5864 11.5259 13.9954L12.5011 13.7744ZM12.5788 13.3152L12.5818 13.306L11.6314 12.995L11.6284 13.0042L12.5788 13.3152ZM12.5741 13.3278L12.5776 13.3187L11.6426 12.9641L11.6391 12.9732L12.5741 13.3278ZM12.5778 13.3181C12.62 13.2064 12.6506 13.1111 12.6677 13.0267L11.6875 12.8286C11.6861 12.8354 11.6772 12.8725 11.6423 12.9647L12.5778 13.3181ZM12.6677 13.0267C12.6776 12.9775 12.6832 12.9305 12.6834 12.8851L11.6835 12.8804C11.6835 12.8633 11.6846 12.8501 11.6856 12.8417C11.6865 12.8332 11.6875 12.8286 11.6875 12.8286L12.6677 13.0267ZM12.6209 12.6406C12.5798 12.5663 12.5147 12.4889 12.4206 12.396L11.7177 13.1073C11.7504 13.1396 11.7653 13.1569 11.7695 13.1619C11.7714 13.1643 11.7698 13.1626 11.766 13.1571C11.7624 13.1521 11.755 13.1411 11.746 13.1248L12.6209 12.6406ZM12.4206 12.396C12.3227 12.2992 12.2073 12.2116 12.098 12.1478L11.594 13.0114C11.6304 13.0327 11.679 13.069 11.7177 13.1073L12.4206 12.396ZM12.098 12.1478C12.0444 12.1165 11.9913 12.0903 11.9415 12.0717L11.5911 13.0083C11.5862 13.0065 11.5829 13.0051 11.5814 13.0044C11.5799 13.0038 11.5795 13.0035 11.5801 13.0039C11.5816 13.0046 11.5863 13.0069 11.594 13.0114L12.098 12.1478ZM11.7734 12.0401C11.6744 12.0387 11.6114 12.021 11.5751 11.999L11.0567 12.8541C11.3066 13.0056 11.5714 13.0373 11.7593 13.04L11.7734 12.0401ZM11.575 11.9989C11.5552 11.9869 11.5442 11.9737 11.5384 11.9633C11.533 11.9536 11.5284 11.9402 11.529 11.9195L10.5294 11.8903C10.5174 12.3018 10.7302 12.6562 11.0568 12.8541L11.575 11.9989ZM11.529 11.9194C11.5301 11.8802 11.5508 11.8229 11.6052 11.7493L10.8006 11.1554C10.6908 11.3041 10.539 11.5595 10.5294 11.8904L11.529 11.9194ZM11.6051 11.7493C11.6222 11.7262 11.6426 11.7015 11.6666 11.6753L10.9301 10.9989C10.8848 11.0483 10.8412 11.1004 10.8006 11.1553L11.6051 11.7493ZM11.666 10.9982C11.666 10.9983 11.6658 10.9981 11.6652 10.9973L10.8428 11.566C10.8702 11.6058 10.8997 11.6424 10.9307 11.676L11.666 10.9982ZM11.6655 10.9976C11.6644 10.996 11.6647 10.9961 11.665 10.9971C11.6652 10.9977 11.6647 10.9967 11.6645 10.9932C11.6643 10.9896 11.6643 10.9844 11.6651 10.9777C11.6659 10.9711 11.6672 10.9644 11.6689 10.9578L10.698 10.7183C10.6652 10.8511 10.5992 11.2133 10.8425 11.5657L11.6655 10.9976ZM11.6689 10.9579C11.6733 10.9397 11.6821 10.9138 11.697 10.8794L10.7786 10.4838C10.7509 10.5479 10.7201 10.6286 10.698 10.7182L11.6689 10.9579ZM11.2378 10.1816C11.2347 10.1816 11.2318 10.1816 11.2299 10.1816C11.2277 10.1816 11.2264 10.1816 11.2253 10.1816V11.1816C11.2284 11.1816 11.2314 11.1816 11.2333 11.1816C11.2356 11.1816 11.2367 11.1816 11.2378 11.1816V10.1816ZM11.2223 10.1816C11.0816 10.1825 10.9939 10.1545 10.9468 10.1215L10.3724 10.9401C10.657 11.1398 10.9816 11.1831 11.2284 11.1816L11.2223 10.1816ZM10.9469 10.1215C10.9239 10.1054 10.9109 10.0871 10.9049 10.073C10.9001 10.0615 10.8973 10.0479 10.9022 10.0264L9.92698 9.80506C9.81891 10.2811 10.0395 10.7064 10.3724 10.94L10.9469 10.1215ZM10.9022 10.0264C10.9065 10.0074 10.9162 9.98632 10.9367 9.96178C10.9583 9.93575 10.989 9.90991 11.0248 9.88771L10.4985 9.03746C10.2909 9.16596 10.0165 9.41077 9.92698 9.80508L10.9022 10.0264ZM11.0248 9.88772C11.0658 9.86233 11.1176 9.8386 11.1809 9.81935L10.8901 8.86257C10.754 8.90393 10.6215 8.9613 10.4985 9.03744L11.0248 9.88772ZM11.4177 9.01862L11.3247 8.90823L10.5602 9.55292L10.6533 9.6633L11.4177 9.01862ZM11.3155 8.8977C11.1266 8.68593 10.9852 8.512 10.8894 8.37279L10.0656 8.93981C10.196 9.12917 10.3689 9.33883 10.5693 9.56345L11.3155 8.8977ZM10.8893 8.37277C10.8453 8.30885 10.8083 8.24924 10.7812 8.19277C10.7537 8.1355 10.744 8.09688 10.7418 8.07466L9.74683 8.17475C9.78037 8.50815 9.9612 8.7881 10.0657 8.93983L10.8893 8.37277ZM10.7418 8.07461C10.7406 8.06221 10.7414 8.05159 10.743 8.04448C10.7438 8.04133 10.7446 8.03922 10.7452 8.03779C10.7458 8.03648 10.7468 8.03466 10.7489 8.03205L9.96095 7.41627C9.75457 7.68034 9.72647 7.97252 9.74684 8.1748L10.7418 8.07461ZM10.7489 8.03206C10.7518 8.02828 10.7553 8.02503 10.7623 8.02122C10.7706 8.01669 10.7824 8.01231 10.7966 8.00918L10.582 7.03249C10.4162 7.06893 10.1581 7.16407 9.96095 7.41626L10.7489 8.03206ZM10.7966 8.00918C10.8007 8.00829 10.8056 8.00736 10.8114 8.00647L10.6602 7.01797C10.6347 7.02187 10.6086 7.02664 10.582 7.03249L10.7966 8.00918ZM11.0979 7.16745C10.9465 7.00839 10.8081 6.84749 10.7063 6.71739L9.91865 7.33353C10.0422 7.49149 10.2021 7.6768 10.3737 7.85698L11.0979 7.16745ZM10.7062 6.7173C10.6526 6.64879 10.6099 6.58969 10.5809 6.54441L9.73868 7.0836C9.79124 7.1657 9.85499 7.25219 9.91872 7.33362L10.7062 6.7173ZM10.5809 6.54452C10.5663 6.52163 10.556 6.50364 10.5496 6.49047L9.64936 6.92579C9.67986 6.98887 9.7133 7.04393 9.73861 7.08348L10.5809 6.54452ZM10.5492 6.48959L10.5482 6.48753L9.64879 6.92461L9.64979 6.92667L10.5492 6.48959ZM10.548 6.48714C10.5468 6.48459 10.5466 6.48423 10.5464 6.48382C10.5463 6.48348 10.5461 6.48314 10.5459 6.48271C10.5455 6.48175 10.545 6.48035 10.5445 6.47877C10.544 6.47712 10.5438 6.47624 10.5438 6.47635C10.5438 6.47646 10.5442 6.47875 10.5443 6.48307L9.54429 6.48903C9.54565 6.71719 9.63193 6.88999 9.64898 6.92501L10.548 6.48714ZM10.5443 6.48302C10.5442 6.46525 10.5482 6.45296 10.5563 6.43944C10.5664 6.42242 10.583 6.40458 10.6016 6.39042L9.9948 5.59556C9.80605 5.73966 9.54154 6.03662 9.54429 6.48909L10.5443 6.48302ZM10.6015 6.39049C10.6431 6.35876 10.7034 6.33327 10.7709 6.31955L10.5715 5.33962C10.3977 5.37498 10.1862 5.44949 9.99489 5.59549L10.6015 6.39049ZM10.7709 6.31955C10.8382 6.30586 10.9066 6.30508 10.9623 6.31741L11.1783 5.34102C10.9606 5.29285 10.7481 5.30371 10.5715 5.33962L10.7709 6.31955ZM10.9622 6.31739C10.9863 6.32272 11.0105 6.33147 11.0301 6.34291L11.5348 5.47961C11.4066 5.40469 11.2801 5.36356 11.1784 5.34104L10.9622 6.31739ZM11.7822 5.92695C11.7822 5.92762 11.7819 5.93233 11.7791 5.93932C11.7777 5.94278 11.7761 5.94589 11.7744 5.94841C11.7728 5.95095 11.7718 5.95179 11.7726 5.95106L11.0612 5.24821C10.8631 5.44876 10.7892 5.68806 10.7827 5.89557L11.7822 5.92695ZM11.7726 5.95105C11.7726 5.95104 11.7723 5.95135 11.7716 5.95183C11.771 5.95231 11.7704 5.95279 11.7697 5.95322C11.7682 5.95411 11.7674 5.95434 11.7678 5.9542C11.7684 5.95401 11.7699 5.95355 11.7723 5.95314C11.7748 5.95273 11.7772 5.95255 11.7789 5.9525L11.7506 4.9529C11.5902 4.95744 11.3021 5.00441 11.0612 5.24822L11.7726 5.95105ZM11.7786 5.9525C11.7797 5.95247 11.7811 5.95246 11.7826 5.95249L11.8016 4.95267C11.7851 4.95236 11.7682 4.95241 11.7508 4.95289L11.7786 5.9525ZM11.9976 4.99676C11.8215 4.91737 11.6282 4.85596 11.4543 4.83219L11.3189 5.82299C11.3751 5.83067 11.4745 5.8579 11.5866 5.90841L11.9976 4.99676ZM11.4537 4.83211L11.4499 4.8316L11.3157 5.82256L11.3195 5.82307L11.4537 4.83211ZM11.4601 4.8331L11.4563 4.8325L11.3016 5.82046L11.3054 5.82106L11.4601 4.8331ZM11.4556 4.83239C11.194 4.7918 11.0496 4.74811 10.9699 4.68511L10.3498 5.4697C10.6606 5.71525 11.0563 5.7824 11.3023 5.82057L11.4556 4.83239ZM10.9697 4.685C10.9439 4.66464 10.928 4.64519 10.9168 4.62726L10.068 5.15594C10.139 5.26997 10.2319 5.37659 10.35 5.46981L10.9697 4.685ZM9.99612 4.83096C9.99174 4.86675 9.9829 4.89912 9.96841 4.93033L10.8754 5.35148C10.9382 5.21625 10.973 5.08134 10.9887 4.95224L9.99612 4.83096ZM9.96841 4.93034C9.92564 5.02246 9.83216 5.10674 9.6499 5.22444L10.1924 6.0645C10.3834 5.94112 10.7018 5.72547 10.8754 5.35147L9.96841 4.93034ZM9.64364 5.22855C9.13148 5.57026 8.83862 6.197 8.74775 7.09123L9.74262 7.19233C9.81892 6.44145 10.0397 6.16642 10.1986 6.06039L9.64364 5.22855ZM8.74774 7.09126C8.65679 7.98684 8.76693 9.16235 9.07245 10.619L10.0512 10.4138C9.75443 8.999 9.66676 7.93931 9.74263 7.1923L8.74774 7.09126ZM9.07261 10.6198C9.64067 13.3078 10.8976 16.3539 12.254 18.727L13.1222 18.2307C11.8069 15.9295 10.5936 12.9806 10.051 10.413L9.07261 10.6198ZM12.254 18.727C12.9323 19.9135 13.6369 20.9345 14.2948 21.6591L15.0352 20.987C14.4434 20.3351 13.7799 19.3812 13.1222 18.2307L12.254 18.727ZM14.2947 21.6591C14.6236 22.0214 14.9424 22.3115 15.2421 22.5112L15.7966 21.6789C15.5888 21.5405 15.3318 21.3138 15.0352 20.987L14.2947 21.6591ZM15.2421 22.5112C15.541 22.7103 15.8269 22.8235 16.0884 22.822L16.0824 21.822C16.0977 21.8219 16.0823 21.8249 16.0299 21.8053C15.9788 21.7862 15.9014 21.7488 15.7966 21.6789L15.2421 22.5112ZM16.0884 22.822C16.187 22.8214 16.3042 22.8634 16.427 22.9469L16.9893 22.1199C16.7697 21.9706 16.4549 21.8197 16.0824 21.822L16.0884 22.822ZM16.4271 22.9469C16.5488 23.0297 16.6708 23.1497 16.7776 23.2958L17.5849 22.7055C17.4216 22.4822 17.22 22.2767 16.9892 22.1198L16.4271 22.9469ZM16.7772 23.2952C16.8661 23.4171 16.9314 23.5124 16.9748 23.6022L17.875 23.1668C17.7882 22.9872 17.6735 22.8271 17.5853 22.7061L16.7772 23.2952ZM17.9067 23.518C17.9187 23.4748 17.9296 23.4418 17.9385 23.4203L17.0144 23.0382C16.9831 23.1139 16.9597 23.191 16.9431 23.251L17.9067 23.518ZM17.9385 23.4203C17.9408 23.4147 17.9427 23.4105 17.9446 23.4066C17.9467 23.4025 17.948 23.4006 17.948 23.4006L17.1221 22.8367C17.0637 22.9223 17.0295 23.0017 17.0144 23.0382L17.9385 23.4203ZM17.9478 23.4008C17.9483 23.4001 17.9465 23.4031 17.9418 23.4069L17.3053 22.6357C17.2101 22.7142 17.151 22.7945 17.1223 22.8365L17.9478 23.4008ZM17.9418 23.407C17.9395 23.4088 17.9372 23.4105 17.9346 23.412L17.4327 22.5471C17.3789 22.5783 17.3363 22.61 17.3053 22.6356L17.9418 23.407ZM17.7869 22.4903L17.7871 22.4904L17.5616 23.4646C17.568 23.4661 17.5743 23.4675 17.5804 23.4688L17.7869 22.4903ZM17.7866 22.4902C17.783 22.4894 17.7804 22.4887 17.7772 22.4876C17.7735 22.4862 17.7711 22.485 17.7702 22.4844C17.7695 22.484 17.772 22.4854 17.7755 22.4894C17.7773 22.4913 17.779 22.4935 17.7804 22.4957C17.781 22.4967 17.7815 22.4976 17.7819 22.4983C17.7823 22.4991 17.7824 22.4994 17.7824 22.4994L16.8562 22.8764C17.0458 23.3422 17.4799 23.4458 17.5621 23.4647L17.7866 22.4902ZM17.7824 22.4995C17.7825 22.4997 17.7831 22.5012 17.7836 22.5037C17.7842 22.5062 17.7845 22.5088 17.7846 22.5112C17.7848 22.5162 17.7841 22.5186 17.7843 22.5177C17.7846 22.5165 17.7854 22.5139 17.7871 22.5104C17.7878 22.5089 17.7885 22.5075 17.7892 22.5063C17.7898 22.5052 17.7905 22.504 17.7919 22.5017L16.9413 21.9759C16.8992 22.044 16.6696 22.4179 16.8562 22.8764L17.7824 22.4995ZM17.792 22.5016C17.7968 22.4938 17.8052 22.482 17.8185 22.4663C17.8316 22.4508 17.8465 22.435 17.8634 22.4178L17.152 21.7151C17.1013 21.7664 17.014 21.8582 16.9413 21.9759L17.792 22.5016ZM17.8633 22.4179C17.9639 22.3161 18.0309 22.2039 18.0607 22.0808L17.0887 21.8458C17.0975 21.8092 17.1111 21.7768 17.1265 21.7506C17.1406 21.7265 17.1521 21.715 17.1521 21.715L17.8633 22.4179ZM18.0607 22.0807C18.0904 21.9577 18.0821 21.8272 18.0374 21.6901L17.0867 22.0003C17.0861 21.9985 17.0806 21.9809 17.0788 21.9508C17.0768 21.9179 17.08 21.8819 17.0886 21.8459L18.0607 22.0807ZM18.0375 21.6904C17.9497 21.4208 17.7206 21.1239 17.3608 20.7939L16.6848 21.5308C16.8397 21.6729 16.941 21.7857 17.0048 21.8697C17.0365 21.9114 17.0572 21.9438 17.0703 21.967C17.0836 21.9906 17.0871 22.0014 17.0866 22.0001L18.0375 21.6904ZM17.3584 20.7917L17.3566 20.7901L16.6854 21.5313L16.6872 21.5329L17.3584 20.7917ZM17.3657 20.7985L17.3639 20.7968L16.6745 21.5212L16.6763 21.5229L17.3657 20.7985ZM17.3614 20.7945C17.1908 20.6343 17.0638 20.5139 16.9729 20.4177L16.2458 21.1042C16.3615 21.2267 16.5124 21.369 16.677 21.5236L17.3614 20.7945ZM16.9729 20.4177C16.9303 20.3726 16.895 20.3325 16.8662 20.2937C16.8374 20.2549 16.8211 20.2252 16.8125 20.2036L15.8841 20.5753C15.98 20.8149 16.145 20.9975 16.2459 21.1043L16.9729 20.4177ZM16.8124 20.2036C16.8042 20.1831 16.8017 20.1676 16.8011 20.1563C16.8005 20.1449 16.8017 20.1328 16.8056 20.1192L15.8437 19.8459C15.7774 20.0793 15.7863 20.3311 15.8841 20.5754L16.8124 20.2036ZM16.9005 24.7996C16.9602 24.8745 17.0357 24.929 17.1057 24.9673L17.5847 24.0894C17.5927 24.0938 17.6049 24.1013 17.6198 24.1131C17.6323 24.1229 17.6562 24.1434 17.6827 24.1766L16.9005 24.7996ZM17.8058 24.3337C17.8019 24.3246 17.7983 24.3126 17.7955 24.2977L16.8131 24.4845C16.8258 24.5512 16.847 24.634 16.8847 24.723L17.8058 24.3337ZM16.8451 24.1932C16.8063 24.2833 16.7859 24.3726 16.7845 24.4582L17.7844 24.4735C17.7834 24.5369 17.7689 24.5765 17.7635 24.5889L16.8451 24.1932ZM16.7845 24.4584C16.7841 24.4839 16.7839 24.5555 16.8126 24.6398C16.8421 24.7264 16.8881 24.7839 16.8981 24.7966L17.6851 24.1796C17.6895 24.1852 17.7319 24.2372 17.7592 24.3174C17.7857 24.3952 17.7846 24.4592 17.7844 24.4734L16.7845 24.4584ZM13.9442 18.0903C13.998 18.1737 14.0936 18.2788 14.2378 18.3527L14.6942 17.463C14.7145 17.4734 14.7307 17.4857 14.7435 17.4978C14.7554 17.509 14.7693 17.5247 14.7843 17.5479L13.9442 18.0903ZM14.9149 17.6878C14.927 17.7124 14.9329 17.7374 14.9331 17.7636L13.9331 17.7697C13.9339 17.8987 13.9649 18.0216 14.017 18.128L14.9149 17.6878ZM14.9331 17.764C14.9332 17.7805 14.9309 17.7962 14.9267 17.811L13.9644 17.5389C13.944 17.6112 13.9327 17.6889 13.9331 17.7693L14.9331 17.764ZM14.8706 17.4116C14.8649 17.4023 14.8596 17.3939 14.8544 17.3854L14.0027 17.9095C14.0089 17.9195 14.0151 17.9294 14.0205 17.9382L14.8706 17.4116ZM14.1326 17.2445C14.0454 17.3085 13.9819 17.3827 13.9404 17.4488L14.7869 17.9811C14.7754 17.9995 14.7648 18.0126 14.7561 18.022C14.7469 18.0321 14.7365 18.0416 14.7246 18.0504L14.1326 17.2445ZM13.9401 17.4492C13.8971 17.5178 13.8738 17.5813 13.861 17.6312L14.8299 17.8788C14.8204 17.9158 14.8062 17.9504 14.7872 17.9807L13.9401 17.4492ZM13.8608 17.6319C13.8533 17.6617 13.8492 17.6879 13.847 17.7081C13.8458 17.7185 13.845 17.728 13.8445 17.7364C13.8443 17.7406 13.8441 17.7446 13.8439 17.7483C13.8439 17.7502 13.8438 17.752 13.8438 17.7538C13.8437 17.7547 13.8437 17.7556 13.8437 17.7564C13.8437 17.7568 13.8437 17.7573 13.8437 17.7577C13.8437 17.7579 13.8437 17.7581 13.8437 17.7583C13.8437 17.7584 13.8437 17.7585 13.8437 17.7586C13.8437 17.7587 13.8437 17.7588 13.8437 17.7588C13.8437 17.7589 13.8437 17.7589 14.3436 17.7672C14.8435 17.7754 14.8435 17.7755 14.8435 17.7756C14.8435 17.7756 14.8435 17.7757 14.8435 17.7757C14.8435 17.7758 14.8435 17.7759 14.8435 17.776C14.8435 17.7762 14.8435 17.7765 14.8435 17.7767C14.8435 17.7771 14.8435 17.7775 14.8435 17.7779C14.8435 17.7788 14.8434 17.7796 14.8434 17.7804C14.8434 17.7821 14.8433 17.7838 14.8432 17.7856C14.8431 17.789 14.843 17.7925 14.8427 17.7961C14.8423 17.8033 14.8417 17.8111 14.8408 17.8193C14.839 17.8352 14.8359 17.8553 14.83 17.8782L13.8608 17.6319ZM14.3436 17.7672C13.8438 17.7808 13.8438 17.7809 13.8438 17.781C13.8438 17.781 13.8438 17.7811 13.8438 17.7811C13.8438 17.7812 13.8438 17.7813 13.8438 17.7814C13.8438 17.7816 13.8438 17.7819 13.8438 17.7821C13.8438 17.7825 13.8438 17.7829 13.8439 17.7834C13.8439 17.7842 13.8439 17.7851 13.8439 17.786C13.844 17.7878 13.8441 17.7896 13.8442 17.7915C13.8444 17.7953 13.8446 17.7993 13.8449 17.8035C13.8455 17.8119 13.8464 17.8215 13.8477 17.8319C13.8502 17.8523 13.8546 17.8786 13.8626 17.9085L14.8286 17.6501C14.8348 17.6731 14.8381 17.6933 14.8401 17.7094C14.8411 17.7177 14.8419 17.7254 14.8424 17.7327C14.8426 17.7363 14.8429 17.7399 14.843 17.7434C14.8431 17.7451 14.8432 17.7468 14.8432 17.7485C14.8433 17.7494 14.8433 17.7502 14.8433 17.751C14.8433 17.7515 14.8434 17.7519 14.8434 17.7523C14.8434 17.7525 14.8434 17.7527 14.8434 17.7529C14.8434 17.753 14.8434 17.7531 14.8434 17.7532C14.8434 17.7533 14.8434 17.7534 14.8434 17.7534C14.8434 17.7535 14.8434 17.7536 14.3436 17.7672ZM13.8629 17.9096C13.8761 17.9587 13.9001 18.0218 13.9439 18.0899L14.7846 17.5484C14.804 17.5785 14.8185 17.6128 14.8283 17.649L13.8629 17.9096ZM11.8798 5.48263C11.8184 5.51457 11.7549 5.55664 11.6942 5.61166L12.3654 6.35291C12.3572 6.36033 12.3487 6.36588 12.3412 6.3698L11.8798 5.48263ZM11.7488 6.39586C11.7552 6.40021 11.7615 6.40471 11.7677 6.40935L12.368 5.60956C12.3487 5.59514 12.3296 5.58154 12.3108 5.56872L11.7488 6.39586ZM12.5128 6.23751L12.5554 6.15427L11.6655 5.69816L11.6229 5.7814L12.5128 6.23751ZM11.7114 6.07189L11.7125 6.07303L12.4376 5.38444L12.4366 5.3833L11.7114 6.07189ZM12.46 5.40962C12.4559 5.40469 12.451 5.39897 12.4455 5.39279C12.4428 5.38981 12.4389 5.38549 12.434 5.38044C12.4334 5.37977 12.4185 5.36392 12.3981 5.34641C12.3926 5.34167 12.3781 5.32944 12.3584 5.31565C12.3487 5.30895 12.3297 5.29613 12.3041 5.28275C12.2887 5.27474 12.2231 5.24005 12.1303 5.22925C12.0802 5.22342 11.9901 5.22064 11.888 5.26121C11.773 5.30689 11.6801 5.39306 11.6256 5.50169C11.5384 5.67559 11.5839 5.83359 11.5883 5.85041C11.6078 5.92632 11.642 5.98025 11.6429 5.98166C11.6584 6.00769 11.6731 6.02667 11.675 6.02918C11.6801 6.03588 11.6844 6.04114 11.6868 6.04412C11.6957 6.05488 11.7033 6.06318 11.7066 6.06673L12.4414 5.38845C12.4435 5.39071 12.4503 5.39808 12.4587 5.4083C12.461 5.41114 12.4652 5.41628 12.4702 5.42289C12.4721 5.42532 12.4867 5.44423 12.5022 5.47021C12.503 5.4716 12.5373 5.52551 12.5568 5.60141C12.5611 5.61823 12.6067 5.77622 12.5194 5.95012C12.4649 6.05874 12.3721 6.14491 12.2571 6.19059C12.1549 6.23117 12.0648 6.22838 12.0147 6.22255C11.922 6.21176 11.8563 6.17707 11.841 6.16906C11.8154 6.15569 11.7964 6.14287 11.7867 6.13618C11.767 6.1224 11.7526 6.11019 11.7471 6.10547C11.7268 6.08805 11.7121 6.07239 11.7117 6.07201C11.7071 6.06723 11.7036 6.06329 11.7013 6.06078C11.6966 6.05553 11.6928 6.05111 11.6901 6.04786L12.46 5.40962ZM14.4248 12.9357L14.4296 12.933L13.9333 12.0648L13.9285 12.0675L14.4248 12.9357ZM14.6815 12.4959L14.6807 12.3607L13.6807 12.3666L13.6815 12.5018L14.6815 12.4959ZM14.1777 11.8637C14.0035 11.8647 13.8735 11.9186 13.8021 11.9564L14.2699 12.8402C14.2452 12.8533 14.2157 12.8635 14.1837 12.8637L14.1777 11.8637ZM13.802 11.9565C13.7623 11.9774 13.7289 11.9997 13.7013 12.0209L14.3103 12.814C14.2962 12.8248 14.2827 12.8334 14.27 12.8402L13.802 11.9565ZM13.7849 12.866L13.9558 12.9502L14.3976 12.0531L14.2267 11.9689L13.7849 12.866ZM15.023 14.7206C15.0363 14.7169 15.06 14.7097 15.0882 14.6975C15.0975 14.6935 15.1319 14.6786 15.1713 14.6518C15.1795 14.6463 15.2486 14.6016 15.3054 14.5169C15.3332 14.4754 15.4041 14.3571 15.3878 14.19C15.3682 13.9879 15.2395 13.8621 15.1382 13.8042C15.0527 13.7553 14.9748 13.7446 14.9448 13.7413C14.9073 13.7372 14.8769 13.7382 14.8593 13.7393C14.824 13.7415 14.7965 13.747 14.7832 13.7499C14.754 13.7563 14.7312 13.764 14.7183 13.7687C14.69 13.7791 14.6658 13.7908 14.6463 13.8016L15.1308 14.6764C15.1122 14.6867 15.0889 14.698 15.061 14.7082C15.0484 14.7128 15.0259 14.7204 14.9969 14.7268C14.9836 14.7297 14.9562 14.7352 14.9209 14.7374C14.9034 14.7385 14.873 14.7395 14.8355 14.7353C14.8055 14.732 14.7277 14.7213 14.6421 14.6725C14.5408 14.6146 14.4121 14.4887 14.3925 14.2866C14.3763 14.1196 14.4471 14.0013 14.4749 13.9598C14.5317 13.8751 14.6009 13.8305 14.6089 13.825C14.6482 13.7982 14.6825 13.7835 14.6915 13.7796C14.7192 13.7676 14.7421 13.7607 14.7542 13.7574L15.023 14.7206ZM14.7684 13.7536L14.7651 13.7545L15.0054 14.7251L15.0087 14.7243L14.7684 13.7536ZM15.0054 14.7251L15.0087 14.7243L14.7684 13.7536L14.7651 13.7545L15.0054 14.7251Z" fill="#C52C2C" mask="url(#path-2-outside-1_2207_1194)"/>
<path d="M23.3994 15.8602C24.0298 16.1754 24.5991 16.7182 24.6953 17.086C24.774 17.3837 24.5903 17.6288 24.0649 17.9615C23.5307 18.303 22.9792 18.5219 22.6465 18.5219C22.4363 18.5219 22.4363 18.5132 22.5676 18.3643C22.7428 18.1717 22.7603 17.804 22.6114 17.5325C22.5239 17.3574 22.5414 17.3662 22.8303 17.5851C23.2243 17.8828 23.3295 17.8828 23.3295 17.5938C23.3295 17.3924 23.3557 17.3749 23.5484 17.4187C23.8286 17.4887 24.2926 17.2611 24.2926 17.0422C24.2926 16.7007 23.4345 16.1929 22.4363 15.9477C21.4469 15.7026 20.869 15.9215 20.4925 16.7007C20.2299 17.2348 20.1073 17.9441 20.2561 18.0316C20.3174 18.0754 20.3349 18.0404 20.2999 17.9615C20.2736 17.8828 20.3262 17.55 20.4312 17.2173C20.7289 16.2454 21.2193 15.8864 22.1124 16.009C22.3137 16.0353 22.4801 16.0703 22.4888 16.0878C22.5414 16.1666 22.4276 17.0334 22.3663 17.0334C22.3225 17.0334 22.1649 16.8583 22.016 16.6394C21.8672 16.4205 21.6921 16.2454 21.622 16.2454C21.552 16.2454 21.3681 16.3592 21.2193 16.4906C20.9741 16.7095 20.9566 16.762 21.0441 16.9284C21.1054 17.0334 21.228 17.121 21.3418 17.121C21.4469 17.121 21.6308 17.1473 21.7446 17.1823C21.9372 17.2348 21.9197 17.2523 21.5695 17.4187C21.3594 17.5238 21.1755 17.6726 21.158 17.7514C21.1405 17.8302 21.2368 18.0491 21.3594 18.2417C21.552 18.5307 21.6571 18.6007 21.9547 18.6445C22.5239 18.7321 23.2855 18.5569 23.8985 18.2155C24.5289 17.8652 24.818 17.55 24.818 17.2261C24.818 16.7533 24.0911 16.0178 23.2944 15.6851C22.699 15.4399 22.7603 15.5362 23.3994 15.8602ZM23.2418 16.3768C23.3906 16.4556 23.5044 16.5344 23.5044 16.5519C23.5044 16.6044 22.8303 16.9459 22.7165 16.9459C22.6202 16.9459 22.5939 16.3943 22.6902 16.3067C22.7778 16.2104 22.9704 16.2367 23.2418 16.3768ZM21.8759 16.762L22.0335 17.0422L21.8059 16.9897C21.6833 16.9634 21.4819 16.9284 21.3594 16.9021C21.0879 16.8408 21.0792 16.6569 21.3418 16.5256C21.6045 16.403 21.6833 16.4293 21.8759 16.762ZM23.9773 16.7795C24.2401 16.9897 24.2664 17.0772 24.0649 17.156C23.8985 17.2173 23.2418 17.0597 23.2418 16.9546C23.2418 16.8846 23.5832 16.6132 23.6885 16.6044C23.7233 16.5956 23.846 16.6745 23.9773 16.7795ZM23.1893 17.2261C23.163 17.2611 23.0667 17.2961 22.9704 17.2961C22.7603 17.2961 22.7515 17.0597 22.9616 17.0159C23.1193 16.9809 23.2593 17.1123 23.1893 17.2261ZM22.3925 17.6113C22.4888 17.9528 22.2699 18.5219 22.0423 18.5219C21.8147 18.5219 21.6658 18.3556 21.6571 18.0929C21.6571 17.9003 21.6395 17.8915 21.587 18.0228C21.5345 18.1542 21.5082 18.1629 21.4381 18.0666C21.2193 17.7952 21.2017 17.7164 21.3594 17.7514C21.4469 17.7602 21.6395 17.6638 21.7796 17.5325C22.1036 17.2348 22.2962 17.2523 22.3925 17.6113ZM23.2418 17.6113C23.2418 17.7339 23.2156 17.7339 23.1105 17.6464C23.0405 17.5851 22.9792 17.5238 22.9792 17.5063C22.9792 17.4887 23.0405 17.4712 23.1105 17.4712C23.1806 17.4712 23.2418 17.5325 23.2418 17.6113Z" fill="#DE0F6A"/>
<path d="M17.3529 8.32286C16.3662 9.22058 16.3358 9.63143 17.1859 10.5748C17.3833 10.7878 17.4592 11.0008 17.3833 11.2139C17.2011 11.7921 16.8823 11.5791 16.7609 10.803C16.6394 9.93575 16.5484 9.76835 16.3814 10.027C16.1689 10.3618 16.2296 11.1378 16.4725 11.4725C16.5939 11.6247 16.7002 11.8681 16.7002 12.0051C16.7002 12.2029 16.8823 12.2485 17.5806 12.2638H18.4459L17.9146 12.0507L17.3833 11.8377L18.0815 11.9138C18.6584 11.9899 18.8102 11.9442 19.0682 11.6703C19.3567 11.3356 19.3567 11.3356 19.0227 11.5182C18.5673 11.7464 17.7172 11.7464 17.7931 11.4878C17.8387 11.3812 18.2182 11.2747 18.6736 11.2291C19.129 11.1834 19.5084 11.0769 19.554 10.9552C19.6147 10.7422 19.554 10.7422 18.7798 10.9095C18.2789 11.0313 18.203 11.0161 18.2485 10.803C18.2789 10.6357 18.5369 10.5139 18.9772 10.4226C19.6906 10.2857 20.1916 9.85967 20.1916 9.38798C20.1916 9.05321 20.1916 9.05321 19.6754 9.25103C19.2049 9.4184 19.1745 9.26624 19.5844 8.74889C20.146 8.03376 19.888 7.51644 19.2201 8.04897L18.8405 8.35329L18.7343 7.95768C18.5977 7.3947 18.2485 7.48599 17.3529 8.32286ZM18.5369 8.30765C18.6128 8.67281 18.5673 8.90105 18.3396 9.17495C18.1726 9.38798 17.9753 9.5249 17.8994 9.47927C17.5654 9.26624 17.9146 7.65336 18.2789 7.7751C18.37 7.80552 18.4762 8.04897 18.5369 8.30765ZM19.3718 8.59673C19.2504 8.84021 19.0379 9.1445 18.8861 9.26624C18.6432 9.46406 18.6432 9.44882 18.8254 9.09887C19.1593 8.44457 19.4781 8.01854 19.5388 8.09462C19.5844 8.12505 19.5084 8.35329 19.3718 8.59673ZM17.611 9.32711C17.611 10.0727 17.3984 10.2553 17.019 9.87488C16.6243 9.47927 16.6243 9.38798 17.019 8.88584C17.3984 8.39894 17.611 8.56631 17.611 9.32711ZM20.0398 9.50969C20.0246 9.93575 18.9164 10.4683 18.6432 10.1944C18.4762 10.027 18.962 9.60098 19.4326 9.50969C19.6451 9.47927 19.8576 9.43361 19.9335 9.4184C19.9942 9.4184 20.0398 9.44882 20.0398 9.50969ZM18.2182 9.98138C18.2182 10.0575 18.1119 10.2401 17.9905 10.4074C17.7628 10.6965 17.6869 10.5291 17.8538 10.1031C17.9449 9.84443 18.2182 9.76835 18.2182 9.98138ZM16.6091 10.9248C16.6698 11.3052 16.6546 11.3964 16.5484 11.2291C16.4725 11.1074 16.3966 10.8335 16.3966 10.6357C16.3966 10.1488 16.4877 10.2705 16.6091 10.9248Z" fill="#8DB347"/>
<path d="M19.4323 14.8404C20.2748 15.0523 20.9072 15 20.8494 14.7126C20.8234 14.5832 20.7918 14.5747 20.7172 14.6868C20.6138 14.8422 20.2229 14.8684 19.8145 14.7336L19.5586 14.6505L19.9438 14.5582C20.8635 14.336 21.7367 13.5849 21.3656 13.338C21.2707 13.2748 21.127 13.2663 21.0552 13.3181C20.9747 13.3642 20.8396 13.3615 20.7447 13.2983C20.4771 13.1203 19.8878 13.1266 19.6781 13.3107C19.5144 13.4633 19.4971 13.4518 19.4424 13.2535C19.3241 12.7764 18.2778 12.9268 18.1259 13.4358C18.0428 13.7291 18.1923 13.7663 18.3099 13.496C18.3788 13.3177 18.5253 13.2284 18.784 13.1765C19.3013 13.0725 19.3935 13.2334 19.0547 13.6678C18.6354 14.223 18.4314 14.2864 18.0631 13.9792C17.7064 13.692 17.5455 13.8215 17.8965 14.1173C18.3827 14.528 19.6389 14.3802 20.6704 13.7842C20.9577 13.6143 21.2335 13.4991 21.2681 13.5221C21.5183 13.6886 20.3661 14.2789 19.4262 14.4753C18.9864 14.5562 18.6444 14.6398 18.6588 14.637C18.6818 14.6398 19.0211 14.7286 19.4323 14.8404ZM18.9342 13.9985C19.0692 13.8891 19.2214 13.7539 19.2933 13.7021C19.3823 13.6244 19.4025 13.6502 19.3825 13.8486C19.3597 14.07 19.3167 14.116 19.0493 14.1623C18.6584 14.2258 18.6555 14.2115 18.9342 13.9985ZM19.5835 13.584C19.6237 13.5235 19.7932 13.4371 19.9628 13.3881L20.2646 13.2901L20.0378 13.6497C19.9115 13.8395 19.7593 14.0121 19.7075 14.015C19.5868 14.0468 19.4917 13.722 19.5835 13.584ZM20.5694 13.3933C20.8281 13.3413 20.7707 13.5024 20.4518 13.7384L20.1444 13.9572L20.2851 13.6897C20.3597 13.5401 20.4832 13.4107 20.5694 13.3933Z" fill="#8DB347"/>
</svg>
