<svg width="19" height="19" viewBox="0 0 19 19" fill="none" xmlns="http://www.w3.org/2000/svg">
<path opacity="0.936" fill-rule="evenodd" clip-rule="evenodd" d="M9.20436 19.0068H9.35402C9.3773 18.9647 9.40847 18.9273 9.44757 18.8946C9.45647 18.6062 9.48139 18.3193 9.5224 18.034C9.65803 17.6829 9.77028 17.6954 9.85914 18.0714C9.90879 18.3441 9.94621 18.6185 9.97139 18.8946C10.0836 18.9944 10.1959 18.9944 10.3081 18.8946C10.3339 18.6817 10.3277 18.4697 10.2894 18.2585C10.3099 18.1341 10.3286 18.0093 10.3456 17.8844C10.378 17.7238 10.4529 17.6989 10.57 17.8095C10.7097 18.1062 10.797 18.418 10.832 18.7449C10.909 18.899 11.015 18.9239 11.15 18.8198L11.1874 18.6514C11.1286 18.3479 11.1098 18.0423 11.1313 17.7347C11.1543 17.6742 11.1917 17.6244 11.2435 17.585C11.3677 17.6836 11.455 17.8083 11.5054 17.9592L11.6946 18.5784L11.7112 18.6327C11.8996 18.7568 12.0118 18.7069 12.048 18.483C11.9433 18.1533 11.8997 17.8166 11.917 17.4728C11.9315 17.4381 11.9565 17.4131 11.9919 17.398C12.1036 17.4598 12.1909 17.5471 12.2538 17.6599C12.3609 17.8938 12.4606 18.1307 12.5531 18.3708C12.7283 18.4857 12.8343 18.4421 12.8711 18.2398C12.8103 17.9948 12.7417 17.7516 12.6653 17.5102C12.636 17.3882 12.6423 17.2697 12.6841 17.1547C12.7752 17.1384 12.85 17.1696 12.9086 17.2483C13.0895 17.5103 13.2517 17.7847 13.395 18.0714C13.5539 18.1229 13.6537 18.0667 13.6943 17.9031C13.5738 17.6414 13.4677 17.3732 13.3763 17.0986C13.3475 17.0014 13.3537 16.9078 13.395 16.818C13.4448 16.793 13.4947 16.793 13.5446 16.818C13.7931 17.0782 14.0052 17.3651 14.1807 17.6786C14.35 17.7123 14.4498 17.6437 14.48 17.4728C14.2751 17.1814 14.1255 16.8634 14.031 16.5187C14.041 16.4003 14.1034 16.3629 14.2181 16.4064C14.4752 16.6386 14.706 16.8943 14.9103 17.1735C15.0618 17.2192 15.1553 17.1631 15.1909 17.0051C15.0373 16.7508 14.8814 16.4952 14.7232 16.2381C14.6829 16.1422 14.6642 16.0424 14.6671 15.9387C14.8104 15.9293 14.9352 15.973 15.0413 16.0697C15.2296 16.2455 15.4042 16.4326 15.5651 16.6309C15.7893 16.6933 15.8829 16.6123 15.8457 16.3877C15.6442 16.1489 15.4572 15.8994 15.2845 15.6394C15.266 15.5656 15.2597 15.4907 15.2658 15.4149C15.389 15.4059 15.5012 15.437 15.6025 15.5084C15.8106 15.6441 15.9976 15.8062 16.1637 15.9948C16.3791 16.091 16.4851 16.0224 16.4818 15.7891L15.8457 15.0782C15.7475 14.8189 15.8286 14.7503 16.0889 14.8724C16.3454 15.0068 16.5823 15.1689 16.7998 15.3588C17.0408 15.37 17.1094 15.2639 17.0056 15.0407C16.7033 14.8445 16.4601 14.595 16.276 14.2924C16.2898 14.2397 16.3209 14.2022 16.3695 14.1802C16.4611 14.2141 16.5546 14.2452 16.6502 14.2737C16.8926 14.4105 17.1358 14.5414 17.3798 14.6666C17.5371 14.6281 17.587 14.5283 17.5294 14.3672C17.2887 14.2126 17.058 14.0442 16.8372 13.8621C16.7317 13.782 16.6818 13.676 16.6876 13.5441C16.7881 13.538 16.8879 13.5442 16.9869 13.5628C17.2293 13.6529 17.4663 13.7527 17.6978 13.8621C17.9202 13.9265 18.0138 13.8454 17.9784 13.6189C17.7271 13.4588 17.4714 13.3029 17.2114 13.1512C17.1275 13.0862 17.0652 13.0051 17.0243 12.908C17.0322 12.8861 17.0446 12.8674 17.0617 12.8519L17.2301 12.8332C17.5503 12.89 17.8621 12.9774 18.1655 13.0951C18.3229 13.0566 18.3728 12.9569 18.3152 12.7958C17.9977 12.661 17.6921 12.5051 17.3985 12.3281C17.2854 12.1454 17.3415 12.0643 17.5669 12.0849C17.8644 12.1265 18.1575 12.1889 18.4461 12.2719C18.5658 12.2708 18.6282 12.2085 18.6332 12.0849C18.6281 12.0247 18.6031 11.9748 18.5584 11.9352C18.295 11.8454 18.0331 11.7518 17.7726 11.6546C17.4624 11.4837 17.4749 11.3652 17.8101 11.2991C18.1207 11.3468 18.4325 11.378 18.7455 11.3927C18.8182 11.3121 18.8369 11.2186 18.8016 11.1121C18.4831 11.0267 18.1651 10.9332 17.8475 10.8314C17.7123 10.791 17.6749 10.7099 17.7352 10.5882C17.808 10.5624 17.8828 10.5437 17.9597 10.5321C18.2592 10.5283 18.5585 10.5283 18.8577 10.5321C19.0058 10.422 19.0058 10.3097 18.8577 10.1954C18.4938 10.1827 18.1446 10.1078 17.8101 9.97086C17.7592 9.89835 17.7716 9.83601 17.8475 9.78378C17.9331 9.75303 18.0204 9.72807 18.1094 9.70895L18.8951 9.67153C19.021 9.56943 19.0335 9.45718 18.9325 9.33479C18.6194 9.32502 18.3076 9.30007 17.9971 9.25996C17.6969 9.13473 17.7093 9.02248 18.0346 8.92321C18.32 8.86215 18.6069 8.81227 18.8951 8.77355C18.9846 8.67129 18.9846 8.5715 18.8951 8.47422C18.6758 8.44728 18.4576 8.45349 18.2403 8.49293C18.0596 8.47669 17.8849 8.43927 17.7165 8.38068C17.6899 8.31082 17.7086 8.2547 17.7726 8.21231C18.0932 8.06081 18.43 7.96102 18.7829 7.91298C18.8241 7.82314 18.8304 7.7296 18.8016 7.63236C18.7569 7.59756 18.707 7.57261 18.6519 7.55753C18.3137 7.64504 17.9708 7.67625 17.623 7.65107C17.5323 7.58043 17.5323 7.50559 17.623 7.42657C17.9221 7.27489 18.2339 7.15643 18.5584 7.07112C18.6557 6.96658 18.6557 6.86058 18.5584 6.75308C18.4711 6.72812 18.3838 6.72812 18.2965 6.75308C18.0466 6.83581 17.791 6.89193 17.5294 6.92145C17.4312 6.91936 17.3626 6.87569 17.3236 6.7905C17.3731 6.6912 17.4479 6.61636 17.5481 6.566C17.7887 6.43321 18.0382 6.32096 18.2965 6.22926C18.3917 5.97094 18.3044 5.87118 18.0346 5.92993C17.7754 6.04124 17.5073 6.12232 17.2301 6.17313C17.1422 6.18219 17.0737 6.15098 17.0243 6.07959C17.0851 5.98126 17.16 5.89397 17.2488 5.81768C17.4613 5.67396 17.6857 5.54926 17.9223 5.44352C18.0321 5.28196 17.9946 5.1635 17.8101 5.08807C17.4948 5.25341 17.1643 5.37815 16.8185 5.46223C16.7001 5.45224 16.6627 5.3899 16.7063 5.27515C16.9486 5.02019 17.223 4.80816 17.5294 4.63907C17.5919 4.41484 17.5108 4.3213 17.2862 4.35845C16.9832 4.58489 16.6465 4.72831 16.276 4.78874C16.2627 4.67409 16.2938 4.57431 16.3695 4.48941L17.043 3.89075C17.0784 3.66427 16.9848 3.5832 16.7624 3.64755C16.5385 3.84694 16.2891 4.0091 16.0141 4.13396C15.9403 4.15248 15.8654 4.15873 15.7896 4.15266C15.804 3.99911 15.8601 3.8619 15.958 3.74109L16.4818 3.21726C16.5171 2.99077 16.4236 2.90971 16.2012 2.97406C15.9905 3.17897 15.766 3.36605 15.5277 3.5353C15.4462 3.58028 15.3589 3.59899 15.2658 3.59142C15.2563 3.48592 15.275 3.38614 15.3219 3.29209C15.4784 3.05406 15.653 2.82956 15.8457 2.61861C15.8829 2.39405 15.7893 2.31298 15.5651 2.3754C15.364 2.63885 15.1271 2.86334 14.8542 3.04889C14.6827 3.08383 14.6266 3.01523 14.6858 2.8431C14.8198 2.56237 14.982 2.30046 15.1722 2.05736C15.1834 1.81637 15.0774 1.74777 14.8542 1.85158C14.6812 2.087 14.4941 2.3115 14.2929 2.52507C14.2289 2.59058 14.1541 2.61552 14.0684 2.5999C14.0225 2.48113 14.0288 2.36264 14.0872 2.24445C14.2086 1.9891 14.3395 1.73966 14.48 1.49612C14.4376 1.33487 14.3378 1.27875 14.1807 1.32775L13.6756 2.05736C13.4293 2.29134 13.3295 2.24146 13.3763 1.9077C13.4774 1.62457 13.5834 1.34395 13.6943 1.06584C13.6259 0.879694 13.5074 0.848515 13.3388 0.972299C13.2242 1.214 13.0995 1.45097 12.9647 1.6832C12.8996 1.76706 12.8185 1.82942 12.7215 1.87028C12.6995 1.86245 12.6808 1.84998 12.6653 1.83287C12.6501 1.50687 12.7125 1.19507 12.8524 0.897467C12.9219 0.617677 12.8221 0.5179 12.5531 0.598138C12.4554 0.866191 12.3432 1.1281 12.2164 1.38388C12.0217 1.70603 11.9157 1.68108 11.8983 1.30904C11.9486 0.996279 11.9923 0.68448 12.0293 0.373642C11.9388 0.292071 11.8391 0.279597 11.7299 0.336226C11.6377 0.625482 11.5379 0.912336 11.4306 1.1968C11.3826 1.33469 11.2953 1.38458 11.1687 1.34646C11.131 1.23139 11.1123 1.1129 11.1126 0.991007C11.1491 0.723134 11.1678 0.454985 11.1687 0.186562C11.0408 0.0784278 10.9285 0.0908997 10.832 0.223978C10.7913 0.561516 10.7039 0.885789 10.57 1.1968C10.4616 1.30032 10.3867 1.27537 10.3456 1.12196C10.3251 0.985006 10.3064 0.847816 10.2894 0.710387C10.3247 0.511501 10.331 0.31195 10.3081 0.11173C10.1977 -0.0372432 10.0854 -0.0372432 9.97139 0.11173C9.95751 0.47309 9.88889 0.822309 9.7656 1.15938C9.73784 1.18882 9.70667 1.21376 9.67206 1.23421C9.59326 1.164 9.54339 1.07669 9.5224 0.972299C9.48348 0.686766 9.45857 0.399908 9.44757 0.11173C9.35298 -0.0223935 9.24073 -0.0348658 9.11082 0.0743135C9.10158 0.399953 9.07662 0.724227 9.03599 1.04713C8.99053 1.25136 8.90324 1.27631 8.77408 1.12196C8.67114 0.79125 8.59631 0.454506 8.54958 0.11173C8.38241 0.0136853 8.26395 0.0573375 8.19413 0.242686C8.27068 0.572826 8.27693 0.903338 8.21284 1.23421C8.16374 1.31494 8.10141 1.32741 8.02575 1.27163C7.86879 0.950448 7.75655 0.613704 7.68901 0.261394C7.51892 0.149637 7.40042 0.19329 7.33356 0.39235C7.44083 0.731946 7.472 1.07493 7.4271 1.42129C7.34194 1.51721 7.26711 1.50474 7.2026 1.38388C7.05836 1.09452 6.93987 0.79519 6.84715 0.48589C6.74261 0.388597 6.63661 0.388597 6.52911 0.48589L6.5104 0.616846L6.67878 1.27163C6.70845 1.41841 6.7022 1.56184 6.66007 1.70191C6.60772 1.72416 6.55785 1.71792 6.5104 1.6832C6.30967 1.40659 6.14754 1.10726 6.024 0.785219C5.9306 0.693422 5.83085 0.687185 5.72467 0.766511C5.70233 0.806235 5.68987 0.849889 5.68725 0.897467C5.80941 1.21409 5.90917 1.53836 5.98658 1.87028C5.98512 1.94838 5.9477 1.99827 5.87433 2.01995C5.77825 1.98033 5.69717 1.91797 5.63113 1.83287C5.47364 1.61156 5.33023 1.38082 5.20084 1.14067C4.96318 1.05091 4.86964 1.13198 4.92022 1.38388C5.05301 1.62445 5.16526 1.87389 5.25697 2.1322C5.32817 2.36047 5.25955 2.42906 5.05118 2.33799C4.82122 2.08978 4.60918 1.82787 4.4151 1.55225C4.18863 1.51692 4.10754 1.61046 4.1719 1.83287C4.39359 2.11398 4.54325 2.42578 4.62089 2.76827C4.59511 2.80032 4.56395 2.82527 4.52735 2.8431C4.21717 2.64518 3.95526 2.39574 3.74162 2.09478C3.50125 2.02476 3.40771 2.11206 3.461 2.35669C3.70304 2.59856 3.88387 2.87918 4.00353 3.19855C4.00589 3.30861 3.95601 3.34603 3.85386 3.3108C3.57145 3.14089 3.32203 2.92886 3.10554 2.67473C2.93421 2.61572 2.82197 2.67184 2.7688 2.8431C2.98166 3.08709 3.18745 3.33653 3.38616 3.59142C3.44719 3.68328 3.4534 3.77682 3.40487 3.87204C3.06098 3.76687 2.76165 3.57978 2.50689 3.3108C2.24707 3.25351 2.15353 3.34705 2.22627 3.59142C2.4371 3.76477 2.63664 3.95185 2.82492 4.15266C3.00804 4.46857 2.92696 4.54965 2.58172 4.39587C2.34734 4.27352 2.12285 4.13635 1.90823 3.98429C1.6749 3.98096 1.60632 4.08696 1.70244 4.30233C1.87411 4.41622 2.04248 4.53468 2.20756 4.65778C2.32845 4.75982 2.4282 4.87831 2.50689 5.01323C2.47808 5.07954 2.4282 5.11695 2.35722 5.12548C2.04289 5.027 1.74356 4.89605 1.45924 4.73261C1.23466 4.69546 1.15362 4.789 1.21603 5.01323C1.46242 5.16447 1.70562 5.32038 1.94564 5.48094C2.18271 5.7534 2.12034 5.85319 1.75856 5.78026C1.49721 5.68276 1.2353 5.58922 0.972827 5.49964C0.823874 5.52254 0.76775 5.60987 0.804455 5.76156C1.09806 5.92413 1.39118 6.0925 1.68373 6.26667C1.85117 6.41196 1.82621 6.5055 1.6089 6.54729C1.28162 6.49435 0.963585 6.40702 0.654791 6.28538C0.538651 6.29616 0.482527 6.35853 0.486418 6.47246C0.482302 6.54258 0.507222 6.5987 0.56125 6.64083C0.857361 6.74373 1.14423 6.86843 1.42182 7.01499C1.50776 7.06225 1.53893 7.13087 1.51536 7.22078C1.43525 7.26823 1.34796 7.29318 1.25345 7.29561C0.969759 7.26258 0.689138 7.2127 0.411586 7.14595C0.291855 7.14707 0.229519 7.20941 0.224506 7.33303C0.229632 7.39316 0.254588 7.44307 0.299338 7.48269C0.639188 7.55027 0.963473 7.66252 1.27216 7.81944C1.34471 7.88013 1.35716 7.94875 1.30957 8.02523C0.979712 8.08019 0.649216 8.07398 0.318046 8.00652C0.0862534 8.00454 0.0176323 8.11054 0.112258 8.32456C0.397293 8.39082 0.684162 8.45319 0.972827 8.51164L1.19732 8.62388C1.25191 8.73927 1.2145 8.81411 1.08508 8.84838C0.750089 8.8913 0.413345 8.90376 0.0748415 8.8858C-0.0249472 8.99804 -0.0249472 9.11029 0.0748415 9.22254C0.416039 9.2454 0.752783 9.29531 1.08508 9.3722C1.23556 9.47196 1.2231 9.55925 1.04766 9.63412C0.724048 9.69222 0.3998 9.7421 0.0748415 9.78378C0.00210466 9.86434 -0.0166034 9.95788 0.0187174 10.0644C0.308842 10.095 0.601959 10.1137 0.897995 10.1205C1.03475 10.1204 1.147 10.1703 1.23474 10.2702C1.1913 10.3672 1.11647 10.4295 1.01024 10.4573C0.72618 10.5317 0.439311 10.594 0.149674 10.6444C0.0299796 10.813 0.0673957 10.9315 0.261922 10.9998C0.571091 10.9355 0.882879 10.9168 1.19732 10.9437C1.27489 10.9481 1.3248 10.9855 1.34699 11.0559C1.28432 11.1564 1.19702 11.2312 1.08508 11.2804C0.824847 11.3611 0.562934 11.4359 0.299338 11.5049C0.178035 11.6746 0.215451 11.7931 0.411586 11.8604C0.741933 11.7595 1.07868 11.7159 1.42182 11.7294C1.47458 11.7432 1.51199 11.7744 1.53407 11.823C1.45007 11.9506 1.33782 12.0442 1.19732 12.1036L0.523834 12.3655C0.483013 12.4427 0.476765 12.5238 0.505126 12.6087C0.540896 12.6609 0.590772 12.6858 0.654791 12.6835C0.946898 12.5793 1.24623 12.5045 1.55278 12.459C1.69294 12.43 1.76777 12.4798 1.77727 12.6087C1.50941 12.8518 1.20383 13.0327 0.860579 13.1512C0.736358 13.3347 0.779985 13.4532 0.991535 13.5067C1.29969 13.3683 1.61773 13.256 1.94564 13.1699C2.06369 13.1818 2.10736 13.2441 2.0766 13.357C1.84481 13.6007 1.57665 13.7941 1.27216 13.937C1.19942 14.0175 1.18071 14.1111 1.21603 14.2176C1.26516 14.2577 1.32128 14.2827 1.3844 14.2924C1.6529 14.152 1.92727 14.021 2.20756 13.8995C2.51325 13.8565 2.56937 13.95 2.37593 14.1802C2.18694 14.3588 1.98115 14.5147 1.75856 14.6479C1.6327 14.75 1.62024 14.8622 1.72115 14.9846C1.79598 15.0096 1.87081 15.0096 1.94564 14.9846C2.21545 14.7843 2.50857 14.6283 2.82492 14.5169C2.88505 14.527 2.92871 14.5582 2.95588 14.6105C2.90447 14.7071 2.84834 14.8006 2.78751 14.8911C2.55676 15.0719 2.35097 15.2777 2.17014 15.5084C2.20359 15.6794 2.30338 15.7417 2.46947 15.6955C2.82081 15.4443 3.08893 15.1262 3.27391 14.7414C3.32394 14.3857 3.16803 14.1861 2.80621 14.1428C2.89934 13.7862 2.76214 13.5741 2.39464 13.5067C2.53712 13.1555 2.42487 12.9247 2.05789 12.8145C2.22466 12.4848 2.13736 12.2666 1.79598 12.1597C1.78895 12.0997 1.80765 12.0498 1.8521 12.01C1.94718 11.695 1.84118 11.4892 1.53407 11.3927C1.79171 11.1039 1.7543 10.8544 1.42182 10.6444C1.68789 10.3597 1.66293 10.104 1.34699 9.87732C1.64373 9.62188 1.64373 9.36622 1.34699 9.11029C1.65574 8.88868 1.6807 8.63922 1.42182 8.36197C1.74169 8.15731 1.7916 7.90164 1.57148 7.59494C1.89528 7.42152 1.95762 7.17831 1.75856 6.86533C2.11974 6.74784 2.21953 6.5171 2.05789 6.17313C2.4273 6.07454 2.53955 5.85004 2.39464 5.49964C2.76367 5.43098 2.90088 5.21895 2.80621 4.86357C3.18726 4.81441 3.33692 4.60862 3.25521 4.2462C3.66749 4.25227 3.84212 4.05894 3.77903 3.66626C4.17572 3.71864 4.37526 3.54402 4.37769 3.14243C4.75421 3.23413 4.95999 3.08447 4.99505 2.69344C5.37367 2.82186 5.5857 2.68467 5.63113 2.28186C5.80362 2.4189 5.98448 2.42513 6.17366 2.30057C6.24909 2.20401 6.30521 2.098 6.34203 1.98253C6.67365 2.15828 6.91061 2.07098 7.05294 1.72062C7.36259 1.9156 7.6058 1.85324 7.78255 1.53354C8.07035 1.75946 8.31977 1.72205 8.53087 1.42129C8.81568 1.68229 9.07135 1.65735 9.2979 1.34646C9.53744 1.6296 9.7931 1.64207 10.0649 1.38388C10.2929 1.67839 10.5424 1.70333 10.8133 1.45871C10.9921 1.77376 11.2353 1.83612 11.5429 1.64579C11.6106 1.76344 11.7042 1.85698 11.8235 1.92641C11.9975 1.97105 12.1535 1.93987 12.2912 1.83287C12.4043 2.20871 12.635 2.30848 12.9834 2.1322C13.0653 2.50996 13.2898 2.63468 13.6569 2.50636C13.7165 2.87914 13.9285 3.01633 14.2929 2.91793C14.3245 3.31765 14.5365 3.48602 14.929 3.42305C14.8815 3.80574 15.0561 3.97411 15.4528 3.92817C15.3829 4.3109 15.545 4.51044 15.9393 4.52682C15.852 4.90155 16.0016 5.11358 16.3882 5.1629C16.2548 5.52568 16.3795 5.74393 16.7624 5.81768C16.6473 6.03466 16.6722 6.23423 16.8372 6.41634C16.9063 6.45854 16.9811 6.47725 17.0617 6.47246C17.0174 6.5871 16.98 6.7056 16.9495 6.82791C16.9815 7.0471 17.1062 7.1843 17.3236 7.23949C17.1044 7.53631 17.1543 7.77952 17.4733 7.9691C17.2516 8.26338 17.289 8.51904 17.5856 8.73613C17.3272 9.00448 17.3397 9.26014 17.623 9.50316C17.3415 9.73956 17.3291 9.98897 17.5856 10.2515C17.2725 10.4777 17.2475 10.7334 17.5107 11.0185C17.1487 11.1953 17.0863 11.4447 17.3236 11.7668C17.1073 11.821 16.9826 11.9583 16.9495 12.1784C16.9707 12.2788 17.0082 12.3724 17.0617 12.459C16.7041 12.5881 16.6043 12.8251 16.7624 13.1699C16.3882 13.2515 16.2635 13.4697 16.3882 13.8247C16.0076 13.887 15.858 14.1052 15.9393 14.4795C15.5484 14.4711 15.3863 14.6582 15.4528 15.0407C15.05 15.0132 14.8754 15.194 14.929 15.5833C14.5167 15.4995 14.3109 15.6678 14.3117 16.0884C13.933 15.96 13.721 16.0971 13.6756 16.5C13.3054 16.3608 13.0809 16.4855 13.0021 16.8741C12.6665 16.6892 12.4233 16.7765 12.2725 17.136C11.9586 16.962 11.7216 17.0368 11.5616 17.3605C11.309 17.1925 11.0783 17.2175 10.8694 17.4354C10.8548 17.5725 10.8111 17.5787 10.7384 17.4541C10.4535 17.2933 10.2227 17.3495 10.0462 17.6224C9.87721 17.4262 9.67143 17.3825 9.42886 17.4915C9.3709 17.5369 9.32727 17.593 9.2979 17.6599C9.07816 17.3447 8.8287 17.3198 8.54958 17.585C8.41282 17.3392 8.20704 17.2581 7.93221 17.3418C7.81896 17.518 7.73788 17.4993 7.68901 17.2857C7.47697 17.0862 7.26497 17.0862 7.05294 17.2857C6.90967 16.9304 6.67272 16.8431 6.34203 17.0238C6.26361 16.698 6.06407 16.5733 5.74337 16.6496C5.74917 16.5632 5.74917 16.4759 5.74337 16.3877C5.32353 15.6801 5.4919 15.1501 6.24849 14.7975C6.2899 14.7814 6.33174 14.7668 6.37401 14.754C7.30632 14.8536 8.75938 14.5367 9.84626 13.5494C12.4426 11.183 13.8964 6.34904 13.2129 5.12665C13.129 4.97653 13.1401 4.73104 13.2317 4.49685C13.3593 4.17218 13.4192 4.12459 13.6547 4.14774C14.0512 4.19348 14.1668 3.84736 13.915 3.39701C13.7232 3.05388 13.6923 3.04296 13.3447 3.19512C13.1254 3.28954 12.9927 3.40597 13.0287 3.4703C13.0647 3.53464 13.1794 3.54086 13.283 3.48293C13.3866 3.425 13.5014 3.43121 13.5374 3.49555C13.5853 3.58133 13.4877 3.64998 13.2659 3.71769C13.0878 3.77505 12.9225 3.81115 12.9105 3.78971C12.8951 3.78425 12.7024 3.63864 12.4823 3.46613C12.034 3.12033 11.3957 3.0487 10.7023 3.97928C10.662 4.09614 10.601 4.27788 10.5263 4.50051C10.224 5.40086 9.69738 6.96976 9.40562 7.61811C8.65556 9.26196 8.45894 9.58894 7.36975 10.9579C6.46998 12.0768 5.93412 12.14 5.5055 12.1905C5.33654 12.2105 5.18424 12.2284 5.03288 12.3083C4.73297 12.5344 4.77503 13.3208 4.87267 13.5617C5.01142 13.9205 4.99687 14.0271 4.8179 14.1272C4.56357 14.2694 4.54132 14.4507 4.76399 14.65C4.88303 14.7523 4.97979 14.7263 5.15362 14.5729C5.24329 14.4889 5.3128 14.4455 5.39007 14.441C4.78257 14.9521 4.61349 15.6135 4.88281 16.4251C4.98854 16.5929 5.10704 16.7488 5.23826 16.8928C5.16773 17.1399 5.06173 17.3706 4.92022 17.585C4.86982 17.8465 4.96961 17.9338 5.21955 17.8469C5.33483 17.6288 5.45957 17.4167 5.59371 17.2109C5.66937 17.104 5.76291 17.0167 5.87433 16.949C5.94 16.9927 5.97741 17.0551 5.98658 17.136C5.92668 17.4342 5.83314 17.721 5.70596 17.9966C5.6688 18.2212 5.76234 18.3022 5.98658 18.2398C6.12835 17.9393 6.28422 17.6462 6.45428 17.3605C6.50913 17.2923 6.57772 17.2735 6.66007 17.3044C6.71114 17.6318 6.66748 17.9498 6.52911 18.2585C6.47086 18.5253 6.57064 18.6126 6.82844 18.5204C6.92385 18.2094 7.04856 17.9101 7.2026 17.6224C7.39185 17.4539 7.48539 17.5038 7.48322 17.7721C7.45497 18.0567 7.4051 18.3373 7.33356 18.614C7.38845 18.7747 7.5007 18.8246 7.6703 18.7636C7.7482 18.4834 7.82928 18.2028 7.91351 17.9218C7.94759 17.8067 8.01618 17.7194 8.1193 17.6599C8.1679 17.6819 8.19907 17.7194 8.21284 17.7721C8.27693 18.103 8.27068 18.4335 8.19413 18.7636C8.23502 18.921 8.33481 18.9709 8.49346 18.9133C8.53839 18.8795 8.5696 18.8359 8.587 18.7823C8.60589 18.444 8.68072 18.1197 8.81149 17.8095C8.94043 17.7623 9.01526 17.8122 9.03599 17.9592C9.07831 18.2819 9.10326 18.6061 9.11082 18.932C9.14805 18.9532 9.17922 18.9781 9.20436 19.0068ZM12.4772 4.03197C12.4233 3.93546 12.2366 3.80057 12.067 3.74055C11.4042 3.50593 11.1131 3.93613 10.6533 5.81175C10.5398 6.27257 10.4937 6.65975 10.4514 7.0146C10.3753 7.65272 10.3117 8.18629 9.89131 8.85549C8.5444 11.0019 7.92021 11.7024 6.69224 12.403C6.43283 12.5535 6.1863 12.6465 5.99695 12.718C5.69566 12.8317 5.53915 12.8908 5.70586 13.0396C5.78208 13.1096 5.81977 13.2433 5.78723 13.3178C5.71616 13.4561 5.96453 13.7676 6.0964 13.6939C6.10617 13.6884 6.13243 13.7039 6.16727 13.7244C6.26677 13.7831 6.43624 13.883 6.4914 13.6541C6.65749 12.956 6.73718 12.7916 6.89563 13.2519C7.05066 13.7282 7.14453 13.8796 7.35514 13.1285L7.53038 12.4508L7.8129 12.7101C8.0724 13.0858 8.37318 12.7812 8.16335 12.4059C8.01415 12.1391 8.17269 12.157 8.38545 12.1811C8.43772 12.187 8.49327 12.1933 8.54833 12.1958C8.57954 12.1961 8.61381 12.2002 8.64753 12.2044C8.8284 12.2264 8.99351 12.2466 8.58759 11.6456C8.5382 11.5483 8.51198 11.5018 8.52127 11.4931C8.53501 11.4802 8.62644 11.5498 8.83542 11.6597C9.1951 11.8386 9.28008 11.752 9.11821 11.4625C9.0834 11.4002 9.12528 11.2462 9.16526 11.0992C9.18036 11.0437 9.19518 10.9892 9.20551 10.9409C9.24983 10.734 9.34313 10.7292 9.53856 10.7192C9.58471 10.7169 9.63655 10.7142 9.69478 10.7085C9.87032 10.6825 9.80006 10.5254 9.71617 10.3379C9.65274 10.1961 9.58151 10.0368 9.60288 9.90368C9.64483 9.66911 9.74673 9.54176 9.92484 9.4844C10.1218 9.4165 10.1792 9.3422 10.1235 9.17629C10.0421 8.89807 10.1868 8.80308 10.734 8.76455C11.2624 8.73656 11.1793 8.54374 10.6338 8.49686L10.4961 8.41334L10.8085 8.0953C10.9142 7.90419 10.9912 7.70349 11.0447 7.56395C11.0597 7.52494 11.0728 7.49071 11.0842 7.4628C11.1252 7.36886 11.1079 7.31036 11.1248 7.29772C11.1414 7.28531 11.191 7.31715 11.3616 7.4031C11.8814 7.64731 11.8506 7.42245 11.3616 7.03434C11.0345 6.78094 10.9771 6.70041 10.9617 6.38533L10.9377 6.0328L11.252 6.30747C11.6639 6.66829 11.6827 6.50294 11.3067 5.89682C11.0061 5.40339 11.0061 5.40339 11.3024 5.49107C11.5893 5.58401 11.6022 5.56276 11.7203 4.93372C11.8359 4.27797 12.0551 4.02874 12.3942 4.14878C12.5329 4.19788 12.5552 4.17136 12.4772 4.03197ZM5.33249 13.0794C5.37874 13.0958 5.40271 12.9839 5.4027 12.8291C5.37527 12.4925 5.31619 12.4974 5.27253 12.8174C5.26055 12.9508 5.28625 13.0631 5.33249 13.0794Z" fill="#FFF7F7"/>
</svg>
